<?xml version="1.0" encoding="UTF-8"?>
<svg id="Layer_2" data-name="Layer 2" xmlns="http://www.w3.org/2000/svg" viewBox="0 0 97.01 104.02">
  <g id="Layer_1-2" data-name="Layer 1">
    <path d="m97.01,26.57V4.83h-4.92V0h-38.62v4.94h-4.93v31.75h-4.98v4.98h-6.96v4.98h-6.96v3.98h-4.98v4.84h-10.02v-4.94h-4.98v-3.94h-4.97v-9.84H0v28.66h4.92v4.98h4.93v4.93h4.98v4.98h4.98v4.98h4.98v3.98h4.98v14.76h8.69v-4.85h-3.8v-13.86h9v3.95h4.98v14.77h9.67v-4.82h-4.8v-18.96h4.93v-4.98h4.98v-7.96h4.97v-16.74h5.09v4.79h4.71v-8.82h-9.75v-10.02h18.68v-4.86h-13.71v-5.09h23.63Zm-33.64-14.8h-4.9v-4.95h4.9v4.95Z"/>
  </g>
</svg>