<?xml version="1.0" encoding="UTF-8"?>
<svg id="Layer_2" data-name="Layer 2" xmlns="http://www.w3.org/2000/svg" viewBox="0 0 22.8 47.66">
  <g id="Layer_1-2" data-name="Layer 1">
    <polygon style="fill: #999" points="18.65 29.01 16.58 29.01 16.58 26.94 16.58 24.86 16.58 22.79 16.58 20.73 16.58 18.65 18.65 18.65 18.65 16.58 20.73 16.58 20.73 14.5 22.8 14.5 22.8 12.44 22.8 10.36 22.8 8.29 22.8 6.21 22.8 4.14 20.73 4.14 18.65 4.14 18.65 6.21 18.65 8.29 18.65 10.36 16.58 10.36 16.58 8.29 16.58 6.21 16.58 4.14 16.58 2.07 14.51 2.07 14.51 0 12.44 0 10.36 0 10.36 2.07 8.29 2.07 8.29 4.14 8.29 6.21 8.29 8.29 8.29 10.36 8.29 12.44 8.29 14.5 8.29 16.58 8.29 18.65 8.29 20.73 8.29 22.79 8.29 24.86 8.29 26.94 6.21 26.94 6.21 24.86 6.21 22.79 6.21 20.73 6.21 18.65 4.15 18.65 4.15 16.58 2.07 16.58 2.07 18.65 0 18.65 0 20.73 0 22.79 0 24.86 0 26.94 0 29.01 0 31.09 2.07 31.09 2.07 33.15 4.15 33.15 6.21 33.15 8.29 33.15 8.29 35.23 8.29 37.3 8.29 39.38 8.29 41.44 8.29 43.51 6.21 43.51 6.21 45.59 6.21 47.66 8.29 47.66 16.55 47.66 16.58 39.38 16.58 37.3 16.58 35.23 16.58 33.15 18.65 33.15 20.73 33.15 20.73 31.09 22.8 31.09 22.8 29.01 22.8 26.94 22.8 24.86 20.73 24.86 18.65 24.86 18.65 26.94 18.65 29.01"/>
  </g>
</svg>