<svg xmlns="http://www.w3.org/2000/svg" id="Layer_1" viewBox="0 0 997.1 2562.3">
  <defs>
    <pattern id="New_Pattern_Swatch_24" width="221" height="221" x="0" y="0" patternTransform="rotate(-180 -9258.2 -7738.2)" patternUnits="userSpaceOnUse">
      <path d="M0 0h221v221H0z" class="cls-1"/>
      <path d="M0 0h221v221H0z" class="cls-1"/>
      <path d="M0 0h221v221H0z" class="cls-1"/>
      <path d="M0 0h221v221H0z" class="cls-1"/>
      <path d="M0 0h221v221H0z" style="fill:#6a8a93"/>
    </pattern>
    <pattern id="New_Pattern_Swatch_32" width="123" height="123" x="0" y="0" patternTransform="rotate(-180 -9284.5 -7709.1)" patternUnits="userSpaceOnUse">
      <path d="M0 0h123v123H0z" class="cls-1"/>
      <path d="M0 0h123v123H0z" class="cls-1"/>
      <path d="M0 0h123v123H0z" class="cls-1"/>
      <path d="M0 0h123v123H0z" class="cls-1"/>
      <path d="M0 0h123v123H0z" class="cls-115"/>
    </pattern>
    <pattern id="New_Pattern_Swatch_83" width="99" height="99" x="0" y="0" patternTransform="rotate(-180 -9259 -7647.6)" patternUnits="userSpaceOnUse">
      <path d="M0 0h99v99H0z" class="cls-1"/>
      <path d="M0 0h99v99H0z" class="cls-1"/>
      <path d="M0 0h99v99H0z" class="cls-1"/>
      <path d="M0 0h99v99H0z" class="cls-1"/>
      <path d="M0 0h99v99H0z" class="cls-120"/>
    </pattern>
    <pattern id="New_Pattern_Swatch_58" width="194.4" height="194.4" x="0" y="0" patternTransform="rotate(-180 -9327.5 -7783.5)" patternUnits="userSpaceOnUse">
      <path d="M0 0h194.4v194.4H0z" class="cls-1"/>
      <path d="M0 0h194.4v194.4H0z" class="cls-1"/>
      <path d="M0 0h194.4v194.4H0z" class="cls-1"/>
      <path d="M0 0h194.4v194.4H0z" class="cls-1"/>
      <path d="M0 0h194.4v194.4H0z" class="cls-114"/>
    </pattern>
    <pattern id="New_Pattern_Swatch_58-2" width="194.4" height="194.4" x="0" y="0" patternTransform="matrix(-4.8 0 0 -1 -879.4 -11.1)" patternUnits="userSpaceOnUse">
      <path d="M0 0h194.4v194.4H0z" class="cls-1"/>
      <path d="M0 0h194.4v194.4H0z" class="cls-1"/>
      <path d="M0 0h194.4v194.4H0z" class="cls-1"/>
      <path d="M0 0h194.4v194.4H0z" class="cls-1"/>
      <path d="M0 0h194.4v194.4H0z" class="cls-114"/>
    </pattern>
    <pattern id="New_Pattern_Swatch_5-2" width="108" height="108" x="0" y="0" patternTransform="matrix(0 -1 -1 0 -74.6 -294.3)" patternUnits="userSpaceOnUse">
      <path d="M0 0h108v108H0z" class="cls-1"/>
      <path d="M0 0h108v108H0z" class="cls-1"/>
      <path d="M0 0h108v108H0z" class="cls-1"/>
      <path d="M0 0h108v108H0z" class="cls-1"/>
      <path d="M0 0h108v108H0z" class="cls-73"/>
    </pattern>
    <pattern id="New_Pattern_Swatch_68-190" width="130" height="130" x="0" y="0" patternTransform="matrix(1 0 0 -1 -128.2 -96.5)" patternUnits="userSpaceOnUse">
      <path d="M0 0h130v130H0z" class="cls-1"/>
      <path d="M0 0h130v130H0z" class="cls-1"/>
      <path d="M0 0h130v130H0z" class="cls-1"/>
      <path d="M0 0h130v130H0z" class="cls-1"/>
      <path d="M0 0h130v130H0z" class="cls-32"/>
    </pattern>
    <pattern id="New_Pattern_Swatch_66" width="194.4" height="194.4" x="0" y="0" patternTransform="matrix(1 0 0 -1 -73.1 -13.6)" patternUnits="userSpaceOnUse">
      <path d="M0 0h194.4v194.4H0z" class="cls-1"/>
      <path d="M0 0h194.4v194.4H0z" class="cls-1"/>
      <path d="M0 0h194.4v194.4H0z" class="cls-1"/>
      <path d="M0 0h194.4v194.4H0z" class="cls-1"/>
      <path d="M0 0h194.4v194.4H0z" style="fill:#928132"/>
    </pattern>
    <pattern id="New_Pattern_Swatch_1" width="32" height="32" x="0" y="0" patternTransform="matrix(1 0 0 -1 -7.2 -4.8)" patternUnits="userSpaceOnUse">
      <path d="M0 0h32v32H0z" class="cls-1"/>
      <path d="M0 0h32v32H0z" class="cls-1"/>
      <path d="M0 0h32v32H0z" class="cls-1"/>
      <path d="M0 0h32v32H0z" class="cls-1"/>
      <path d="M0 0h32v32H0z" style="fill:#aa5b4b"/>
    </pattern>
    <pattern id="New_Pattern_Swatch_28-19" width="173" height="173" x="0" y="0" patternTransform="matrix(1 0 0 -1 -110.2 -123.8)" patternUnits="userSpaceOnUse">
      <path d="M0 0h173v173H0z" class="cls-1"/>
      <path d="M0 0h173v173H0z" class="cls-1"/>
      <path d="M0 0h173v173H0z" class="cls-1"/>
      <path d="M0 0h173v173H0z" class="cls-1"/>
      <path d="M0 0h173v173H0z" class="cls-33"/>
    </pattern>
    <pattern id="New_Pattern_Swatch_28-2" width="173" height="173" x="0" y="0" patternTransform="rotate(-180 -9246 -7752.1)" patternUnits="userSpaceOnUse">
      <path d="M0 0h173v173H0z" class="cls-1"/>
      <path d="M0 0h173v173H0z" class="cls-1"/>
      <path d="M0 0h173v173H0z" class="cls-1"/>
      <path d="M0 0h173v173H0z" class="cls-1"/>
      <path d="M0 0h173v173H0z" class="cls-33"/>
    </pattern>
    <pattern id="New_Pattern_Swatch_28-3" width="173" height="173" x="0" y="0" patternTransform="rotate(-180 -9246 -7752.1)" patternUnits="userSpaceOnUse">
      <path d="M0 0h173v173H0z" class="cls-1"/>
      <path d="M0 0h173v173H0z" class="cls-1"/>
      <path d="M0 0h173v173H0z" class="cls-1"/>
      <path d="M0 0h173v173H0z" class="cls-1"/>
      <path d="M0 0h173v173H0z" class="cls-33"/>
    </pattern>
    <pattern id="New_Pattern_Swatch_28-4" width="173" height="173" x="0" y="0" patternTransform="rotate(-180 -9246 -7752.1)" patternUnits="userSpaceOnUse">
      <path d="M0 0h173v173H0z" class="cls-1"/>
      <path d="M0 0h173v173H0z" class="cls-1"/>
      <path d="M0 0h173v173H0z" class="cls-1"/>
      <path d="M0 0h173v173H0z" class="cls-1"/>
      <path d="M0 0h173v173H0z" class="cls-33"/>
    </pattern>
    <pattern id="New_Pattern_Swatch_28-5" width="173" height="173" x="0" y="0" patternTransform="rotate(-180 -9246 -7752.1)" patternUnits="userSpaceOnUse">
      <path d="M0 0h173v173H0z" class="cls-1"/>
      <path d="M0 0h173v173H0z" class="cls-1"/>
      <path d="M0 0h173v173H0z" class="cls-1"/>
      <path d="M0 0h173v173H0z" class="cls-1"/>
      <path d="M0 0h173v173H0z" class="cls-33"/>
    </pattern>
    <pattern id="New_Pattern_Swatch_28-6" width="173" height="173" x="0" y="0" patternTransform="rotate(-180 -9246 -7752.1)" patternUnits="userSpaceOnUse">
      <path d="M0 0h173v173H0z" class="cls-1"/>
      <path d="M0 0h173v173H0z" class="cls-1"/>
      <path d="M0 0h173v173H0z" class="cls-1"/>
      <path d="M0 0h173v173H0z" class="cls-1"/>
      <path d="M0 0h173v173H0z" class="cls-33"/>
    </pattern>
    <pattern id="New_Pattern_Swatch_28-7" width="173" height="173" x="0" y="0" patternTransform="rotate(-180 -9246 -7752.1)" patternUnits="userSpaceOnUse">
      <path d="M0 0h173v173H0z" class="cls-1"/>
      <path d="M0 0h173v173H0z" class="cls-1"/>
      <path d="M0 0h173v173H0z" class="cls-1"/>
      <path d="M0 0h173v173H0z" class="cls-1"/>
      <path d="M0 0h173v173H0z" class="cls-33"/>
    </pattern>
    <pattern id="New_Pattern_Swatch_28-8" width="173" height="173" x="0" y="0" patternTransform="rotate(-180 -9246 -7752.1)" patternUnits="userSpaceOnUse">
      <path d="M0 0h173v173H0z" class="cls-1"/>
      <path d="M0 0h173v173H0z" class="cls-1"/>
      <path d="M0 0h173v173H0z" class="cls-1"/>
      <path d="M0 0h173v173H0z" class="cls-1"/>
      <path d="M0 0h173v173H0z" class="cls-33"/>
    </pattern>
    <pattern id="New_Pattern_Swatch_28-9" width="173" height="173" x="0" y="0" patternTransform="rotate(-180 -9246 -7752.1)" patternUnits="userSpaceOnUse">
      <path d="M0 0h173v173H0z" class="cls-1"/>
      <path d="M0 0h173v173H0z" class="cls-1"/>
      <path d="M0 0h173v173H0z" class="cls-1"/>
      <path d="M0 0h173v173H0z" class="cls-1"/>
      <path d="M0 0h173v173H0z" class="cls-33"/>
    </pattern>
    <pattern id="New_Pattern_Swatch_28-10" width="173" height="173" x="0" y="0" patternTransform="rotate(-180 -9246 -7752.1)" patternUnits="userSpaceOnUse">
      <path d="M0 0h173v173H0z" class="cls-1"/>
      <path d="M0 0h173v173H0z" class="cls-1"/>
      <path d="M0 0h173v173H0z" class="cls-1"/>
      <path d="M0 0h173v173H0z" class="cls-1"/>
      <path d="M0 0h173v173H0z" class="cls-33"/>
    </pattern>
    <pattern id="New_Pattern_Swatch_28-11" width="173" height="173" x="0" y="0" patternTransform="rotate(-180 -9246 -7752.1)" patternUnits="userSpaceOnUse">
      <path d="M0 0h173v173H0z" class="cls-1"/>
      <path d="M0 0h173v173H0z" class="cls-1"/>
      <path d="M0 0h173v173H0z" class="cls-1"/>
      <path d="M0 0h173v173H0z" class="cls-1"/>
      <path d="M0 0h173v173H0z" class="cls-33"/>
    </pattern>
    <pattern id="New_Pattern_Swatch_28-12" width="173" height="173" x="0" y="0" patternTransform="rotate(-180 -9246 -7752.1)" patternUnits="userSpaceOnUse">
      <path d="M0 0h173v173H0z" class="cls-1"/>
      <path d="M0 0h173v173H0z" class="cls-1"/>
      <path d="M0 0h173v173H0z" class="cls-1"/>
      <path d="M0 0h173v173H0z" class="cls-1"/>
      <path d="M0 0h173v173H0z" class="cls-33"/>
    </pattern>
    <pattern id="New_Pattern_Swatch_28-13" width="173" height="173" x="0" y="0" patternTransform="rotate(-180 -9246 -7752.1)" patternUnits="userSpaceOnUse">
      <path d="M0 0h173v173H0z" class="cls-1"/>
      <path d="M0 0h173v173H0z" class="cls-1"/>
      <path d="M0 0h173v173H0z" class="cls-1"/>
      <path d="M0 0h173v173H0z" class="cls-1"/>
      <path d="M0 0h173v173H0z" class="cls-33"/>
    </pattern>
    <pattern id="New_Pattern_Swatch_28-14" width="173" height="173" x="0" y="0" patternTransform="rotate(-180 -9246 -7752.1)" patternUnits="userSpaceOnUse">
      <path d="M0 0h173v173H0z" class="cls-1"/>
      <path d="M0 0h173v173H0z" class="cls-1"/>
      <path d="M0 0h173v173H0z" class="cls-1"/>
      <path d="M0 0h173v173H0z" class="cls-1"/>
      <path d="M0 0h173v173H0z" class="cls-33"/>
    </pattern>
    <pattern id="New_Pattern_Swatch_28-15" width="173" height="173" x="0" y="0" patternTransform="rotate(-180 -9246 -7752.1)" patternUnits="userSpaceOnUse">
      <path d="M0 0h173v173H0z" class="cls-1"/>
      <path d="M0 0h173v173H0z" class="cls-1"/>
      <path d="M0 0h173v173H0z" class="cls-1"/>
      <path d="M0 0h173v173H0z" class="cls-1"/>
      <path d="M0 0h173v173H0z" class="cls-33"/>
    </pattern>
    <pattern id="New_Pattern_Swatch_28-16" width="173" height="173" x="0" y="0" patternTransform="rotate(-180 -9246 -7752.1)" patternUnits="userSpaceOnUse">
      <path d="M0 0h173v173H0z" class="cls-1"/>
      <path d="M0 0h173v173H0z" class="cls-1"/>
      <path d="M0 0h173v173H0z" class="cls-1"/>
      <path d="M0 0h173v173H0z" class="cls-1"/>
      <path d="M0 0h173v173H0z" class="cls-33"/>
    </pattern>
    <pattern id="New_Pattern_Swatch_29" width="168" height="168" x="0" y="0" patternTransform="rotate(-180 -9249.9 -7715.1)" patternUnits="userSpaceOnUse">
      <path d="M0 0h168v168H0z" class="cls-1"/>
      <path d="M0 0h168v168H0z" class="cls-1"/>
      <path d="M0 0h168v168H0z" class="cls-1"/>
      <path d="M0 0h168v168H0z" class="cls-1"/>
      <path d="M0 0h168v168H0z" class="cls-4"/>
    </pattern>
    <pattern id="New_Pattern_Swatch_48" width="173" height="173" x="0" y="0" patternTransform="rotate(-180 -9254.9 -7674.6)" patternUnits="userSpaceOnUse">
      <path d="M0 0h173v173H0z" class="cls-1"/>
      <path d="M0 0h173v173H0z" class="cls-1"/>
      <path d="M0 0h173v173H0z" class="cls-1"/>
      <path d="M0 0h173v173H0z" class="cls-1"/>
      <path d="M0 0h173v173H0z" class="cls-118"/>
    </pattern>
    <pattern id="New_Pattern_Swatch_68" width="130" height="130" x="0" y="0" patternTransform="rotate(-180 -9249.5 -7655.1)" patternUnits="userSpaceOnUse">
      <path d="M0 0h130v130H0z" class="cls-1"/>
      <path d="M0 0h130v130H0z" class="cls-1"/>
      <path d="M0 0h130v130H0z" class="cls-1"/>
      <path d="M0 0h130v130H0z" class="cls-1"/>
      <path d="M0 0h130v130H0z" class="cls-32"/>
    </pattern>
    <pattern id="New_Pattern_Swatch_19-2" width="245" height="245" x="0" y="0" patternTransform="rotate(-180 -9281.9 -7750.1)" patternUnits="userSpaceOnUse">
      <path d="M0 0h245v245H0z" class="cls-1"/>
      <path d="M0 0h245v245H0z" class="cls-1"/>
      <path d="M0 0h245v245H0z" class="cls-1"/>
      <path d="M0 0h245v245H0z" class="cls-1"/>
      <path d="M0 0h245v245H0z" class="cls-3"/>
    </pattern>
    <pattern id="New_Pattern_Swatch_19" width="245" height="245" x="0" y="0" patternTransform="rotate(-180 -9281.4 -7750.1)" patternUnits="userSpaceOnUse">
      <path d="M0 0h245v245H0z" class="cls-1"/>
      <path d="M0 0h245v245H0z" class="cls-1"/>
      <path d="M0 0h245v245H0z" class="cls-1"/>
      <path d="M0 0h245v245H0z" class="cls-1"/>
      <path d="M0 0h245v245H0z" class="cls-3"/>
    </pattern>
    <pattern id="New_Pattern_Swatch_19-3" width="245" height="245" x="0" y="0" patternTransform="rotate(-180 -9281.9 -7750.1)" patternUnits="userSpaceOnUse">
      <path d="M0 0h245v245H0z" class="cls-1"/>
      <path d="M0 0h245v245H0z" class="cls-1"/>
      <path d="M0 0h245v245H0z" class="cls-1"/>
      <path d="M0 0h245v245H0z" class="cls-1"/>
      <path d="M0 0h245v245H0z" class="cls-3"/>
    </pattern>
    <pattern id="New_Pattern_Swatch_68-3" width="130" height="130" x="0" y="0" patternTransform="rotate(-180 -9249 -7655.1)" patternUnits="userSpaceOnUse">
      <path d="M0 0h130v130H0z" class="cls-1"/>
      <path d="M0 0h130v130H0z" class="cls-1"/>
      <path d="M0 0h130v130H0z" class="cls-1"/>
      <path d="M0 0h130v130H0z" class="cls-1"/>
      <path d="M0 0h130v130H0z" class="cls-32"/>
    </pattern>
    <pattern id="New_Pattern_Swatch_68-4" width="130" height="130" x="0" y="0" patternTransform="rotate(-180 -9249 -7655.1)" patternUnits="userSpaceOnUse">
      <path d="M0 0h130v130H0z" class="cls-1"/>
      <path d="M0 0h130v130H0z" class="cls-1"/>
      <path d="M0 0h130v130H0z" class="cls-1"/>
      <path d="M0 0h130v130H0z" class="cls-1"/>
      <path d="M0 0h130v130H0z" class="cls-32"/>
    </pattern>
    <pattern id="New_Pattern_Swatch_68-5" width="130" height="130" x="0" y="0" patternTransform="rotate(-180 -9249 -7655.1)" patternUnits="userSpaceOnUse">
      <path d="M0 0h130v130H0z" class="cls-1"/>
      <path d="M0 0h130v130H0z" class="cls-1"/>
      <path d="M0 0h130v130H0z" class="cls-1"/>
      <path d="M0 0h130v130H0z" class="cls-1"/>
      <path d="M0 0h130v130H0z" class="cls-32"/>
    </pattern>
    <pattern id="New_Pattern_Swatch_68-6" width="130" height="130" x="0" y="0" patternTransform="rotate(-180 -9249 -7655.1)" patternUnits="userSpaceOnUse">
      <path d="M0 0h130v130H0z" class="cls-1"/>
      <path d="M0 0h130v130H0z" class="cls-1"/>
      <path d="M0 0h130v130H0z" class="cls-1"/>
      <path d="M0 0h130v130H0z" class="cls-1"/>
      <path d="M0 0h130v130H0z" class="cls-32"/>
    </pattern>
    <pattern id="New_Pattern_Swatch_28" width="173" height="173" x="0" y="0" patternTransform="rotate(-180 -9255 -7674.6)" patternUnits="userSpaceOnUse">
      <path d="M0 0h173v173H0z" class="cls-1"/>
      <path d="M0 0h173v173H0z" class="cls-1"/>
      <path d="M0 0h173v173H0z" class="cls-1"/>
      <path d="M0 0h173v173H0z" class="cls-1"/>
      <path d="M0 0h173v173H0z" class="cls-33"/>
    </pattern>
    <pattern id="New_Pattern_Swatch_68-2" width="130" height="130" x="0" y="0" patternTransform="rotate(-180 -9250 -7655.1)" patternUnits="userSpaceOnUse">
      <path d="M0 0h130v130H0z" class="cls-1"/>
      <path d="M0 0h130v130H0z" class="cls-1"/>
      <path d="M0 0h130v130H0z" class="cls-1"/>
      <path d="M0 0h130v130H0z" class="cls-1"/>
      <path d="M0 0h130v130H0z" class="cls-32"/>
    </pattern>
    <pattern id="New_Pattern_Swatch_28-21" width="173" height="173" x="0" y="0" patternTransform="matrix(1 0 0 -1 -110.2 -123.8)" patternUnits="userSpaceOnUse">
      <path d="M0 0h173v173H0z" class="cls-1"/>
      <path d="M0 0h173v173H0z" class="cls-1"/>
      <path d="M0 0h173v173H0z" class="cls-1"/>
      <path d="M0 0h173v173H0z" class="cls-1"/>
      <path d="M0 0h173v173H0z" class="cls-33"/>
    </pattern>
    <pattern id="New_Pattern_Swatch_83-2" width="99" height="99" x="0" y="0" patternTransform="rotate(-180 -9259.5 -7647.7)" patternUnits="userSpaceOnUse">
      <path d="M0 0h99v99H0z" class="cls-1"/>
      <path d="M0 0h99v99H0z" class="cls-1"/>
      <path d="M0 0h99v99H0z" class="cls-1"/>
      <path d="M0 0h99v99H0z" class="cls-1"/>
      <path d="M0 0h99v99H0z" class="cls-120"/>
    </pattern>
    <pattern id="New_Pattern_Swatch_83-3" width="99" height="99" x="0" y="0" patternTransform="rotate(-180 -9259.5 -7647.7)" patternUnits="userSpaceOnUse">
      <path d="M0 0h99v99H0z" class="cls-1"/>
      <path d="M0 0h99v99H0z" class="cls-1"/>
      <path d="M0 0h99v99H0z" class="cls-1"/>
      <path d="M0 0h99v99H0z" class="cls-1"/>
      <path d="M0 0h99v99H0z" class="cls-120"/>
    </pattern>
    <pattern id="New_Pattern_Swatch_83-4" width="99" height="99" x="0" y="0" patternTransform="rotate(-180 -9259.5 -7647.7)" patternUnits="userSpaceOnUse">
      <path d="M0 0h99v99H0z" class="cls-1"/>
      <path d="M0 0h99v99H0z" class="cls-1"/>
      <path d="M0 0h99v99H0z" class="cls-1"/>
      <path d="M0 0h99v99H0z" class="cls-1"/>
      <path d="M0 0h99v99H0z" class="cls-120"/>
    </pattern>
    <pattern id="New_Pattern_Swatch_83-5" width="99" height="99" x="0" y="0" patternTransform="rotate(-180 -9259.5 -7647.7)" patternUnits="userSpaceOnUse">
      <path d="M0 0h99v99H0z" class="cls-1"/>
      <path d="M0 0h99v99H0z" class="cls-1"/>
      <path d="M0 0h99v99H0z" class="cls-1"/>
      <path d="M0 0h99v99H0z" class="cls-1"/>
      <path d="M0 0h99v99H0z" class="cls-120"/>
    </pattern>
    <pattern id="New_Pattern_Swatch_83-6" width="99" height="99" x="0" y="0" patternTransform="rotate(-180 -9259.5 -7647.7)" patternUnits="userSpaceOnUse">
      <path d="M0 0h99v99H0z" class="cls-1"/>
      <path d="M0 0h99v99H0z" class="cls-1"/>
      <path d="M0 0h99v99H0z" class="cls-1"/>
      <path d="M0 0h99v99H0z" class="cls-1"/>
      <path d="M0 0h99v99H0z" class="cls-120"/>
    </pattern>
    <pattern id="New_Pattern_Swatch_83-7" width="99" height="99" x="0" y="0" patternTransform="rotate(-180 -9259.5 -7647.7)" patternUnits="userSpaceOnUse">
      <path d="M0 0h99v99H0z" class="cls-1"/>
      <path d="M0 0h99v99H0z" class="cls-1"/>
      <path d="M0 0h99v99H0z" class="cls-1"/>
      <path d="M0 0h99v99H0z" class="cls-1"/>
      <path d="M0 0h99v99H0z" class="cls-120"/>
    </pattern>
    <pattern id="New_Pattern_Swatch_83-8" width="99" height="99" x="0" y="0" patternTransform="rotate(-180 -9259.5 -7647.7)" patternUnits="userSpaceOnUse">
      <path d="M0 0h99v99H0z" class="cls-1"/>
      <path d="M0 0h99v99H0z" class="cls-1"/>
      <path d="M0 0h99v99H0z" class="cls-1"/>
      <path d="M0 0h99v99H0z" class="cls-1"/>
      <path d="M0 0h99v99H0z" class="cls-120"/>
    </pattern>
    <pattern id="New_Pattern_Swatch_83-9" width="99" height="99" x="0" y="0" patternTransform="rotate(-180 -9259.5 -7696.7)" patternUnits="userSpaceOnUse">
      <path d="M0 0h99v99H0z" class="cls-1"/>
      <path d="M0 0h99v99H0z" class="cls-1"/>
      <path d="M0 0h99v99H0z" class="cls-1"/>
      <path d="M0 0h99v99H0z" class="cls-1"/>
      <path d="M0 0h99v99H0z" class="cls-120"/>
    </pattern>
    <pattern id="New_Pattern_Swatch_83-10" width="99" height="99" x="0" y="0" patternTransform="rotate(-180 -9259.5 -7696.7)" patternUnits="userSpaceOnUse">
      <path d="M0 0h99v99H0z" class="cls-1"/>
      <path d="M0 0h99v99H0z" class="cls-1"/>
      <path d="M0 0h99v99H0z" class="cls-1"/>
      <path d="M0 0h99v99H0z" class="cls-1"/>
      <path d="M0 0h99v99H0z" class="cls-120"/>
    </pattern>
    <pattern id="New_Pattern_Swatch_83-11" width="99" height="99" x="0" y="0" patternTransform="rotate(-180 -9259.5 -7696.7)" patternUnits="userSpaceOnUse">
      <path d="M0 0h99v99H0z" class="cls-1"/>
      <path d="M0 0h99v99H0z" class="cls-1"/>
      <path d="M0 0h99v99H0z" class="cls-1"/>
      <path d="M0 0h99v99H0z" class="cls-1"/>
      <path d="M0 0h99v99H0z" class="cls-120"/>
    </pattern>
    <pattern id="New_Pattern_Swatch_83-12" width="99" height="99" x="0" y="0" patternTransform="rotate(-180 -9259.5 -7696.7)" patternUnits="userSpaceOnUse">
      <path d="M0 0h99v99H0z" class="cls-1"/>
      <path d="M0 0h99v99H0z" class="cls-1"/>
      <path d="M0 0h99v99H0z" class="cls-1"/>
      <path d="M0 0h99v99H0z" class="cls-1"/>
      <path d="M0 0h99v99H0z" class="cls-120"/>
    </pattern>
    <pattern id="New_Pattern_Swatch_83-13" width="99" height="99" x="0" y="0" patternTransform="rotate(-180 -9259.5 -7647.7)" patternUnits="userSpaceOnUse">
      <path d="M0 0h99v99H0z" class="cls-1"/>
      <path d="M0 0h99v99H0z" class="cls-1"/>
      <path d="M0 0h99v99H0z" class="cls-1"/>
      <path d="M0 0h99v99H0z" class="cls-1"/>
      <path d="M0 0h99v99H0z" class="cls-120"/>
    </pattern>
    <pattern id="New_Pattern_Swatch_83-14" width="99" height="99" x="0" y="0" patternTransform="rotate(-180 -9259.5 -7647.7)" patternUnits="userSpaceOnUse">
      <path d="M0 0h99v99H0z" class="cls-1"/>
      <path d="M0 0h99v99H0z" class="cls-1"/>
      <path d="M0 0h99v99H0z" class="cls-1"/>
      <path d="M0 0h99v99H0z" class="cls-1"/>
      <path d="M0 0h99v99H0z" class="cls-120"/>
    </pattern>
    <pattern id="New_Pattern_Swatch_83-15" width="99" height="99" x="0" y="0" patternTransform="rotate(-180 -9259 -7696.7)" patternUnits="userSpaceOnUse">
      <path d="M0 0h99v99H0z" class="cls-1"/>
      <path d="M0 0h99v99H0z" class="cls-1"/>
      <path d="M0 0h99v99H0z" class="cls-1"/>
      <path d="M0 0h99v99H0z" class="cls-1"/>
      <path d="M0 0h99v99H0z" class="cls-120"/>
    </pattern>
    <pattern id="New_Pattern_Swatch_83-16" width="99" height="99" x="0" y="0" patternTransform="rotate(-180 -9259.5 -7647.7)" patternUnits="userSpaceOnUse">
      <path d="M0 0h99v99H0z" class="cls-1"/>
      <path d="M0 0h99v99H0z" class="cls-1"/>
      <path d="M0 0h99v99H0z" class="cls-1"/>
      <path d="M0 0h99v99H0z" class="cls-1"/>
      <path d="M0 0h99v99H0z" class="cls-120"/>
    </pattern>
    <pattern id="New_Pattern_Swatch_83-17" width="99" height="99" x="0" y="0" patternTransform="rotate(-180 -9259 -7696.2)" patternUnits="userSpaceOnUse">
      <path d="M0 0h99v99H0z" class="cls-1"/>
      <path d="M0 0h99v99H0z" class="cls-1"/>
      <path d="M0 0h99v99H0z" class="cls-1"/>
      <path d="M0 0h99v99H0z" class="cls-1"/>
      <path d="M0 0h99v99H0z" class="cls-120"/>
    </pattern>
    <pattern id="New_Pattern_Swatch_83-18" width="99" height="99" x="0" y="0" patternTransform="rotate(-180 -9259 -7696.7)" patternUnits="userSpaceOnUse">
      <path d="M0 0h99v99H0z" class="cls-1"/>
      <path d="M0 0h99v99H0z" class="cls-1"/>
      <path d="M0 0h99v99H0z" class="cls-1"/>
      <path d="M0 0h99v99H0z" class="cls-1"/>
      <path d="M0 0h99v99H0z" class="cls-120"/>
    </pattern>
    <pattern id="New_Pattern_Swatch_83-19" width="99" height="99" x="0" y="0" patternTransform="rotate(-180 -9259 -7696.7)" patternUnits="userSpaceOnUse">
      <path d="M0 0h99v99H0z" class="cls-1"/>
      <path d="M0 0h99v99H0z" class="cls-1"/>
      <path d="M0 0h99v99H0z" class="cls-1"/>
      <path d="M0 0h99v99H0z" class="cls-1"/>
      <path d="M0 0h99v99H0z" class="cls-120"/>
    </pattern>
    <pattern id="New_Pattern_Swatch_83-20" width="99" height="99" x="0" y="0" patternTransform="rotate(-180 -9259 -7696.7)" patternUnits="userSpaceOnUse">
      <path d="M0 0h99v99H0z" class="cls-1"/>
      <path d="M0 0h99v99H0z" class="cls-1"/>
      <path d="M0 0h99v99H0z" class="cls-1"/>
      <path d="M0 0h99v99H0z" class="cls-1"/>
      <path d="M0 0h99v99H0z" class="cls-120"/>
    </pattern>
    <pattern id="New_Pattern_Swatch_83-21" width="99" height="99" x="0" y="0" patternTransform="rotate(-180 -9259 -7696.7)" patternUnits="userSpaceOnUse">
      <path d="M0 0h99v99H0z" class="cls-1"/>
      <path d="M0 0h99v99H0z" class="cls-1"/>
      <path d="M0 0h99v99H0z" class="cls-1"/>
      <path d="M0 0h99v99H0z" class="cls-1"/>
      <path d="M0 0h99v99H0z" class="cls-120"/>
    </pattern>
    <pattern id="New_Pattern_Swatch_83-22" width="99" height="99" x="0" y="0" patternTransform="rotate(-180 -9259 -7696.7)" patternUnits="userSpaceOnUse">
      <path d="M0 0h99v99H0z" class="cls-1"/>
      <path d="M0 0h99v99H0z" class="cls-1"/>
      <path d="M0 0h99v99H0z" class="cls-1"/>
      <path d="M0 0h99v99H0z" class="cls-1"/>
      <path d="M0 0h99v99H0z" class="cls-120"/>
    </pattern>
    <pattern id="New_Pattern_Swatch_83-23" width="99" height="99" x="0" y="0" patternTransform="rotate(-180 -9259 -7696.7)" patternUnits="userSpaceOnUse">
      <path d="M0 0h99v99H0z" class="cls-1"/>
      <path d="M0 0h99v99H0z" class="cls-1"/>
      <path d="M0 0h99v99H0z" class="cls-1"/>
      <path d="M0 0h99v99H0z" class="cls-1"/>
      <path d="M0 0h99v99H0z" class="cls-120"/>
    </pattern>
    <pattern id="New_Pattern_Swatch_83-24" width="99" height="99" x="0" y="0" patternTransform="rotate(-180 -9259 -7696.7)" patternUnits="userSpaceOnUse">
      <path d="M0 0h99v99H0z" class="cls-1"/>
      <path d="M0 0h99v99H0z" class="cls-1"/>
      <path d="M0 0h99v99H0z" class="cls-1"/>
      <path d="M0 0h99v99H0z" class="cls-1"/>
      <path d="M0 0h99v99H0z" class="cls-120"/>
    </pattern>
    <pattern id="New_Pattern_Swatch_83-25" width="99" height="99" x="0" y="0" patternTransform="rotate(-180 -9259 -7648.2)" patternUnits="userSpaceOnUse">
      <path d="M0 0h99v99H0z" class="cls-1"/>
      <path d="M0 0h99v99H0z" class="cls-1"/>
      <path d="M0 0h99v99H0z" class="cls-1"/>
      <path d="M0 0h99v99H0z" class="cls-1"/>
      <path d="M0 0h99v99H0z" class="cls-120"/>
    </pattern>
    <pattern id="New_Pattern_Swatch_83-26" width="99" height="99" x="0" y="0" patternTransform="rotate(-180 -9259 -7696.7)" patternUnits="userSpaceOnUse">
      <path d="M0 0h99v99H0z" class="cls-1"/>
      <path d="M0 0h99v99H0z" class="cls-1"/>
      <path d="M0 0h99v99H0z" class="cls-1"/>
      <path d="M0 0h99v99H0z" class="cls-1"/>
      <path d="M0 0h99v99H0z" class="cls-120"/>
    </pattern>
    <pattern id="New_Pattern_Swatch_83-27" width="99" height="99" x="0" y="0" patternTransform="rotate(-180 -9259 -7648.2)" patternUnits="userSpaceOnUse">
      <path d="M0 0h99v99H0z" class="cls-1"/>
      <path d="M0 0h99v99H0z" class="cls-1"/>
      <path d="M0 0h99v99H0z" class="cls-1"/>
      <path d="M0 0h99v99H0z" class="cls-1"/>
      <path d="M0 0h99v99H0z" class="cls-120"/>
    </pattern>
    <pattern id="New_Pattern_Swatch_58-3" width="194.4" height="194.4" x="0" y="0" patternTransform="matrix(1 0 0 -1 -140.8 -16.4)" patternUnits="userSpaceOnUse">
      <path d="M0 0h194.4v194.4H0z" class="cls-1"/>
      <path d="M0 0h194.4v194.4H0z" class="cls-1"/>
      <path d="M0 0h194.4v194.4H0z" class="cls-1"/>
      <path d="M0 0h194.4v194.4H0z" class="cls-1"/>
      <path d="M0 0h194.4v194.4H0z" class="cls-114"/>
    </pattern>
    <pattern id="New_Pattern_Swatch_83-28" width="99" height="99" x="0" y="0" patternTransform="rotate(-180 -9259.6 -7647.6)" patternUnits="userSpaceOnUse">
      <path d="M0 0h99v99H0z" class="cls-1"/>
      <path d="M0 0h99v99H0z" class="cls-1"/>
      <path d="M0 0h99v99H0z" class="cls-1"/>
      <path d="M0 0h99v99H0z" class="cls-1"/>
      <path d="M0 0h99v99H0z" class="cls-120"/>
    </pattern>
    <pattern id="New_Pattern_Swatch_83-29" width="99" height="99" x="0" y="0" patternTransform="rotate(-180 -9259.6 -7647.6)" patternUnits="userSpaceOnUse">
      <path d="M0 0h99v99H0z" class="cls-1"/>
      <path d="M0 0h99v99H0z" class="cls-1"/>
      <path d="M0 0h99v99H0z" class="cls-1"/>
      <path d="M0 0h99v99H0z" class="cls-1"/>
      <path d="M0 0h99v99H0z" class="cls-120"/>
    </pattern>
    <pattern id="New_Pattern_Swatch_83-30" width="99" height="99" x="0" y="0" patternTransform="rotate(-180 -9259.6 -7647.6)" patternUnits="userSpaceOnUse">
      <path d="M0 0h99v99H0z" class="cls-1"/>
      <path d="M0 0h99v99H0z" class="cls-1"/>
      <path d="M0 0h99v99H0z" class="cls-1"/>
      <path d="M0 0h99v99H0z" class="cls-1"/>
      <path d="M0 0h99v99H0z" class="cls-120"/>
    </pattern>
    <pattern id="New_Pattern_Swatch_83-31" width="99" height="99" x="0" y="0" patternTransform="rotate(-180 -9259.6 -7647.6)" patternUnits="userSpaceOnUse">
      <path d="M0 0h99v99H0z" class="cls-1"/>
      <path d="M0 0h99v99H0z" class="cls-1"/>
      <path d="M0 0h99v99H0z" class="cls-1"/>
      <path d="M0 0h99v99H0z" class="cls-1"/>
      <path d="M0 0h99v99H0z" class="cls-120"/>
    </pattern>
    <pattern id="New_Pattern_Swatch_83-32" width="99" height="99" x="0" y="0" patternTransform="rotate(-180 -9259.6 -7647.6)" patternUnits="userSpaceOnUse">
      <path d="M0 0h99v99H0z" class="cls-1"/>
      <path d="M0 0h99v99H0z" class="cls-1"/>
      <path d="M0 0h99v99H0z" class="cls-1"/>
      <path d="M0 0h99v99H0z" class="cls-1"/>
      <path d="M0 0h99v99H0z" class="cls-120"/>
    </pattern>
    <pattern id="New_Pattern_Swatch_83-33" width="99" height="99" x="0" y="0" patternTransform="rotate(-180 -9259.6 -7647.6)" patternUnits="userSpaceOnUse">
      <path d="M0 0h99v99H0z" class="cls-1"/>
      <path d="M0 0h99v99H0z" class="cls-1"/>
      <path d="M0 0h99v99H0z" class="cls-1"/>
      <path d="M0 0h99v99H0z" class="cls-1"/>
      <path d="M0 0h99v99H0z" class="cls-120"/>
    </pattern>
    <pattern id="New_Pattern_Swatch_83-34" width="99" height="99" x="0" y="0" patternTransform="rotate(-180 -9259.6 -7647.6)" patternUnits="userSpaceOnUse">
      <path d="M0 0h99v99H0z" class="cls-1"/>
      <path d="M0 0h99v99H0z" class="cls-1"/>
      <path d="M0 0h99v99H0z" class="cls-1"/>
      <path d="M0 0h99v99H0z" class="cls-1"/>
      <path d="M0 0h99v99H0z" class="cls-120"/>
    </pattern>
    <pattern id="New_Pattern_Swatch_83-35" width="99" height="99" x="0" y="0" patternTransform="rotate(-180 -9259.6 -7647.6)" patternUnits="userSpaceOnUse">
      <path d="M0 0h99v99H0z" class="cls-1"/>
      <path d="M0 0h99v99H0z" class="cls-1"/>
      <path d="M0 0h99v99H0z" class="cls-1"/>
      <path d="M0 0h99v99H0z" class="cls-1"/>
      <path d="M0 0h99v99H0z" class="cls-120"/>
    </pattern>
    <pattern id="New_Pattern_Swatch_83-36" width="99" height="99" x="0" y="0" patternTransform="rotate(-180 -9259.6 -7647.6)" patternUnits="userSpaceOnUse">
      <path d="M0 0h99v99H0z" class="cls-1"/>
      <path d="M0 0h99v99H0z" class="cls-1"/>
      <path d="M0 0h99v99H0z" class="cls-1"/>
      <path d="M0 0h99v99H0z" class="cls-1"/>
      <path d="M0 0h99v99H0z" class="cls-120"/>
    </pattern>
    <pattern id="New_Pattern_Swatch_32-2" width="123" height="123" x="0" y="0" patternTransform="rotate(-180 -9285.1 -7709.1)" patternUnits="userSpaceOnUse">
      <path d="M0 0h123v123H0z" class="cls-1"/>
      <path d="M0 0h123v123H0z" class="cls-1"/>
      <path d="M0 0h123v123H0z" class="cls-1"/>
      <path d="M0 0h123v123H0z" class="cls-1"/>
      <path d="M0 0h123v123H0z" class="cls-115"/>
    </pattern>
    <pattern id="New_Pattern_Swatch_48-2" width="173" height="173" x="0" y="0" patternTransform="matrix(1 0 0 -1 -110.2 -123.8)" patternUnits="userSpaceOnUse">
      <path d="M0 0h173v173H0z" class="cls-1"/>
      <path d="M0 0h173v173H0z" class="cls-1"/>
      <path d="M0 0h173v173H0z" class="cls-1"/>
      <path d="M0 0h173v173H0z" class="cls-1"/>
      <path d="M0 0h173v173H0z" class="cls-118"/>
    </pattern>
    <pattern id="New_Pattern_Swatch_48-3" width="173" height="173" x="0" y="0" patternTransform="matrix(1 0 0 -1 -110.2 -123.8)" patternUnits="userSpaceOnUse">
      <path d="M0 0h173v173H0z" class="cls-1"/>
      <path d="M0 0h173v173H0z" class="cls-1"/>
      <path d="M0 0h173v173H0z" class="cls-1"/>
      <path d="M0 0h173v173H0z" class="cls-1"/>
      <path d="M0 0h173v173H0z" class="cls-118"/>
    </pattern>
    <pattern id="New_Pattern_Swatch_29-2" width="168" height="168" x="0" y="0" patternTransform="matrix(1 0 0 -1 -87.2 -140.8)" patternUnits="userSpaceOnUse">
      <path d="M0 0h168v168H0z" class="cls-1"/>
      <path d="M0 0h168v168H0z" class="cls-1"/>
      <path d="M0 0h168v168H0z" class="cls-1"/>
      <path d="M0 0h168v168H0z" class="cls-1"/>
      <path d="M0 0h168v168H0z" class="cls-4"/>
    </pattern>
    <pattern id="New_Pattern_Swatch_48-4" width="173" height="173" x="0" y="0" patternTransform="matrix(1 0 0 -1 -110.2 -123.8)" patternUnits="userSpaceOnUse">
      <path d="M0 0h173v173H0z" class="cls-1"/>
      <path d="M0 0h173v173H0z" class="cls-1"/>
      <path d="M0 0h173v173H0z" class="cls-1"/>
      <path d="M0 0h173v173H0z" class="cls-1"/>
      <path d="M0 0h173v173H0z" class="cls-118"/>
    </pattern>
    <pattern id="New_Pattern_Swatch_48-5" width="173" height="173" x="0" y="0" patternTransform="matrix(1 0 0 -1 -110.2 -123.8)" patternUnits="userSpaceOnUse">
      <path d="M0 0h173v173H0z" class="cls-1"/>
      <path d="M0 0h173v173H0z" class="cls-1"/>
      <path d="M0 0h173v173H0z" class="cls-1"/>
      <path d="M0 0h173v173H0z" class="cls-1"/>
      <path d="M0 0h173v173H0z" class="cls-118"/>
    </pattern>
    <pattern id="New_Pattern_Swatch_29-3" width="168" height="168" x="0" y="0" patternTransform="matrix(1 0 0 -1 -87.2 -140.8)" patternUnits="userSpaceOnUse">
      <path d="M0 0h168v168H0z" class="cls-1"/>
      <path d="M0 0h168v168H0z" class="cls-1"/>
      <path d="M0 0h168v168H0z" class="cls-1"/>
      <path d="M0 0h168v168H0z" class="cls-1"/>
      <path d="M0 0h168v168H0z" class="cls-4"/>
    </pattern>
    <pattern id="New_Pattern_Swatch_29-4" width="168" height="168" x="0" y="0" patternTransform="matrix(1 0 0 -1 -87.2 -140.8)" patternUnits="userSpaceOnUse">
      <path d="M0 0h168v168H0z" class="cls-1"/>
      <path d="M0 0h168v168H0z" class="cls-1"/>
      <path d="M0 0h168v168H0z" class="cls-1"/>
      <path d="M0 0h168v168H0z" class="cls-1"/>
      <path d="M0 0h168v168H0z" class="cls-4"/>
    </pattern>
    <pattern id="New_Pattern_Swatch_48-6" width="173" height="173" x="0" y="0" patternTransform="matrix(1 0 0 -1 -110.2 -123.8)" patternUnits="userSpaceOnUse">
      <path d="M0 0h173v173H0z" class="cls-1"/>
      <path d="M0 0h173v173H0z" class="cls-1"/>
      <path d="M0 0h173v173H0z" class="cls-1"/>
      <path d="M0 0h173v173H0z" class="cls-1"/>
      <path d="M0 0h173v173H0z" class="cls-118"/>
    </pattern>
    <pattern id="New_Pattern_Swatch_29-5" width="168" height="168" x="0" y="0" patternTransform="matrix(1 0 0 -1 -87.2 -140.8)" patternUnits="userSpaceOnUse">
      <path d="M0 0h168v168H0z" class="cls-1"/>
      <path d="M0 0h168v168H0z" class="cls-1"/>
      <path d="M0 0h168v168H0z" class="cls-1"/>
      <path d="M0 0h168v168H0z" class="cls-1"/>
      <path d="M0 0h168v168H0z" class="cls-4"/>
    </pattern>
    <pattern id="New_Pattern_Swatch_48-7" width="173" height="173" x="0" y="0" patternTransform="matrix(1 0 0 -1 -110.2 -123.8)" patternUnits="userSpaceOnUse">
      <path d="M0 0h173v173H0z" class="cls-1"/>
      <path d="M0 0h173v173H0z" class="cls-1"/>
      <path d="M0 0h173v173H0z" class="cls-1"/>
      <path d="M0 0h173v173H0z" class="cls-1"/>
      <path d="M0 0h173v173H0z" class="cls-118"/>
    </pattern>
    <pattern id="New_Pattern_Swatch_48-8" width="173" height="173" x="0" y="0" patternTransform="matrix(1 0 0 -1 -110.2 -123.8)" patternUnits="userSpaceOnUse">
      <path d="M0 0h173v173H0z" class="cls-1"/>
      <path d="M0 0h173v173H0z" class="cls-1"/>
      <path d="M0 0h173v173H0z" class="cls-1"/>
      <path d="M0 0h173v173H0z" class="cls-1"/>
      <path d="M0 0h173v173H0z" class="cls-118"/>
    </pattern>
    <pattern id="New_Pattern_Swatch_29-6" width="168" height="168" x="0" y="0" patternTransform="matrix(1 0 0 -1 -87.2 -140.8)" patternUnits="userSpaceOnUse">
      <path d="M0 0h168v168H0z" class="cls-1"/>
      <path d="M0 0h168v168H0z" class="cls-1"/>
      <path d="M0 0h168v168H0z" class="cls-1"/>
      <path d="M0 0h168v168H0z" class="cls-1"/>
      <path d="M0 0h168v168H0z" class="cls-4"/>
    </pattern>
    <pattern id="New_Pattern_Swatch_32-8" width="123" height="123" x="0" y="0" patternTransform="matrix(1 0 0 -1 -84.2 -41.8)" patternUnits="userSpaceOnUse">
      <path d="M0 0h123v123H0z" class="cls-1"/>
      <path d="M0 0h123v123H0z" class="cls-1"/>
      <path d="M0 0h123v123H0z" class="cls-1"/>
      <path d="M0 0h123v123H0z" class="cls-1"/>
      <path d="M0 0h123v123H0z" class="cls-115"/>
    </pattern>
    <pattern id="New_Pattern_Swatch_32-9" width="123" height="123" x="0" y="0" patternTransform="matrix(1 0 0 -1 -84.2 -41.8)" patternUnits="userSpaceOnUse">
      <path d="M0 0h123v123H0z" class="cls-1"/>
      <path d="M0 0h123v123H0z" class="cls-1"/>
      <path d="M0 0h123v123H0z" class="cls-1"/>
      <path d="M0 0h123v123H0z" class="cls-1"/>
      <path d="M0 0h123v123H0z" class="cls-115"/>
    </pattern>
    <pattern id="New_Pattern_Swatch_32-10" width="123" height="123" x="0" y="0" patternTransform="matrix(1 0 0 -1 -84.2 -41.8)" patternUnits="userSpaceOnUse">
      <path d="M0 0h123v123H0z" class="cls-1"/>
      <path d="M0 0h123v123H0z" class="cls-1"/>
      <path d="M0 0h123v123H0z" class="cls-1"/>
      <path d="M0 0h123v123H0z" class="cls-1"/>
      <path d="M0 0h123v123H0z" class="cls-115"/>
    </pattern>
    <pattern id="New_Pattern_Swatch_32-11" width="123" height="123" x="0" y="0" patternTransform="matrix(1 0 0 -1 -84.2 -41.8)" patternUnits="userSpaceOnUse">
      <path d="M0 0h123v123H0z" class="cls-1"/>
      <path d="M0 0h123v123H0z" class="cls-1"/>
      <path d="M0 0h123v123H0z" class="cls-1"/>
      <path d="M0 0h123v123H0z" class="cls-1"/>
      <path d="M0 0h123v123H0z" class="cls-115"/>
    </pattern>
    <pattern id="New_Pattern_Swatch_28-17" width="173" height="173" x="0" y="0" patternTransform="matrix(1 0 0 -1 -171.2 -126.6)" patternUnits="userSpaceOnUse">
      <path d="M0 0h173v173H0z" class="cls-1"/>
      <path d="M0 0h173v173H0z" class="cls-1"/>
      <path d="M0 0h173v173H0z" class="cls-1"/>
      <path d="M0 0h173v173H0z" class="cls-1"/>
      <path d="M0 0h173v173H0z" class="cls-33"/>
    </pattern>
    <clipPath id="clippath">
      <path d="M838 1418.6h17.8v17.8H838z" class="cls-1"/>
    </clipPath>
    <clipPath id="clippath-1">
      <path d="M802.5 1329.7h17.8v17.8h-17.8z" class="cls-1"/>
    </clipPath>
    <clipPath id="clippath-2">
      <path d="M802.5 1294.2h17.8v17.8h-17.8z" class="cls-1"/>
    </clipPath>
    <clipPath id="clippath-3">
      <path d="M766.9 1347.5h17.8v17.8h-17.8z" class="cls-1"/>
    </clipPath>
    <clipPath id="clippath-4">
      <path d="M766.9 1311.9v17.8h35.6v-17.8h-35.6z" class="cls-1"/>
    </clipPath>
    <clipPath id="clippath-5">
      <path d="M749.1 1418.6h17.8v17.8h-17.8z" class="cls-1"/>
    </clipPath>
    <clipPath id="clippath-6">
      <path d="M749.1 1329.7h17.8v17.8h-17.8z" class="cls-1"/>
    </clipPath>
    <clipPath id="clippath-7">
      <path d="M731.3 1436.4h-17.8v17.8h35.6v-17.8h-17.8z" class="cls-1"/>
    </clipPath>
    <clipPath id="clippath-8">
      <path d="M731.3 1418.6h17.8v-71.1h-17.8v35.5h-17.8v17.8h17.8v17.8z" class="cls-1"/>
    </clipPath>
    <clipPath id="clippath-9">
      <path d="M731.3 1294.2h17.8v17.8h-17.8z" class="cls-1"/>
    </clipPath>
    <clipPath id="clippath-10">
      <path d="M731.3 1329.7v-17.8h-35.6v17.8h35.6z" class="cls-1"/>
    </clipPath>
    <clipPath id="clippath-11">
      <path d="M713.5 1276.4h17.8v17.8h-17.8z" class="cls-1"/>
    </clipPath>
    <clipPath id="clippath-12">
      <path d="M695.7 1418.6h17.8v17.8h-17.8z" class="cls-1"/>
    </clipPath>
    <clipPath id="clippath-13">
      <path d="M695.7 1329.7h-17.8v35.6h-17.7v17.7h17.7v35.6h17.8v-88.9z" class="cls-1"/>
    </clipPath>
    <clipPath id="clippath-14">
      <path d="M677.9 1294.2h17.8v17.8h-17.8z" class="cls-1"/>
    </clipPath>
    <style>
      .cls-1{fill:none}.cls-3{fill:#ce9871}.cls-4{fill:#c2819c}.cls-5{fill:url(#New_Pattern_Swatch_5-2)}.cls-8{fill:url(#New_Pattern_Swatch_48)}.cls-9{fill:url(#New_Pattern_Swatch_19)}.cls-10{fill:url(#New_Pattern_Swatch_58)}.cls-11{fill:url(#New_Pattern_Swatch_83)}.cls-12{fill:url(#New_Pattern_Swatch_66)}.cls-13{fill:url(#New_Pattern_Swatch_68)}.cls-14{fill:url(#New_Pattern_Swatch_32)}.cls-15{fill:url(#New_Pattern_Swatch_24)}.cls-16{fill:url(#New_Pattern_Swatch_28)}.cls-17{fill:url(#New_Pattern_Swatch_29)}.cls-32{fill:#b5c7d5}.cls-33{fill:#0d1314}.cls-40{fill:url(#New_Pattern_Swatch_83-27)}.cls-41{fill:url(#New_Pattern_Swatch_83-26)}.cls-43{fill:url(#New_Pattern_Swatch_83-13)}.cls-44{fill:url(#New_Pattern_Swatch_83-12)}.cls-45{fill:url(#New_Pattern_Swatch_83-11)}.cls-46{fill:url(#New_Pattern_Swatch_83-10)}.cls-51{fill:url(#New_Pattern_Swatch_83-19)}.cls-52{fill:url(#New_Pattern_Swatch_83-20)}.cls-53{fill:url(#New_Pattern_Swatch_83-25)}.cls-54{fill:url(#New_Pattern_Swatch_83-24)}.cls-55{fill:url(#New_Pattern_Swatch_83-23)}.cls-56{fill:url(#New_Pattern_Swatch_83-22)}.cls-57{fill:url(#New_Pattern_Swatch_83-21)}.cls-58{fill:url(#New_Pattern_Swatch_83-16)}.cls-59{fill:url(#New_Pattern_Swatch_83-17)}.cls-60{fill:url(#New_Pattern_Swatch_83-18)}.cls-61{fill:url(#New_Pattern_Swatch_83-15)}.cls-62{fill:url(#New_Pattern_Swatch_83-14)}.cls-73{fill:#dbe3e8}.cls-75{fill:url(#New_Pattern_Swatch_58-2)}.cls-84{fill:url(#New_Pattern_Swatch_48-5)}.cls-85{fill:url(#New_Pattern_Swatch_48-4)}.cls-86{fill:url(#New_Pattern_Swatch_48-7)}.cls-87{fill:url(#New_Pattern_Swatch_48-6)}.cls-88{fill:url(#New_Pattern_Swatch_48-8)}.cls-89{fill:url(#New_Pattern_Swatch_48-3)}.cls-90{fill:url(#New_Pattern_Swatch_48-2)}.cls-94{fill:url(#New_Pattern_Swatch_29-2)}.cls-95{fill:url(#New_Pattern_Swatch_29-3)}.cls-96{fill:url(#New_Pattern_Swatch_29-4)}.cls-97{fill:url(#New_Pattern_Swatch_29-5)}.cls-98{fill:url(#New_Pattern_Swatch_29-6)}.cls-99{fill:url(#New_Pattern_Swatch_83-9)}.cls-100{fill:url(#New_Pattern_Swatch_83-8)}.cls-101{fill:url(#New_Pattern_Swatch_83-5)}.cls-102{fill:url(#New_Pattern_Swatch_83-6)}.cls-103{fill:url(#New_Pattern_Swatch_83-7)}.cls-104{fill:url(#New_Pattern_Swatch_83-4)}.cls-105{fill:url(#New_Pattern_Swatch_83-3)}.cls-106{fill:url(#New_Pattern_Swatch_83-2)}.cls-107{fill:url(#New_Pattern_Swatch_68-2)}.cls-108{fill:url(#New_Pattern_Swatch_68-3)}.cls-109{fill:url(#New_Pattern_Swatch_68-4)}.cls-110{fill:url(#New_Pattern_Swatch_68-5)}.cls-111{fill:url(#New_Pattern_Swatch_68-6)}.cls-112{fill:url(#New_Pattern_Swatch_19-3)}.cls-113{fill:url(#New_Pattern_Swatch_19-2)}.cls-114{fill:#834a37}.cls-115{fill:#594e44}.cls-118{fill:#879a68}.cls-119{fill:url(#New_Pattern_Swatch_1)}.cls-120{fill:#c7b06f}
    </style>
  </defs>
  <path d="M304.5 1270.6h-54l.6 39.3h-17.8v213.5h-17.8v338.2h-17.7v89h107.7l-1-680z" class="cls-15"/>
  <path d="M335.3 593h-54l.6 39.3h-17.8v213.5h-17.8V1184h-17.7v89h107.7l-1-680zm189.1-809.9H397.5l.2 19.6v53.3h-17.8v85.4h-51.5v-17.8h-88.9v17.8h-17.8v35.5H204v17.8h53.3V48h17.8v71.2h18.3l-2 159.9h73v213h35v231h125v-940z" class="cls-15"/>
  <path d="M263 858.3h-35.6v17.8h-17.8v35.5h106.7v-35.5h-17.8v-17.8H263z" class="cls-14"/>
  <path d="M245.2 805h-17.8v35.5h17.8V805zm0 35.5H263v17.8h-17.8zm35.5-53.3v-17.8H263v53.3h17.7v-35.5zm0 53.3v17.8h17.8v-35.6h-17.8v17.8zm53.4-71.1h-17.8V805h17.8v-35.6zm17.8 88.9V805h-17.8v88.8h17.8v-17.7h35.6v-17.8h-35.6zm17.8-71.1v-17.8h-17.8V805h17.8v-17.8zm17.8 35.5v35.6h17.7V805h-17.7v17.7zm17.7-35.5H423V805h-17.8z" class="cls-11"/>
  <path d="M212.5 502.2h17.8V520h-17.8z" class="cls-10"/>
  <path d="M443.8 555.6h17.8v-17.8H283.7V520h-53.4v17.8h-88.9v17.8h35.5v17.7h-17.7v17.8h-17.8v17.8h53.3v17.8h35.6v-17.8h106.6l.1-17.8h35.6v17.8H426v-17.8h35.6v-17.8H426v-17.7h17.8z" class="cls-75"/>
  <path d="M319.2 591.1h-17.7v17.8h-17.8v17.8h71.1v-35.6h-35.6z" class="cls-14"/>
  <path d="M168.7 2029.5h17.8v17.8h-17.8z" class="cls-10"/>
  <path d="M400 2082.9h17.8v-17.8H239.9v-17.8h-53.4v17.8H97.6v17.8h35.5v17.7h-17.7v17.8H97.6v17.8h53.3v17.8h35.6v-17.8h106.6l.1-17.8h35.6v17.8h53.4v-17.8h35.6v-17.8h-35.6v-17.7H400z" class="cls-75"/>
  <path d="M275.4 2118.4h-17.7v17.8h-17.8v17.8H311v-35.6h-35.6z" class="cls-14"/>
  <path d="M695.1 1770.7h17.8v17.8h-17.8z" class="cls-10"/>
  <path d="M926.4 1824.1h17.8v-17.8H766.3v-17.8h-53.4v17.8H624v17.8h35.5v17.7h-17.7v17.8H624v17.8h53.3v17.8h35.6v-17.8h106.6l.1-17.8h35.6v17.8h53.4v-17.8h35.6v-17.8h-35.6v-17.7h17.8z" class="cls-75"/>
  <path d="M801.8 1859.6h-17.7v17.8h-17.8v17.8h71.1v-35.6h-35.6z" class="cls-14"/>
  <path d="M624.9 209.2h17.8V227h-17.8z" class="cls-10"/>
  <path d="M856.2 262.6H874v-17.8H696.1V227h-53.4v17.8h-88.9v17.8h35.5v17.7h-17.7v17.8h-17.8v17.8h53.3v17.8h35.6v-17.8h106.6l.1-17.8H785v17.8h53.4v-17.8H874v-17.8h-35.6v-17.7h17.8z" class="cls-75"/>
  <path d="M731.6 298.1h-17.7v17.8h-17.8v17.8h71.1v-35.6h-35.6z" class="cls-14"/>
  <path d="M418.6-20.6H291.7l.2 19.6v53.3h-17.8v85.4h-51.5v-17.8h-88.9v17.8h-17.8v35.5H98.2V191h53.3v53.3h17.8v71.2h18.3l-2 159.9h73v213h35v231h125v-940z" class="cls-5"/>
  <path d="M418.6 876.3H291.7l.2 19.6v53.3h-17.8v85.4h-51.5v-17.8h-88.9v17.8h-17.8v35.5H98.2v17.8h53.3v53.3h17.8v71.2h18.3l-2 159.9h73v213h35v231h125v-940z" class="cls-5"/>
  <path d="M408 1939.1H281.1l.2 19.6v53.3h-17.8v85.4H212v-17.8h-88.9v17.8h-17.8v35.5H87.6v17.8h53.3v53.3h17.8v71.2H177l-2 159.9h73v213h35v231h125v-940zm203 375.2h125v-231h35v-213h73l-2-159.9h18.3v-71.2h17.8v-53.3h53.3v-17.8h-17.7v-35.5h-17.8v-17.8H807v17.8h-51.5v-85.4h-17.8v-53.3l.2-19.6H611v940z" class="cls-15"/>
  <path d="M579.5 3185.1h125v-231h35v-213h73l-2-159.9h18.3V2510h17.8v-53.3h53.3v-17.8h-17.7v-35.5h-17.8v-17.8h-88.9v17.8H724V2318h-17.8v-53.3l.2-19.6H579.5v940zm26.6-1536.8h125v-231h35v-213h73l-2-159.9h18.3v-71.2h17.8v-53.3h53.3v-17.8h-17.7v-35.5H891v-17.8h-88.9v17.8h-51.5v-85.4h-17.8v-53.3l.2-19.6H606.1v940z" class="cls-15"/>
  <path d="M825.3-14.1H698.4l.2 19.6v53.3h-17.8v85.4h-51.5v-17.8h-88.9v17.8h-17.8v35.5h-17.7v17.8h53.3v53.3H576V322h18.3l-2 159.9h73v213h35v231h125v-940z" class="cls-15"/>
  <path d="M418.6 1618.1h-125v231h-35v213h-73l2 159.9h-18.3v71.2h-17.8v53.3H98.2v17.8h17.7v35.5h17.8v17.8h88.9v-17.8h51.5v85.4h17.8v53.3l-.5 32.8h-2l129 7 .2-960.2zm152.8-289.8h125v-231h35v-213h73l-2-159.9h18.3v-71.2h17.8v-53.3h53.3v-17.8h-17.7v-35.5h-17.8v-17.8h-88.9v17.8h-51.5v-85.4h-17.8v-53.3l.2-19.6H571.4v940z" class="cls-5"/>
  <path d="M571.4 1816.3h125v-231h35v-213h73l-2-159.9h18.3v-71.2h17.8v-53.3h53.3v-17.8h-17.7v-35.5h-17.8v-17.8h-88.9v17.8h-51.5v-85.4h-17.8v-53.3l.2-19.6H571.4v940z" class="cls-5"/>
  <path d="M571.4 2558.1h126.9l-.2-19.6v-53.3h17.8v-85.4h51.5v17.8h88.9v-17.8h17.8v-35.5h17.7v-17.8h-53.3v-53.3h-17.8V2222h-18.3l2-159.9h-73v-213h-35v-231h-125v940z" class="cls-5"/>
  <path d="M388.8-42.6h324.6v2613.9H388.8z" class="cls-5"/>
  <path d="M723.5 1975.3h107.7v-89h-17.7v-338.2h-17.8v-213.5h-17.8l.6-39.3h-54l-1 680zm-27.3-866.5h107.7v-89h-17.7V681.6h-17.8V468.1h-17.8l.6-39.3h-54l-1 680z" class="cls-73"/>
  <path d="M696.2 2172.9h107.7v-89h-17.7v-338.2h-17.8v-213.5h-17.8l.6-39.3h-54l-1 680z" class="cls-73"/>
  <path d="M696.2 2571.3h107.7v-91.7h-17.7v-348.5h-17.8v-219.9h-17.8l.6-40.5h-54l-1 700.6zm1-1918.6h54l-.6-39.3h17.8V399.9h17.8V61.7h17.7v-89H696.2l1 680z" class="cls-73"/>
  <path d="M935.8 2287.3H918v17.8h-35.6v17.8h-17.8v17.8h-17.8v17.8H829v17.8h-35.6v17.8h17.8v17.8h-17.8V2394h-35.6v17.8h-35.6v-35.6h-17.8v17.8h-88.9v-17.8H580v-17.8h17.8v-17.8H580v-17.8h-17.8v-35.6h-17.8v17.8h-17.8v35.6h17.8v17.8h-17.8v17.8h35.6v35.6h-17.8V2394h-17.8v17.8H491V2394h-17.8v17.8h-17.8v-35.6h-35.6v-17.8h17.8v-17.8H402v17.8h-17.8v-17.8h-53.3v35.6h17.8v17.8h17.8v-17.8h17.8v17.8H402v17.8H259.8V2394h35.6v-17.8h-17.8v-17.8h-17.8v17.8H242v-17.8h-17.8v-17.8h35.6v-17.8H242V2305h-17.8v17.8h-17.8v17.8h-17.8v71H153V2394h-17.8v-53.3h-17.8v-53.3H81.8v35.6h17.8v35.6H81.8v17.8H64v17.8H46.2v35.6h782.2v-35.6h17.8v-17.8H864v-17.8h17.8v-17.8h17.8V2323h17.8v35.6h-17.8v71h35.6v-88.8h35.6v-53.3h-35.6l.6-.2Zm-835.5 124.4H82.5v-17.8h17.8V2376h17.8v35.6h-17.8Zm106.7 0V2376h17.8v35.6H207Zm746.6-89h-17.8V2305h17.8v17.8Z" style="fill:url(#New_Pattern_Swatch_68-190)"/>
  <path d="M236.3 351.6v17.8h17.8v-17.8h17.7v-17.8h17.8V316h-53.3v35.6z" class="cls-12"/>
  <path d="M129.6 209.4v35.5h35.6v17.8h17.7v35.6h17.8V316h17.8v17.8h17.8V316h17.8v-17.7h-17.8v-17.8h-17.8v-35.6h35.6v-17.8h-71.2v-17.7h-53.3z" class="cls-119"/>
  <path d="M129.6 227.1v-17.7H94.1v35.5h17.7v17.8h35.6v17.8h17.8v17.8h17.7v-35.6h-17.7v-17.8h-35.6v-17.8z" class="cls-12"/>
  <path d="M399.6 982.7v-17.8h-17.8v-17.8H364v-17.7H257.3v17.7H150.7v17.8h-35.6v35.6H97.3v17.7H79.6v-17.7H44v106.6h35.6v-17.7h17.7v17.7h35.6v-35.5h17.8v-17.8h17.8v53.3h17.7v-35.5H204v17.8h17.8v-35.6h71.1V1036h17.8v17.8h35.5v35.6H364v-35.6h17.8V1036h17.8v-17.2l17.7-.6v-35.5h-17.7z" style="fill:url(#New_Pattern_Swatch_28-19)"/>
  <path d="M749.4 84.8h17.8v17.8h-17.8z" style="fill:url(#New_Pattern_Swatch_28-2)"/>
  <path d="M749.4 102.6h17.8v17.8h-17.8z" style="fill:url(#New_Pattern_Swatch_28-3)"/>
  <path d="M749.4 49.2h17.8V67h-17.8z" style="fill:url(#New_Pattern_Swatch_28-4)"/>
  <path d="M767.2 298.1v17.8h35.6v-17.8h-35.6z" style="fill:url(#New_Pattern_Swatch_28-5)"/>
  <path d="M767.2 31.4H785v17.8h-17.8z" style="fill:url(#New_Pattern_Swatch_28-6)"/>
  <path d="M785 120.3h-17.8v17.8H785v17.8h-17.8v17.8h-17.8v17.7h-17.8v17.8H696v-17.8h-71.1v17.8h-17.8V227h-17.8v53.3h17.8v17.8h53.4v17.8h53.3v-17.8h-35.5v-17.8h124.5v17.8h17.8v-35.5h-17.8v-53.4h17.8V227h35.5v-35.6h-17.7v-35.5h-17.8v-17.8h-17.8v-35.5H785v17.7z" style="fill:url(#New_Pattern_Swatch_28-7)"/>
  <path d="M802.8 84.8h17.8v17.8h-17.8z" style="fill:url(#New_Pattern_Swatch_28-8)"/>
  <path d="M802.8 84.8V67h17.8V49.2H785V67h-17.8v17.8h35.6z" style="fill:url(#New_Pattern_Swatch_28-9)"/>
  <path d="M820.6 102.6h17.8v17.8h-17.8z" style="fill:url(#New_Pattern_Swatch_28-10)"/>
  <path d="M820.6 67h17.8v17.8h-17.8z" style="fill:url(#New_Pattern_Swatch_28-11)"/>
  <path d="M820.6 31.4h17.8v17.8h-17.8z" style="fill:url(#New_Pattern_Swatch_28-12)"/>
  <path d="M838.4 138.1h17.8v17.8h-17.8z" style="fill:url(#New_Pattern_Swatch_28-13)"/>
  <path d="M838.4 84.8h17.8v17.8h-17.8z" style="fill:url(#New_Pattern_Swatch_28-14)"/>
  <path d="M838.4 49.2h17.8V67h-17.8z" style="fill:url(#New_Pattern_Swatch_28-15)"/>
  <path d="M856.1 67h17.8v17.8h-17.8z" style="fill:url(#New_Pattern_Swatch_28-16)"/>
  <path d="M538.7 1869.6h17.8v17.8h-17.8zm-142.3-88.9h17.8v17.8h-17.8zm0 53.3h17.8v17.8h-17.8zm160.1-17.7h-17.8v17.7h-17.8v17.8h35.6V1834h17.8v-17.7h-17.8zm-124.6-17.8v17.8h35.6v-17.8h-17.8v-17.8h-17.8v17.8zm-106.7 71.1H343v17.8h-17.8zm124.5-35.6h17.8v17.8h-17.8zm-142.3 17.8h-17.7v35.6h17.7v-35.6zm0-17.8h17.8v17.8h-17.8zm0-71.1h17.8v17.8h-17.8zm-17.7-17.8h17.8v17.8h-17.8zm0 88.9h17.7v-53.3h-35.5v71.1h17.8V1834z" class="cls-1"/>
  <path d="M236.3 1851.8h17.8v17.8h-17.8z" class="cls-17"/>
  <path d="M236.3 1727.4h17.8v17.8h-17.8zm35.6 160V1834h-17.8v71.1h17.8v-17.7z" class="cls-8"/>
  <path d="M271.9 1816.3v-35.6h-35.6v17.8h17.8v35.5h17.8v-17.7z" class="cls-17"/>
  <path d="M254.1 1762.9h17.8v17.8h-17.8z" class="cls-8"/>
  <path d="M289.7 1851.8h-17.8v35.6h17.8v-35.6zm0-71.1h17.7v-17.8h-35.5v17.8h17.8z" class="cls-17"/>
  <path d="M271.9 1745.1h17.8v17.8h-17.8z" class="cls-8"/>
  <path d="M289.7 1834h17.8v17.8h-17.8zm17.7-88.9v-35.5h-17.7v17.8h-17.8v-17.8h-17.8v35.5h53.3z" class="cls-17"/>
  <path d="M325.2 1887.4h-53.3v17.7h-17.8v17.8H343v-17.8h-17.8v-17.7z" class="cls-14"/>
  <path d="M307.4 1869.6h17.8v17.8h-17.8z" class="cls-8"/>
  <path d="M307.4 1851.8h17.8v17.8h-17.8z" class="cls-17"/>
  <path d="M307.4 1762.9h17.8v-35.5h-17.8v35.5zm17.8 124.5H343v17.8h-17.8zm0-35.6H343v17.8h-17.8z" class="cls-8"/>
  <path d="M325.2 1816.3h-17.8v17.7h17.8v17.8h35.6V1834H343v-35.5h-17.8v17.8z" class="cls-17"/>
  <path d="M325.2 1780.7h-17.8v35.6h17.8v-17.8H343v-35.6h-17.8v17.8z" class="cls-8"/>
  <path d="M325.2 1762.9H343v-17.8h17.8v-35.5H343v17.8h-17.8v35.5zm17.8 106.7h17.8v17.8H343z" class="cls-17"/>
  <path d="M343 1745.1h17.8v17.8H343zm17.8 142.3h17.8v17.8h-17.8zm17.8-17.8h17.8v17.8h-17.8z" class="cls-8"/>
  <path d="M378.6 1780.7h-17.8v17.8h35.6v-17.8h-17.8z" class="cls-17"/>
  <path d="M378.6 1745.1h17.8v17.8h-17.8z" class="cls-8"/>
  <path d="M414.2 1869.6v-17.8h-17.8V1834h17.8v-35.5h-17.8v17.8h-17.8v53.3h17.8v17.8h17.8v-17.8z" class="cls-17"/>
  <path d="M396.4 1762.9h17.8v17.8h-17.8z" class="cls-8"/>
  <path d="M414.2 1745.1h17.7v-17.7h-35.5v35.5h17.8v-17.8z" class="cls-17"/>
  <path d="M431.9 1851.8h-17.7v35.6h-17.8v17.7h17.8v17.8h35.5v-17.8h-17.8v-17.7h17.8v-17.8h-17.8v-17.8zm0-71.1h-17.7v53.3h17.7v-53.3z" class="cls-8"/>
  <path d="M414.2 1762.9v17.8h35.5v-35.6h-17.8v17.8h-17.7z" class="cls-17"/>
  <path d="M414.2 1745.1H432v17.8h-17.8z" class="cls-8"/>
  <path d="M449.7 1834v-17.7h-17.8v17.7h-17.7v17.8h17.7v17.8h17.8V1834z" class="cls-17"/>
  <path d="M449.7 1851.8h17.8v17.8h-17.8zm0-35.5h17.8v17.8h-17.8z" class="cls-8"/>
  <path d="M449.7 1780.7h17.8v17.8h-17.8zm0-71.1h17.8v17.8h-17.8z" class="cls-17"/>
  <path d="M467.5 1905.1v17.8h35.6v-17.8h-35.6zm0-71.1h17.8v17.8h-17.8z" class="cls-8"/>
  <path d="M467.5 1816.3v17.7h17.8v-35.5h-17.8v17.8z" class="cls-17"/>
  <path d="M485.3 1798.5v-17.8h17.8v-17.8h-35.6v35.6h17.8z" class="cls-8"/>
  <path d="M485.3 1887.4h-17.8v17.7h35.6v-17.7h-17.8z" class="cls-17"/>
  <path d="M485.3 1869.6h17.8v17.8h-17.8z" class="cls-8"/>
  <path d="M485.3 1834h17.8v17.8h-17.8z" class="cls-17"/>
  <path d="M485.3 1816.3h17.8v17.8h-17.8z" class="cls-8"/>
  <path d="M503.1 1745.1v-17.7h-17.8v35.5h17.8v-17.8z" class="cls-17"/>
  <path d="M503.1 1887.4h17.8v17.8h-17.8z" class="cls-8"/>
  <path d="M520.9 1887.4v-17.8h17.8v-17.8h-35.6v35.6h17.8z" class="cls-17"/>
  <path d="M503.1 1834h17.8v17.8h-17.8z" class="cls-8"/>
  <path d="M503.1 1816.3h17.8v17.8h-17.8z" class="cls-17"/>
  <path d="M503.1 1798.5h17.8v17.8h-17.8zm0-53.4h17.8v17.8h-17.8z" class="cls-8"/>
  <path d="M503.1 1709.6h17.8v17.8h-17.8z" class="cls-17"/>
  <path d="M520.9 1869.6h17.8v17.8h-17.8zm0-53.3h17.8v17.8h-17.8z" class="cls-8"/>
  <path d="M538.7 1816.3v-35.6h-17.8v35.6h17.8z" class="cls-17"/>
  <path d="M538.7 1887.4h-17.8v35.5h88.9v-17.8H592v-17.7h-53.3z" class="cls-14"/>
  <path d="M538.7 1851.8h17.8v17.8h-17.8zm0-53.3h17.8v17.8h-17.8z" class="cls-8"/>
  <path d="M538.7 1762.9h17.8v17.8h-17.8z" class="cls-17"/>
  <path d="M556.5 1869.6h17.8v17.8h-17.8z" class="cls-8"/>
  <path d="M556.5 1851.8v17.8h17.8V1834h-17.8v17.8zm0-53.3h17.8v17.8h-17.8z" class="cls-17"/>
  <path d="M574.3 1851.8h17.8v17.8h-17.8z" class="cls-8"/>
  <path d="M574.3 1816.3h17.8v17.8h-17.8z" class="cls-17"/>
  <path d="M574.3 1798.5h17.8v17.8h-17.8z" class="cls-8"/>
  <path d="M592 1780.7h17.8v17.8H592z" class="cls-17"/>
  <path d="M785.8 369.2h17.8V387h-17.8zm-142.3-88.9h17.8v17.8h-17.8zm0 53.3h17.8v17.8h-17.8zm160.1-17.7h-17.8v17.7H768v17.8h35.6v-17.8h17.8v-17.7h-17.8zM679 298.1v17.8h35.6v-17.8h-17.8v-17.8H679v17.8zm-106.7 71.1h17.8V387h-17.8zm124.5-35.6h17.8v17.8h-17.8zm-142.3 17.8h-17.7V387h17.7v-35.6zm0-17.8h17.8v17.8h-17.8zm0-71.1h17.8v17.8h-17.8zm-17.7-17.8h17.8v17.8h-17.8zm0 88.9h17.7v-53.3H519v71.1h17.8v-17.8z" class="cls-1"/>
  <path d="M483.4 351.4h17.8v17.8h-17.8z" class="cls-17"/>
  <path d="M483.4 227h17.8v17.8h-17.8zM519 387v-53.4h-17.8v71.1H519V387z" class="cls-8"/>
  <path d="M519 315.9v-35.6h-35.6v17.8h17.8v35.5H519v-17.7z" class="cls-17"/>
  <path d="M501.2 262.5H519v17.8h-17.8z" class="cls-8"/>
  <path d="M536.8 351.4H519V387h17.8v-35.6zm0-71.1h17.7v-17.8H519v17.8h17.8z" class="cls-17"/>
  <path d="M519 244.7h17.8v17.8H519z" class="cls-8"/>
  <path d="M536.8 333.6h17.8v17.8h-17.8zm17.7-88.9v-35.5h-17.7V227H519v-17.8h-17.8v35.5h53.3z" class="cls-17"/>
  <path d="M572.3 387H519v17.7h-17.8v17.8h88.9v-17.8h-17.8V387z" class="cls-14"/>
  <path d="M554.5 369.2h17.8V387h-17.8z" class="cls-8"/>
  <path d="M554.5 351.4h17.8v17.8h-17.8z" class="cls-17"/>
  <path d="M554.5 262.5h17.8V227h-17.8v35.5zM572.3 387h17.8v17.8h-17.8zm0-35.6h17.8v17.8h-17.8z" class="cls-8"/>
  <path d="M572.3 315.9h-17.8v17.7h17.8v17.8h35.6v-17.8h-17.8v-35.5h-17.8v17.8z" class="cls-17"/>
  <path d="M572.3 280.3h-17.8v35.6h17.8v-17.8h17.8v-35.6h-17.8v17.8z" class="cls-8"/>
  <path d="M572.3 262.5h17.8v-17.8h17.8v-35.5h-17.8V227h-17.8v35.5zm17.8 106.7h17.8V387h-17.8z" class="cls-17"/>
  <path d="M590.1 244.7h17.8v17.8h-17.8zM607.9 387h17.8v17.8h-17.8zm17.8-17.8h17.8V387h-17.8z" class="cls-8"/>
  <path d="M625.7 280.3h-17.8v17.8h35.6v-17.8h-17.8z" class="cls-17"/>
  <path d="M625.7 244.7h17.8v17.8h-17.8z" class="cls-8"/>
  <path d="M661.3 369.2v-17.8h-17.8v-17.8h17.8v-35.5h-17.8v17.8h-17.8v53.3h17.8V387h17.8v-17.8z" class="cls-17"/>
  <path d="M643.5 262.5h17.8v17.8h-17.8z" class="cls-8"/>
  <path d="M661.3 244.7H679V227h-35.5v35.5h17.8v-17.8z" class="cls-17"/>
  <path d="M679 351.4h-17.7V387h-17.8v17.7h17.8v17.8h35.5v-17.8H679V387h17.8v-17.8H679v-17.8zm0-71.1h-17.7v53.3H679v-53.3z" class="cls-8"/>
  <path d="M661.3 262.5v17.8h35.5v-35.6H679v17.8h-17.7z" class="cls-17"/>
  <path d="M661.3 244.7h17.8v17.8h-17.8z" class="cls-8"/>
  <path d="M696.8 333.6v-17.7H679v17.7h-17.7v17.8H679v17.8h17.8v-35.6z" class="cls-17"/>
  <path d="M696.8 351.4h17.8v17.8h-17.8zm0-35.5h17.8v17.8h-17.8z" class="cls-8"/>
  <path d="M696.8 280.3h17.8v17.8h-17.8zm0-71.1h17.8V227h-17.8z" class="cls-17"/>
  <path d="M714.6 404.7v17.8h35.6v-17.8h-35.6zm0-71.1h17.8v17.8h-17.8z" class="cls-8"/>
  <path d="M714.6 315.9v17.7h17.8v-35.5h-17.8v17.8z" class="cls-17"/>
  <path d="M732.4 298.1v-17.8h17.8v-17.8h-35.6v35.6h17.8z" class="cls-8"/>
  <path d="M732.4 387h-17.8v17.7h35.6V387h-17.8z" class="cls-17"/>
  <path d="M732.4 369.2h17.8V387h-17.8z" class="cls-8"/>
  <path d="M732.4 333.6h17.8v17.8h-17.8z" class="cls-17"/>
  <path d="M732.4 315.9h17.8v17.8h-17.8z" class="cls-8"/>
  <path d="M750.2 244.7V227h-17.8v35.5h17.8v-17.8z" class="cls-17"/>
  <path d="M750.2 387H768v17.8h-17.8z" class="cls-8"/>
  <path d="M768 387v-17.8h17.8v-17.8h-35.6V387H768z" class="cls-17"/>
  <path d="M750.2 333.6H768v17.8h-17.8z" class="cls-8"/>
  <path d="M750.2 315.9H768v17.8h-17.8z" class="cls-17"/>
  <path d="M750.2 298.1H768v17.8h-17.8zm0-53.4H768v17.8h-17.8z" class="cls-8"/>
  <path d="M750.2 209.2H768V227h-17.8z" class="cls-17"/>
  <path d="M768 369.2h17.8V387H768zm0-53.3h17.8v17.8H768z" class="cls-8"/>
  <path d="M785.8 315.9v-35.6H768v35.6h17.8z" class="cls-17"/>
  <path d="M785.8 387H768v35.5h88.9v-17.8h-17.8V387h-53.3z" class="cls-14"/>
  <path d="M785.8 351.4h17.8v17.8h-17.8zm0-53.3h17.8v17.8h-17.8z" class="cls-8"/>
  <path d="M785.8 262.5h17.8v17.8h-17.8z" class="cls-17"/>
  <path d="M803.6 369.2h17.8V387h-17.8z" class="cls-8"/>
  <path d="M803.6 351.4v17.8h17.8v-35.6h-17.8v17.8zm0-53.3h17.8v17.8h-17.8z" class="cls-17"/>
  <path d="M821.4 351.4h17.8v17.8h-17.8z" class="cls-8"/>
  <path d="M821.4 315.9h17.8v17.8h-17.8z" class="cls-17"/>
  <path d="M821.4 298.1h17.8v17.8h-17.8z" class="cls-8"/>
  <path d="M839.1 280.3h17.8v17.8h-17.8z" class="cls-17"/>
  <path d="M230 1187.1h-35.6v17.8h160.1v-17.8h17.8v-17.8h-35.6v17.8h-53.3v-17.8h-35.6v17.8H230zm53.4-35.6h17.8v17.8h-17.8z" class="cls-13"/>
  <path d="M230 1151.5v-17.7h-35.6v17.7h-17.7v35.6h71.1v-17.8H230v-17.8z" class="cls-113"/>
  <path d="M248.8 1044.9H231v35.5h-17.8v-17.7h-17.8v17.7h-18.5v35.6h71.9v-17.8h17.8l.5-17.3 17.3-.5v-35.5h-35.6z" class="cls-9"/>
  <path d="M354.5 1062.7h-53.3v17.7h71.1v-17.7h-17.8z" class="cls-112"/>
  <path d="M283.4 1080.4h-17.8v17.8h-17.8v17.8h-53.4v17.8h71.2V1116h17.8v-17.8h88.9v-17.8h-71.1v-17.7h53.3v-17.8h-71.1v35.5z" class="cls-13"/>
  <path d="M355.5 1027.1h17.8v17.8h-17.8z" class="cls-108"/>
  <path d="M407.9 1044.9h-17.8v17.8h53.4v-17.8h-35.6z" class="cls-13"/>
  <path d="M462.2 1027.1h-17.7v17.8h53.3v-17.8h-35.6z" class="cls-109"/>
  <path d="M515.6 1009.3h-17.8v17.8h35.6v-17.8h-17.8z" class="cls-110"/>
  <path d="M532.4 1044.9h53.4v-17.8h-53.4v17.8z" class="cls-13"/>
  <path d="M533.4 991.6h17.8v17.8h-17.8z" class="cls-111"/>
  <path d="M517.2 582.5h-35.6v17.8h160.1v-17.8h17.8v-17.8h-35.6v17.8h-53.3v-17.8H535v17.8h-17.8zm53.4-35.6h17.8v17.8h-17.8z" class="cls-13"/>
  <path d="M517.2 546.9v-17.7h-35.6v17.7h-17.7v35.6H535v-17.8h-17.8v-17.8z" class="cls-113"/>
  <path d="M536 440.3h-17.8v35.5h-17.8v-17.7h-17.8v17.7h-18.5v35.6H536v-17.8h17.8l.5-17.3 17.3-.5v-35.5H536z" class="cls-9"/>
  <path d="M641.7 458.1h-53.3v17.7h71.1v-17.7h-17.8z" class="cls-112"/>
  <path d="M570.6 475.8h-17.8v17.8H535v17.8h-53.4v17.8h71.2v-17.8h17.8v-17.8h88.9v-17.8h-71.1v-17.7h53.3v-17.8h-71.1v35.5z" class="cls-13"/>
  <path d="M642.7 422.5h17.8v17.8h-17.8z" class="cls-108"/>
  <path d="M695.1 440.3h-17.8v17.8h53.4v-17.8h-35.6z" class="cls-13"/>
  <path d="M749.4 422.5h-17.7v17.8H785v-17.8h-35.6z" class="cls-109"/>
  <path d="M802.8 404.7H785v17.8h35.6v-17.8h-17.8z" class="cls-110"/>
  <path d="M819.6 440.3H873v-17.8h-53.4v17.8z" class="cls-13"/>
  <path d="M820.6 387h17.8v17.8h-17.8z" class="cls-111"/>
  <path d="M440.8 218.1v-17.8h-35.6v17.8h-53.3v-17.8h-35.6v17.8h17.8v17.8h160.1v-17.8h-53.4z" class="cls-13"/>
  <path d="M387.4 182.5h17.8v17.8h-17.8z" class="cls-13"/>
  <path d="M458.6 200.3h-17.8v17.8h71.1v-35.6h-17.7v-17.7h-35.6v35.5z" class="cls-113"/>
  <path d="M422 75.9h-17.8v35.5l17.3.5.5 17.3h17.8V147h71.9v-35.6h-18.5V93.7h-17.8v17.7h-17.8V75.9H422z" class="cls-9"/>
  <path d="M316.3 93.7v17.7h71.1V93.7h-71.1z" class="cls-112"/>
  <path d="M405.2 93.7V75.9h-71.1v17.8h53.3v17.7h-71.1v17.8h88.9V147H423v17.8h71.2V147h-53.4v-17.8H423v-17.8h-17.8V93.7z" class="cls-13"/>
  <path d="M315.3 58.1h17.8v17.8h-17.8z" class="cls-108"/>
  <path d="M262.9 75.9h-17.8v17.8h53.4V75.9h-35.6z" class="cls-13"/>
  <path d="M208.6 58.1h-17.8v17.8h53.3V58.1h-35.5z" class="cls-109"/>
  <path d="M155.2 40.3v17.8h35.6V40.3h-35.6z" class="cls-110"/>
  <path d="M156.2 58.1h-53.4v17.8h53.4V58.1z" class="cls-13"/>
  <path d="M137.4 22.6h17.8v17.8h-17.8z" class="cls-111"/>
  <path d="M58.5 1816.2H40.7v17.8h35.6v-17.8H58.5zm17.8 88.9h17.8v17.8H76.3zm0-71.1h17.8v17.8H76.3zm17.8 17.8h17.8v17.8H94.1zm0-53.4h17.8v17.8H94.1zm35.6 71.2h-17.8v35.5h17.8v-35.5zm-17.8-53.4h17.8v17.8h-17.8zm35.5 35.6V1834h-17.7v35.6h17.7v-17.8zm0 17.8h17.8v17.8h-17.8zm0-53.4h17.8v17.8h-17.8zm17.8 266.7v35.5H183v-53.3h-17.8v17.8zm0-160H183v-35.6h-17.8v35.6zm17.8 124.4h17.8v17.8H183z" class="cls-16"/>
  <path d="M467.6 1905.1v-17.8H289.7v35.6h-71.1v17.8h-53.4v-17.8h-17.8v-17.8h-17.7v35.6h-17.8v-17.8H94.1v53.3H76.3v53.4h53.4v-17.8h17.7V1994H183v17.8h17.8v35.5h17.8v-17.7h53.3v17.7h17.8v-35.5h35.6V1994h71.2v53.3h17.7v-35.5H432V1994h35.6v-35.6h17.8v-53.3h-17.8zm-177.9 177.8h17.8v-35.6h-17.8v35.6zm89-17.8v17.8h17.8v-35.6h-17.8v17.8zm88.9-35.5v17.7h17.8V1994h-17.8v35.6z" class="cls-16"/>
  <path d="M203.7 724.3v17.8h106.8v-17.8h71.1v-17.8h-88.9v17.8h-17.8v-17.8h17.8v-17.8h71.1v-35.5h53.4v-17.8H346v17.8h-17.7v17.7h-53.4v17.8h-71.2v17.8H186v17.8h17.7z" class="cls-107"/>
  <path d="M838 1418.6h17.8v17.8H838z" class="cls-73"/>
  <g style="clip-path:url(#clippath)">
    <path d="M801.5 1335.3h173.1v173H801.5z" class="cls-1"/>
    <path d="M801.5 1335.3h173.1v173H801.5z" class="cls-33"/>
  </g>
  <g style="clip-path:url(#clippath-1)">
    <path d="M801.5 1162.3h173.1v173H801.5z" class="cls-1"/>
    <path d="M801.5 1162.3h173.1v173H801.5z" class="cls-33"/>
    <path d="M801.5 1335.3h173.1v173H801.5z" class="cls-1"/>
    <path d="M801.5 1335.3h173.1v173H801.5z" class="cls-33"/>
  </g>
  <path d="M802.5 1294.2h17.8v17.8h-17.8z" class="cls-73"/>
  <g style="clip-path:url(#clippath-2)">
    <path d="M801.5 1162.3h173.1v173H801.5z" class="cls-1"/>
    <path d="M801.5 1162.3h173.1v173H801.5z" class="cls-33"/>
  </g>
  <g style="clip-path:url(#clippath-3)">
    <path d="M628.4 1335.3h173.1v173H628.4z" class="cls-1"/>
    <path d="M628.4 1335.3h173.1v173H628.4z" class="cls-33"/>
  </g>
  <path d="M766.9 1311.9v17.8h35.6v-17.8h-35.6z" class="cls-73"/>
  <g style="clip-path:url(#clippath-4)">
    <path d="M801.5 1162.3h173.1v173H801.5z" class="cls-1"/>
    <path d="M801.5 1162.3h173.1v173H801.5z" class="cls-33"/>
    <path d="M628.4 1162.3h173.1v173H628.4z" class="cls-1"/>
    <path d="M628.4 1162.3h173.1v173H628.4z" class="cls-33"/>
  </g>
  <g style="clip-path:url(#clippath-5)">
    <path d="M628.4 1335.3h173.1v173H628.4z" class="cls-1"/>
    <path d="M628.4 1335.3h173.1v173H628.4z" class="cls-33"/>
  </g>
  <g style="clip-path:url(#clippath-6)">
    <path d="M628.4 1162.3h173.1v173H628.4z" class="cls-1"/>
    <path d="M628.4 1162.3h173.1v173H628.4z" class="cls-33"/>
    <path d="M628.4 1335.3h173.1v173H628.4z" class="cls-1"/>
    <path d="M628.4 1335.3h173.1v173H628.4z" class="cls-33"/>
  </g>
  <g style="clip-path:url(#clippath-7)">
    <path d="M628.4 1335.3h173.1v173H628.4z" class="cls-1"/>
    <path d="M628.4 1335.3h173.1v173H628.4z" class="cls-33"/>
  </g>
  <g style="clip-path:url(#clippath-8)">
    <path d="M628.4 1335.3h173.1v173H628.4z" class="cls-1"/>
    <path d="M628.4 1335.3h173.1v173H628.4z" class="cls-33"/>
  </g>
  <path d="M731.3 1294.2h17.8v17.8h-17.8z" class="cls-73"/>
  <g style="clip-path:url(#clippath-9)">
    <path d="M628.4 1162.3h173.1v173H628.4z" class="cls-1"/>
    <path d="M628.4 1162.3h173.1v173H628.4z" class="cls-33"/>
  </g>
  <path d="M731.3 1329.7v-17.8h-35.6v17.8h35.6z" class="cls-73"/>
  <g style="clip-path:url(#clippath-10)">
    <path d="M628.4 1162.3h173.1v173H628.4z" class="cls-1"/>
    <path d="M628.4 1162.3h173.1v173H628.4z" class="cls-33"/>
  </g>
  <path d="M713.5 1276.4h17.8v17.8h-17.8z" class="cls-73"/>
  <g style="clip-path:url(#clippath-11)">
    <path d="M628.4 1162.3h173.1v173H628.4z" class="cls-1"/>
    <path d="M628.4 1162.3h173.1v173H628.4z" class="cls-33"/>
  </g>
  <g style="clip-path:url(#clippath-12)">
    <path d="M628.4 1335.3h173.1v173H628.4z" class="cls-1"/>
    <path d="M628.4 1335.3h173.1v173H628.4z" class="cls-33"/>
  </g>
  <g style="clip-path:url(#clippath-13)">
    <path d="M628.4 1162.3h173.1v173H628.4z" class="cls-1"/>
    <path d="M628.4 1162.3h173.1v173H628.4z" class="cls-33"/>
    <path d="M628.4 1335.3h173.1v173H628.4z" class="cls-1"/>
    <path d="M628.4 1335.3h173.1v173H628.4z" class="cls-33"/>
  </g>
  <path d="M677.9 1294.2h17.8v17.8h-17.8z" class="cls-73"/>
  <g style="clip-path:url(#clippath-14)">
    <path d="M628.4 1162.3h173.1v173H628.4z" class="cls-1"/>
    <path d="M628.4 1162.3h173.1v173H628.4z" class="cls-33"/>
  </g>
  <path d="M660.1 1311.9h17.8v17.8h-17.8zm-70.5 229.7-.6 19.2h177.9V1543h17.8v-17.7h35.6v17.7h53.3v-53.3H838v-17.8h-17.7v-17.7H838v-17.8h-35.5v17.8h-17.8v-17.8h-17.8v17.8h-17.8v17.7h-17.8v17.8h-17.8v16.9h-54.9v16h-53v19h-16z" class="cls-33"/>
  <path d="M449.6 502.7V485h-17.7v-35.6h-71.2v-17.8h-88.8v-17.8h-53.4v-53.3H183v17.8H94.1v17.8h35.5v17.7H94.1v35.6h53.3v-17.8h17.8v35.6H183V485h17.7v17.7h17.8v35.6h17.8v71.1h35.6v-35.6h17.7v35.6h17.8v-53.3h17.8v17.7H343v-17.7h17.7v17.7h17.8v17.8h17.8v-17.8h17.8v-17.7h35.5v-17.8h17.8v-35.6h-17.8z" style="fill:url(#New_Pattern_Swatch_28-21)"/>
  <path d="M186 636.4h17.8v17.8H186z" class="cls-106"/>
  <path d="M239.3 636.4h-17.7v17.7h-17.8v17.8h17.8v17.8h17.7v-17.8h17.8v-17.8h-17.8v-17.7z" class="cls-105"/>
  <path d="M221.6 529.7v17.8h17.7v-35.6h-17.7v17.8z" class="cls-104"/>
  <path d="M257.1 583v-17.8h-17.8v71.2h17.8V583z" class="cls-101"/>
  <path d="M239.3 494.1h17.8v17.8h-17.8z" class="cls-102"/>
  <path d="M257.1 636.4h17.8v17.8h-17.8z" class="cls-103"/>
  <path d="M274.9 547.5v-35.6h-17.8v53.3h17.8v-17.7z" class="cls-100"/>
  <path d="M310.5 670.9v35.6h17.8v-53.4h-17.8v17.8z" class="cls-99"/>
  <path d="M310.5 582h-17.8v17.8h35.6V582h-17.8z" class="cls-46"/>
  <path d="M346.1 599.8h-17.8v53.3h17.8v-53.3z" class="cls-45"/>
  <path d="M363.9 582v-17.8h-17.8v35.6h17.8V582z" class="cls-44"/>
  <path d="M381.6 654.1h-17.7v17.8h-17.8v35.6h17.8v-17.8h17.7v-35.6z" class="cls-43"/>
  <path d="M381.6 618.6v-17.8h-17.7v35.6h17.7v-17.8z" class="cls-62"/>
  <path d="M382.6 706.5v17.7h17.8v-35.5h-17.8v17.8z" class="cls-61"/>
  <path d="M381.6 636.4h17.8v17.8h-17.8z" class="cls-58"/>
  <path d="M400.4 652.1v35.6h17.8v-35.6h-17.8z" class="cls-59"/>
  <path d="M400.4 617.6h17.8v17.8h-17.8z" class="cls-60"/>
  <path d="M418.2 706.5H436v17.8h-17.8z" class="cls-51"/>
  <path d="M418.2 635.4H436v17.8h-17.8z" class="cls-52"/>
  <path d="M436 617.6h17.8v17.8H436z" class="cls-57"/>
  <path d="M453.8 670.9h17.8v-17.8h17.8v-17.7h-35.6v35.5z" class="cls-56"/>
  <path d="M471.6 688.7h-17.8v-17.8H436v35.6h17.8v17.7h17.8v-17.7h17.8v-17.8h-17.8z" class="cls-55"/>
  <path d="M489.4 617.6h17.8v17.8h-17.8z" class="cls-54"/>
  <path d="M525 690.7v-17.8h17.7v-17.8h-35.5v17.8h-17.8v17.8H525z" class="cls-53"/>
  <path d="M507.2 599.8H525v17.8h-17.8z" class="cls-41"/>
  <path d="M542.7 708.5h17.8v-35.6h-17.8v35.6z" class="cls-40"/>
  <path d="M858.6 917.1h-17.7v17.8h-89v-17.8h-53.3v17.8h-34.4v89l87.7-.1v17.8h17.8v17.8h35.6v-17.8h-17.8v-17.8h35.6V1006h35.5v-35.5h-35.5v-17.8h35.5l.4-17.8h17.4v-17.8h-17.8z" style="fill:url(#New_Pattern_Swatch_58-3)"/>
  <path d="M751.9 899.4h17.8v-35.6h-17.8v17.8h-17.8v17.8h17.8zm-53.3-17.8h17.8v17.8h-17.8zm-17.8 17.8h17.8v17.8h-17.8z" class="cls-1"/>
  <path d="M664.2 899.4h16.6v17.8h-16.6z" style="fill:url(#New_Pattern_Swatch_83-28)"/>
  <path d="M680.8 917.1h17.8v17.8h-17.8z" style="fill:url(#New_Pattern_Swatch_83-29)"/>
  <path d="M680.8 881.6h17.8v17.8h-17.8z" style="fill:url(#New_Pattern_Swatch_83-30)"/>
  <path d="M680.8 828.2h17.8V846h-17.8z" style="fill:url(#New_Pattern_Swatch_83-31)"/>
  <path d="M716.3 863.8V846h-17.7v35.6h17.7v-17.8z" style="fill:url(#New_Pattern_Swatch_83-32)"/>
  <path d="M734.1 863.8h17.8v17.8h-17.8z" style="fill:url(#New_Pattern_Swatch_83-33)"/>
  <path d="M751.9 846h17.8v17.8h-17.8z" style="fill:url(#New_Pattern_Swatch_83-34)"/>
  <path d="M787.5 863.8h-17.8v35.6h-35.6v-17.8h-17.8v17.8h-17.7v17.7h53.3v17.8h35.6v-17.8h17.8v-17.7h-17.8v-35.6z" style="fill:url(#New_Pattern_Swatch_83-35)"/>
  <path d="M787.5 846h17.8v17.8h-17.8z" style="fill:url(#New_Pattern_Swatch_83-36)"/>
  <path d="M751.9 1006h-17.8v-17.8h-35.5v17.8h-17.8v35.6h71.1V1006z" style="fill:url(#New_Pattern_Swatch_32-2)"/>
  <path d="M795.2 607.6H813v17.8h-17.8zM777.4 661v-17.8h-17.8v53.3h35.6V661h-17.8zm-53.3-53.4h-17.8v35.6h17.8v-35.6zm0 35.6h17.8V661h-17.8zm142.2-17.8v-17.8h-35.6V661h17.8v-17.8h35.6v-17.8h-17.8zm-106.7-17.8h17.8v17.8h-17.8zM706.3 661h17.8v17.8h-17.8z" class="cls-1"/>
  <path d="M670.7 625.4h17.8v17.8h-17.8z" class="cls-90"/>
  <path d="M706.3 661h17.8v-17.8h-35.6v35.6h17.8V661z" class="cls-89"/>
  <path d="M706.3 625.4v-17.8h-17.8v-17.7h-17.8v35.5h17.8v17.8h17.8v-17.8z" class="cls-94"/>
  <path d="M724.1 625.4h17.8v17.8h-17.8z" class="cls-85"/>
  <path d="M741.8 643.2h17.8V661h-17.8z" class="cls-84"/>
  <path d="M759.6 607.6h-17.8v-35.5h-17.7v53.3h17.7v17.8h17.8v-35.6z" class="cls-95"/>
  <path d="M777.4 589.9v-35.6h-17.8v35.6h17.8z" class="cls-96"/>
  <path d="M777.4 607.6v17.8h-17.8v17.8h17.8V661h17.8v-53.4h-17.8z" class="cls-87"/>
  <path d="M777.4 589.9h17.8v17.8h-17.8z" class="cls-97"/>
  <path d="M795.2 661H813v17.8h-17.8z" class="cls-86"/>
  <path d="M813 643.2h17.8V661H813z" class="cls-88"/>
  <path d="M830.7 643.2v-35.6h17.8v-53.3h-17.8v35.6H813v35.5h-17.8V661H813v-17.8h17.7z" class="cls-98"/>
  <path d="M661.6 788.4v17.8h106.8v-17.8h71.1v-17.8h-88.9v17.8h-17.8v-17.8h17.8v-17.8h71.1v-35.5h53.4v-17.8h-71.2v17.8h-17.7V735h-53.4v17.8h-71.2v17.8h-17.7v17.8h17.7z" class="cls-107"/>
  <path d="M302.2 85H320v17.8h-17.8zm-17.8 53.4v-17.8h-17.8v53.3h35.6v-35.5h-17.8zM231.1 85h-17.8v35.6h17.8V85zm0 35.6h17.8v17.8h-17.8zm142.2-17.8V85h-35.6v53.4h17.8v-17.8h35.6v-17.8h-17.8zM266.6 85h17.8v17.8h-17.8zm-53.3 53.4h17.8v17.8h-17.8z" class="cls-1"/>
  <path d="M177.7 102.8h17.8v17.8h-17.8z" class="cls-90"/>
  <path d="M213.3 138.4h17.8v-17.8h-35.6v35.6h17.8v-17.8z" class="cls-89"/>
  <path d="M213.3 102.8V85h-17.8V67.3h-17.8v35.5h17.8v17.8h17.8v-17.8z" class="cls-94"/>
  <path d="M231.1 102.8h17.8v17.8h-17.8z" class="cls-85"/>
  <path d="M248.8 120.6h17.8v17.8h-17.8z" class="cls-84"/>
  <path d="M266.6 85h-17.8V49.5h-17.7v53.3h17.7v17.8h17.8V85z" class="cls-95"/>
  <path d="M284.4 67.3V31.7h-17.8v35.6h17.8z" class="cls-96"/>
  <path d="M284.4 85v17.8h-17.8v17.8h17.8v17.8h17.8V85h-17.8z" class="cls-87"/>
  <path d="M284.4 67.3h17.8v17.8h-17.8z" class="cls-97"/>
  <path d="M302.2 138.4H320v17.8h-17.8z" class="cls-86"/>
  <path d="M320 120.6h17.8v17.8H320z" class="cls-88"/>
  <path d="M337.7 120.6V85h17.8V31.7h-17.8v35.6H320v35.5h-17.8v35.6H320v-17.8h17.7z" class="cls-98"/>
  <path d="M171.6 2409.1h17.8v17.8h-17.8zm-17.8 53.4v-17.8H136v53.3h35.6v-35.5h-17.8zm-53.3-53.4H82.7v35.6h17.8v-35.6zm0 35.6h17.8v17.8h-17.8zm142.2-17.8v-17.8h-35.6v53.4h17.8v-17.8h35.6v-17.8h-17.8zM136 2409.1h17.8v17.8H136zm-53.3 53.4h17.8v17.8H82.7z" class="cls-1"/>
  <path d="M47.1 2426.9h17.8v17.8H47.1z" class="cls-90"/>
  <path d="M82.7 2462.5h17.8v-17.8H64.9v35.6h17.8v-17.8z" class="cls-89"/>
  <path d="M82.7 2426.9v-17.8H64.9v-17.7H47.1v35.5h17.8v17.8h17.8v-17.8z" class="cls-94"/>
  <path d="M100.5 2426.9h17.8v17.8h-17.8z" class="cls-85"/>
  <path d="M118.2 2444.7H136v17.8h-17.8z" class="cls-84"/>
  <path d="M136 2409.1h-17.8v-35.5h-17.7v53.3h17.7v17.8H136v-35.6z" class="cls-95"/>
  <path d="M153.8 2391.4v-35.6H136v35.6h17.8z" class="cls-96"/>
  <path d="M153.8 2409.1v17.8H136v17.8h17.8v17.8h17.8v-53.4h-17.8z" class="cls-87"/>
  <path d="M153.8 2391.4h17.8v17.8h-17.8z" class="cls-97"/>
  <path d="M171.6 2462.5h17.8v17.8h-17.8z" class="cls-86"/>
  <path d="M189.4 2444.7h17.8v17.8h-17.8z" class="cls-88"/>
  <path d="M207.1 2444.7v-35.6h17.8v-53.3h-17.8v35.6h-17.7v35.5h-17.8v35.6h17.8v-17.8h17.7z" class="cls-98"/>
  <path d="M233.7 1534.8h17.8v17.8h-17.8zm-17.8 53.4v-17.8h-17.8v53.3h35.6v-35.5h-17.8zm-53.3-53.4h-17.8v35.6h17.8v-35.6zm0 35.6h17.8v17.8h-17.8zm142.2-17.8v-17.8h-35.6v53.4H287v-17.8h35.6v-17.8h-17.8zm-106.7-17.8h17.8v17.8h-17.8zm-53.3 53.4h17.8v17.8h-17.8z" class="cls-1"/>
  <path d="M109.2 1552.6H127v17.8h-17.8z" class="cls-90"/>
  <path d="M144.8 1588.2h17.8v-17.8H127v35.6h17.8v-17.8z" class="cls-89"/>
  <path d="M144.8 1552.6v-17.8H127v-17.7h-17.8v35.5H127v17.8h17.8v-17.8z" class="cls-94"/>
  <path d="M162.6 1552.6h17.8v17.8h-17.8z" class="cls-85"/>
  <path d="M180.3 1570.4h17.8v17.8h-17.8z" class="cls-84"/>
  <path d="M198.1 1534.8h-17.8v-35.5h-17.7v53.3h17.7v17.8h17.8v-35.6z" class="cls-95"/>
  <path d="M215.9 1517.1v-35.6h-17.8v35.6h17.8z" class="cls-96"/>
  <path d="M215.9 1534.8v17.8h-17.8v17.8h17.8v17.8h17.8v-53.4h-17.8z" class="cls-87"/>
  <path d="M215.9 1517.1h17.8v17.8h-17.8z" class="cls-97"/>
  <path d="M233.7 1588.2h17.8v17.8h-17.8z" class="cls-86"/>
  <path d="M251.5 1570.4h17.8v17.8h-17.8z" class="cls-88"/>
  <path d="M269.2 1570.4v-35.6H287v-53.3h-17.8v35.6h-17.7v35.5h-17.8v35.6h17.8v-17.8h17.7z" class="cls-98"/>
  <path d="M783.6 1840.3H748v17.8h-17.8v35.5h106.7v-35.5h-17.8v-17.8h-35.5z" class="cls-14"/>
  <path d="M765.8 1787H748v35.5h17.8V1787zm0 35.5h17.8v17.8h-17.8zm35.5-53.3v-17.8h-17.7v53.3h17.7v-35.5zm0 53.3v17.8h17.8v-35.6h-17.8v17.8zm53.4-71.1h-17.8v35.6h17.8v-35.6zm17.8 88.9V1787h-17.8v88.8h17.8v-17.7h35.6v-17.8h-35.6zm17.8-71.1v-17.8h-17.8v35.6h17.8v-17.8zm17.8 35.5v35.6h17.7V1787h-17.7v17.7zm17.7-35.5h17.8v17.8h-17.8z" class="cls-11"/>
  <path d="M348.9 2429.6h-17.8v17.8h35.6v-35.5h-17.8v17.7z" style="fill:url(#New_Pattern_Swatch_32-8)"/>
  <path d="M402.2 2411.9h-17.8v17.7h17.8v17.8h35.6v-35.5h-35.6z" style="fill:url(#New_Pattern_Swatch_32-9)"/>
  <path d="M633.3 2411.9h-17.7v17.7h-17.8v-17.7h-53.4v17.7h-35.5v17.8h142.2v-17.8h-17.8v-17.7z" style="fill:url(#New_Pattern_Swatch_32-10)"/>
  <path d="M793.3 2411.9h-88.9v35.5h17.8v-17.8H740v17.8h35.6v-17.8h17.7v17.8h17.8v-35.5h-17.8z" style="fill:url(#New_Pattern_Swatch_32-11)"/>
  <path d="M247.8 1336.5h-71.1v17.8h-17.8v17.7h106.7v-17.7h-17.8v-17.8zm452-567.9h-71.1v17.8h-17.8v17.7h106.7v-17.7h-17.8v-17.8z" class="cls-14"/>
  <path d="M786.2 2172.8V2155h-35.6v17.8h-53.3V2155h-35.6v17.8h17.8v17.8h160.1v-17.8h-53.4zm-53.4-35.6h17.8v17.8h-17.8z" class="cls-13"/>
  <path d="M804 2155h-17.8v17.8h71.1v-35.6h-17.7v-17.7H804v35.5z" class="cls-113"/>
  <path d="M767.4 2030.6h-17.8v35.5l17.3.5.5 17.3h17.8v17.8h71.9v-35.6h-18.5v-17.7h-17.8v17.7H803v-35.5h-35.6z" class="cls-9"/>
  <path d="M661.7 2048.4v17.7h71.1v-17.7h-71.1z" class="cls-112"/>
  <path d="M750.6 2048.4v-17.8h-71.1v17.8h53.3v17.7h-71.1v17.8h88.9v17.8h17.8v17.8h71.2v-17.8h-53.4v-17.8h-17.8v-17.8h-17.8v-17.7z" class="cls-13"/>
  <path d="M660.7 2012.8h17.8v17.8h-17.8z" class="cls-108"/>
  <path d="M608.3 2030.6h-17.8v17.8h53.4v-17.8h-35.6z" class="cls-13"/>
  <path d="M554 2012.8h-17.8v17.8h53.3v-17.8H554z" class="cls-109"/>
  <path d="M500.6 1995v17.8h35.6V1995h-35.6z" class="cls-110"/>
  <path d="M501.6 2012.8h-53.4v17.8h53.4v-17.8z" class="cls-13"/>
  <path d="M482.8 1977.3h17.8v17.8h-17.8z" class="cls-111"/>
  <path d="M784.9 2233.9v-17.8h-53.3v17.8h17.8v17.8h17.7v17.8h17.8v-35.6z" class="cls-12"/>
  <path d="M873.8 2109.5h-35.5v17.7h-71.2v17.8h35.6v35.6h-17.8v17.8h-17.8v17.7h17.8v17.8h17.8v-17.8h17.8v-17.7h17.8v-35.6H856V2145h35.6v-35.5h-17.8z" class="cls-119"/>
  <path d="M891.6 2145H856v17.8h-17.7v35.6H856v-17.8h17.8v-17.8h35.6V2145h17.7v-35.5h-35.5v35.5z" class="cls-12"/>
  <path d="M936.8 2385v-17.8H919v-17.7h-17.8v-53.4h-17.8v-17.8h-35.5v-17.7h-17.8v-17.8h-17.8V2225h-35.5v-17.8h-35.6v-17.7h-17.8v-17.8h-17.8v-17.8h-35.5v17.8h-53.3v-17.8h-35.6v17.8h-17.8v35.5h-17.8v53.4h17.8v35.5h-17.8v53.4h17.8v17.7h-17.8v53.4H599V2385h17.8v-35.5h53.3v17.7h17.8v17.8h17.7v35.6h35.6V2385h35.6v-35.5h53.3v17.7h17.8v17.8h17.7v17.8h35.6v17.8h35.6v-17.8h17.7V2385h-17.7z" style="fill:url(#New_Pattern_Swatch_28-17)"/>
  <path d="M500.6 1964.5h17.8v17.8h-17.8z" class="cls-106"/>
  <path d="M553.9 1964.5h-17.7v17.7h-17.8v17.8h17.8v17.8h17.7V2000h17.8v-17.8h-17.8v-17.7z" class="cls-105"/>
  <path d="M536.2 1857.8v17.8h17.7V1840h-17.7v17.8z" class="cls-104"/>
  <path d="M571.7 1911.1v-17.8h-17.8v71.2h17.8v-53.4z" class="cls-101"/>
  <path d="M553.9 1822.2h17.8v17.8h-17.8z" class="cls-102"/>
  <path d="M571.7 1964.5h17.8v17.8h-17.8z" class="cls-103"/>
  <path d="M589.5 1875.6V1840h-17.8v53.3h17.8v-17.7z" class="cls-100"/>
  <path d="M625.1 1999v35.6h17.8v-53.4h-17.8v17.8z" class="cls-99"/>
  <path d="M625.1 1910.1h-17.8v17.8h35.6v-17.8h-17.8z" class="cls-46"/>
  <path d="M660.7 1927.9h-17.8v53.3h17.8v-53.3z" class="cls-45"/>
  <path d="M678.5 1910.1v-17.8h-17.8v35.6h17.8v-17.8z" class="cls-44"/>
  <path d="M696.2 1982.2h-17.7v17.8h-17.8v35.6h17.8v-17.8h17.7v-35.6z" class="cls-43"/>
  <path d="M696.2 1946.7v-17.8h-17.7v35.6h17.7v-17.8z" class="cls-62"/>
  <path d="M697.2 2034.6v17.7H715v-35.5h-17.8v17.8z" class="cls-61"/>
  <path d="M696.2 1964.5H714v17.8h-17.8z" class="cls-58"/>
  <path d="M715 1980.2v35.6h17.8v-35.6H715z" class="cls-59"/>
  <path d="M715 1945.7h17.8v17.8H715z" class="cls-60"/>
  <path d="M732.8 2034.6h17.8v17.8h-17.8z" class="cls-51"/>
  <path d="M732.8 1963.5h17.8v17.8h-17.8z" class="cls-52"/>
  <path d="M750.6 1945.7h17.8v17.8h-17.8z" class="cls-57"/>
  <path d="M768.4 1999h17.8v-17.8H804v-17.7h-35.6v35.5z" class="cls-56"/>
  <path d="M786.2 2016.8h-17.8V1999h-17.8v35.6h17.8v17.7h17.8v-17.7H804v-17.8h-17.8z" class="cls-55"/>
  <path d="M804 1945.7h17.8v17.8H804z" class="cls-54"/>
  <path d="M839.6 2018.8V2001h17.7v-17.8h-35.5v17.8H804v17.8h35.6z" class="cls-53"/>
  <path d="M821.8 1927.9h17.8v17.8h-17.8z" class="cls-41"/>
  <path d="M857.3 2036.6h17.8V2001h-17.8v35.6z" class="cls-40"/>
  <path d="M642.5 1702.5h-35.6v17.8H767v-17.8h17.8v-17.8h-35.6v17.8h-53.3v-17.8h-35.6v17.8h-17.8zm53.4-35.6h17.8v17.8h-17.8z" class="cls-13"/>
  <path d="M642.5 1666.9v-17.7h-35.6v17.7h-17.7v35.6h71.1v-17.8h-17.8v-17.8z" class="cls-113"/>
  <path d="M661.3 1560.3h-17.8v35.5h-17.8v-17.7h-17.8v17.7h-18.5v35.6h71.9v-17.8h17.8l.5-17.3 17.3-.5v-35.5h-35.6z" class="cls-9"/>
  <path d="M767 1578.1h-53.3v17.7h71.1v-17.7H767z" class="cls-112"/>
  <path d="M695.9 1595.8h-17.8v17.8h-17.8v17.8h-53.4v17.8h71.2v-17.8h17.8v-17.8h88.9v-17.8h-71.1v-17.7H767v-17.8h-71.1v35.5z" class="cls-13"/>
  <path d="M768 1542.5h17.8v17.8H768z" class="cls-108"/>
  <path d="M811.4 1204.1h17.8v17.8h-17.8zm-142.3-88.9h17.8v17.8h-17.8zm0 53.3h17.8v17.8h-17.8zm160.1-17.7h-17.8v17.7h-17.8v17.8h35.6v-17.8H847v-17.7h-17.8zM704.6 1133v17.8h35.6V1133h-17.8v-17.8h-17.8v17.8zm-106.7 71.1h17.8v17.8h-17.8zm124.5-35.6h17.8v17.8h-17.8zm-142.3 17.8h-17.7v35.6h17.7v-35.6zm0-17.8h17.8v17.8h-17.8zm0-71.1h17.8v17.8h-17.8zm-17.7-17.8h17.8v17.8h-17.8zm0 88.9h17.7v-53.3h-35.5v71.1h17.8v-17.8z" class="cls-1"/>
  <path d="M509 1186.3h17.8v17.8H509z" class="cls-17"/>
  <path d="M509 1061.9h17.8v17.8H509zm35.6 160v-53.4h-17.8v71.1h17.8v-17.7z" class="cls-8"/>
  <path d="M544.6 1150.8v-35.6H509v17.8h17.8v35.5h17.8v-17.7z" class="cls-17"/>
  <path d="M526.8 1097.4h17.8v17.8h-17.8z" class="cls-8"/>
  <path d="M562.4 1186.3h-17.8v35.6h17.8v-35.6zm0-71.1h17.7v-17.8h-35.5v17.8h17.8z" class="cls-17"/>
  <path d="M544.6 1079.6h17.8v17.8h-17.8z" class="cls-8"/>
  <path d="M562.4 1168.5h17.8v17.8h-17.8zm17.7-88.9v-35.5h-17.7v17.8h-17.8v-17.8h-17.8v35.5h53.3z" class="cls-17"/>
  <path d="M597.9 1221.9h-53.3v17.7h-17.8v17.8h88.9v-17.8h-17.8v-17.7z" class="cls-14"/>
  <path d="M580.1 1204.1h17.8v17.8h-17.8z" class="cls-8"/>
  <path d="M580.1 1186.3h17.8v17.8h-17.8z" class="cls-17"/>
  <path d="M580.1 1097.4h17.8v-35.5h-17.8v35.5zm17.8 124.5h17.8v17.8h-17.8zm0-35.6h17.8v17.8h-17.8z" class="cls-8"/>
  <path d="M597.9 1150.8h-17.8v17.7h17.8v17.8h35.6v-17.8h-17.8V1133h-17.8v17.8z" class="cls-17"/>
  <path d="M597.9 1115.2h-17.8v35.6h17.8V1133h17.8v-35.6h-17.8v17.8z" class="cls-8"/>
  <path d="M597.9 1097.4h17.8v-17.8h17.8v-35.5h-17.8v17.8h-17.8v35.5zm17.8 106.7h17.8v17.8h-17.8z" class="cls-17"/>
  <path d="M615.7 1079.6h17.8v17.8h-17.8zm17.8 142.3h17.8v17.8h-17.8zm17.8-17.8h17.8v17.8h-17.8z" class="cls-8"/>
  <path d="M651.3 1115.2h-17.8v17.8h35.6v-17.8h-17.8z" class="cls-17"/>
  <path d="M651.3 1079.6h17.8v17.8h-17.8z" class="cls-8"/>
  <path d="M686.9 1204.1v-17.8h-17.8v-17.8h17.8V1133h-17.8v17.8h-17.8v53.3h17.8v17.8h17.8v-17.8z" class="cls-17"/>
  <path d="M669.1 1097.4h17.8v17.8h-17.8z" class="cls-8"/>
  <path d="M686.9 1079.6h17.7v-17.7h-35.5v35.5h17.8v-17.8z" class="cls-17"/>
  <path d="M704.6 1186.3h-17.7v35.6h-17.8v17.7h17.8v17.8h35.5v-17.8h-17.8v-17.7h17.8v-17.8h-17.8v-17.8zm0-71.1h-17.7v53.3h17.7v-53.3z" class="cls-8"/>
  <path d="M686.9 1097.4v17.8h35.5v-35.6h-17.8v17.8h-17.7z" class="cls-17"/>
  <path d="M686.9 1079.6h17.8v17.8h-17.8z" class="cls-8"/>
  <path d="M722.4 1168.5v-17.7h-17.8v17.7h-17.7v17.8h17.7v17.8h17.8v-35.6z" class="cls-17"/>
  <path d="M722.4 1186.3h17.8v17.8h-17.8zm0-35.5h17.8v17.8h-17.8z" class="cls-8"/>
  <path d="M722.4 1115.2h17.8v17.8h-17.8zm0-71.1h17.8v17.8h-17.8z" class="cls-17"/>
  <path d="M740.2 1239.6v17.8h35.6v-17.8h-35.6zm0-71.1H758v17.8h-17.8z" class="cls-8"/>
  <path d="M740.2 1150.8v17.7H758V1133h-17.8v17.8z" class="cls-17"/>
  <path d="M758 1133v-17.8h17.8v-17.8h-35.6v35.6H758z" class="cls-8"/>
  <path d="M758 1221.9h-17.8v17.7h35.6v-17.7H758z" class="cls-17"/>
  <path d="M758 1204.1h17.8v17.8H758z" class="cls-8"/>
  <path d="M758 1168.5h17.8v17.8H758z" class="cls-17"/>
  <path d="M758 1150.8h17.8v17.8H758z" class="cls-8"/>
  <path d="M775.8 1079.6v-17.7H758v35.5h17.8v-17.8z" class="cls-17"/>
  <path d="M775.8 1221.9h17.8v17.8h-17.8z" class="cls-8"/>
  <path d="M793.6 1221.9v-17.8h17.8v-17.8h-35.6v35.6h17.8z" class="cls-17"/>
  <path d="M775.8 1168.5h17.8v17.8h-17.8z" class="cls-8"/>
  <path d="M775.8 1150.8h17.8v17.8h-17.8z" class="cls-17"/>
  <path d="M775.8 1133h17.8v17.8h-17.8zm0-53.4h17.8v17.8h-17.8z" class="cls-8"/>
  <path d="M775.8 1044.1h17.8v17.8h-17.8z" class="cls-17"/>
  <path d="M793.6 1204.1h17.8v17.8h-17.8zm0-53.3h17.8v17.8h-17.8z" class="cls-8"/>
  <path d="M811.4 1150.8v-35.6h-17.8v35.6h17.8z" class="cls-17"/>
  <path d="M811.4 1221.9h-17.8v35.5h88.9v-17.8h-17.8v-17.7h-53.3z" class="cls-14"/>
  <path d="M811.4 1186.3h17.8v17.8h-17.8zm0-53.3h17.8v17.8h-17.8z" class="cls-8"/>
  <path d="M811.4 1097.4h17.8v17.8h-17.8z" class="cls-17"/>
  <path d="M829.2 1204.1H847v17.8h-17.8z" class="cls-8"/>
  <path d="M829.2 1186.3v17.8H847v-35.6h-17.8v17.8zm0-53.3H847v17.8h-17.8z" class="cls-17"/>
  <path d="M847 1186.3h17.8v17.8H847z" class="cls-8"/>
  <path d="M847 1150.8h17.8v17.8H847z" class="cls-17"/>
  <path d="M847 1133h17.8v17.8H847z" class="cls-8"/>
  <path d="M864.7 1115.2h17.8v17.8h-17.8z" class="cls-17"/>
  <path d="M.4.3h997v2562H.4z" class="cls-1"/>
</svg>
