<svg xmlns="http://www.w3.org/2000/svg" xmlns:xlink="http://www.w3.org/1999/xlink" id="Layer_1" viewBox="0 0 997.1 2562.3">
  <defs>
    <pattern id="New_Pattern_Swatch_39-12" width="173" height="173" x="0" y="0" patternTransform="matrix(3.8 0 0 -.6 320 -70.7)" patternUnits="userSpaceOnUse">
      <path d="M0 0h173v173H0z" class="cls-1"/>
      <path d="M0 0h173v173H0z" class="cls-1"/>
      <path d="M0 0h173v173H0z" class="cls-1"/>
      <path d="M0 0h173v173H0z" class="cls-1"/>
      <path d="M0 0h173v173H0z" style="fill:#b8a290"/>
    </pattern>
    <pattern id="New_Pattern_Swatch_33" width="173" height="173" x="0" y="0" patternTransform="matrix(1 0 0 -1 -138.1 -104.4)" patternUnits="userSpaceOnUse">
      <path d="M0 0h173v173H0z" class="cls-1"/>
      <path d="M0 0h173v173H0z" class="cls-1"/>
      <path d="M0 0h173v173H0z" class="cls-1"/>
      <path d="M0 0h173v173H0z" class="cls-1"/>
      <path d="M0 0h173v173H0z" class="cls-47"/>
    </pattern>
    <pattern id="New_Pattern_Swatch_37" width="173" height="173" x="0" y="0" patternTransform="matrix(1 0 0 -1 -138.1 -104.4)" patternUnits="userSpaceOnUse">
      <path d="M0 0h173v173H0z" class="cls-1"/>
      <path d="M0 0h173v173H0z" class="cls-1"/>
      <path d="M0 0h173v173H0z" class="cls-1"/>
      <path d="M0 0h173v173H0z" class="cls-1"/>
      <path d="M0 0h173v173H0z" class="cls-3"/>
    </pattern>
    <pattern id="New_Pattern_Swatch_37-2" width="173" height="173" x="0" y="0" patternTransform="rotate(-180 -9220.4 -7671.5)" patternUnits="userSpaceOnUse">
      <path d="M0 0h173v173H0z" class="cls-1"/>
      <path d="M0 0h173v173H0z" class="cls-1"/>
      <path d="M0 0h173v173H0z" class="cls-1"/>
      <path d="M0 0h173v173H0z" class="cls-1"/>
      <path d="M0 0h173v173H0z" class="cls-3"/>
    </pattern>
    <pattern id="New_Pattern_Swatch_37-4" width="173" height="173" x="0" y="0" patternTransform="matrix(1 0 0 -1 -146.1 -151.6)" patternUnits="userSpaceOnUse">
      <path d="M0 0h173v173H0z" class="cls-1"/>
      <path d="M0 0h173v173H0z" class="cls-1"/>
      <path d="M0 0h173v173H0z" class="cls-1"/>
      <path d="M0 0h173v173H0z" class="cls-1"/>
      <path d="M0 0h173v173H0z" class="cls-3"/>
    </pattern>
    <pattern id="New_Pattern_Swatch_37-5" width="173" height="173" x="0" y="0" patternTransform="matrix(1 0 0 -1 -163.1 -170.5)" patternUnits="userSpaceOnUse">
      <path d="M0 0h173v173H0z" class="cls-1"/>
      <path d="M0 0h173v173H0z" class="cls-1"/>
      <path d="M0 0h173v173H0z" class="cls-1"/>
      <path d="M0 0h173v173H0z" class="cls-1"/>
      <path d="M0 0h173v173H0z" class="cls-3"/>
    </pattern>
    <pattern id="New_Pattern_Swatch_37-7" width="173" height="173" x="0" y="0" patternTransform="rotate(-180 -9250.4 -7750.5)" patternUnits="userSpaceOnUse">
      <path d="M0 0h173v173H0z" class="cls-1"/>
      <path d="M0 0h173v173H0z" class="cls-1"/>
      <path d="M0 0h173v173H0z" class="cls-1"/>
      <path d="M0 0h173v173H0z" class="cls-1"/>
      <path d="M0 0h173v173H0z" class="cls-3"/>
    </pattern>
    <pattern id="New_Pattern_Swatch_33-4" width="173" height="173" x="0" y="0" patternTransform="rotate(-180 -9249.4 -7750)" patternUnits="userSpaceOnUse">
      <path d="M0 0h173v173H0z" class="cls-1"/>
      <path d="M0 0h173v173H0z" class="cls-1"/>
      <path d="M0 0h173v173H0z" class="cls-1"/>
      <path d="M0 0h173v173H0z" class="cls-1"/>
      <path d="M0 0h173v173H0z" class="cls-47"/>
    </pattern>
    <pattern id="New_Pattern_Swatch_33-5" width="173" height="173" x="0" y="0" patternTransform="rotate(-180 -9249.4 -7750)" patternUnits="userSpaceOnUse">
      <path d="M0 0h173v173H0z" class="cls-1"/>
      <path d="M0 0h173v173H0z" class="cls-1"/>
      <path d="M0 0h173v173H0z" class="cls-1"/>
      <path d="M0 0h173v173H0z" class="cls-1"/>
      <path d="M0 0h173v173H0z" class="cls-47"/>
    </pattern>
    <pattern id="New_Pattern_Swatch_33-6" width="173" height="173" x="0" y="0" patternTransform="rotate(-180 -9249.4 -7750)" patternUnits="userSpaceOnUse">
      <path d="M0 0h173v173H0z" class="cls-1"/>
      <path d="M0 0h173v173H0z" class="cls-1"/>
      <path d="M0 0h173v173H0z" class="cls-1"/>
      <path d="M0 0h173v173H0z" class="cls-1"/>
      <path d="M0 0h173v173H0z" class="cls-47"/>
    </pattern>
    <pattern id="New_Pattern_Swatch_33-7" width="173" height="173" x="0" y="0" patternTransform="rotate(-180 -9249.4 -7750)" patternUnits="userSpaceOnUse">
      <path d="M0 0h173v173H0z" class="cls-1"/>
      <path d="M0 0h173v173H0z" class="cls-1"/>
      <path d="M0 0h173v173H0z" class="cls-1"/>
      <path d="M0 0h173v173H0z" class="cls-1"/>
      <path d="M0 0h173v173H0z" class="cls-47"/>
    </pattern>
    <pattern id="New_Pattern_Swatch_33-8" width="173" height="173" x="0" y="0" patternTransform="rotate(-180 -9249.4 -7749.5)" patternUnits="userSpaceOnUse">
      <path d="M0 0h173v173H0z" class="cls-1"/>
      <path d="M0 0h173v173H0z" class="cls-1"/>
      <path d="M0 0h173v173H0z" class="cls-1"/>
      <path d="M0 0h173v173H0z" class="cls-1"/>
      <path d="M0 0h173v173H0z" class="cls-47"/>
    </pattern>
    <pattern id="New_Pattern_Swatch_33-20" width="173" height="173" x="0" y="0" patternTransform="rotate(-180 -9309.4 -7681)" patternUnits="userSpaceOnUse">
      <path d="M0 0h173v173H0z" class="cls-1"/>
      <path d="M0 0h173v173H0z" class="cls-1"/>
      <path d="M0 0h173v173H0z" class="cls-1"/>
      <path d="M0 0h173v173H0z" class="cls-1"/>
      <path d="M0 0h173v173H0z" class="cls-47"/>
    </pattern>
    <pattern id="New_Pattern_Swatch_33-21" width="173" height="173" x="0" y="0" patternTransform="rotate(-180 -9309.4 -7681)" patternUnits="userSpaceOnUse">
      <path d="M0 0h173v173H0z" class="cls-1"/>
      <path d="M0 0h173v173H0z" class="cls-1"/>
      <path d="M0 0h173v173H0z" class="cls-1"/>
      <path d="M0 0h173v173H0z" class="cls-1"/>
      <path d="M0 0h173v173H0z" class="cls-47"/>
    </pattern>
    <pattern id="New_Pattern_Swatch_33-22" width="173" height="173" x="0" y="0" patternTransform="rotate(-180 -9309.4 -7681)" patternUnits="userSpaceOnUse">
      <path d="M0 0h173v173H0z" class="cls-1"/>
      <path d="M0 0h173v173H0z" class="cls-1"/>
      <path d="M0 0h173v173H0z" class="cls-1"/>
      <path d="M0 0h173v173H0z" class="cls-1"/>
      <path d="M0 0h173v173H0z" class="cls-47"/>
    </pattern>
    <pattern id="New_Pattern_Swatch_33-23" width="173" height="173" x="0" y="0" patternTransform="rotate(-180 -9309.4 -7681)" patternUnits="userSpaceOnUse">
      <path d="M0 0h173v173H0z" class="cls-1"/>
      <path d="M0 0h173v173H0z" class="cls-1"/>
      <path d="M0 0h173v173H0z" class="cls-1"/>
      <path d="M0 0h173v173H0z" class="cls-1"/>
      <path d="M0 0h173v173H0z" class="cls-47"/>
    </pattern>
    <pattern id="New_Pattern_Swatch_69-2" width="198" height="193" x="0" y="0" patternTransform="matrix(1 0 0 -1 -194 -189.9)" patternUnits="userSpaceOnUse">
      <path d="M0 0h198v193H0z" class="cls-1"/>
      <path d="M0 0h198v193H0z" class="cls-1"/>
      <path d="M0 0h198v193H0z" class="cls-1"/>
      <path d="M0 0h198v193H0z" class="cls-1"/>
      <path d="M0 0h198v193H0z" class="cls-4"/>
    </pattern>
    <pattern xlink:href="#New_Pattern_Swatch_69-2" id="New_Pattern_Swatch_69-2-2" patternTransform="matrix(1 0 0 -1 -129 -82.2)"/>
    <pattern id="New_Pattern_Swatch_2-23" width="173" height="173" x="0" y="0" patternTransform="rotate(-180 -9264.5 -7700)" patternUnits="userSpaceOnUse">
      <path d="M0 0h173v173H0z" class="cls-1"/>
      <path d="M0 0h173v173H0z" class="cls-1"/>
      <path d="M0 0h173v173H0z" class="cls-1"/>
      <path d="M0 0h173v173H0z" class="cls-1"/>
      <path d="M0 0h173v173H0z" class="cls-48"/>
    </pattern>
    <pattern id="New_Pattern_Swatch_2-24" width="173" height="173" x="0" y="0" patternTransform="rotate(-180 -9264.5 -7700)" patternUnits="userSpaceOnUse">
      <path d="M0 0h173v173H0z" class="cls-1"/>
      <path d="M0 0h173v173H0z" class="cls-1"/>
      <path d="M0 0h173v173H0z" class="cls-1"/>
      <path d="M0 0h173v173H0z" class="cls-1"/>
      <path d="M0 0h173v173H0z" class="cls-48"/>
    </pattern>
    <pattern id="New_Pattern_Swatch_2-25" width="173" height="173" x="0" y="0" patternTransform="rotate(-180 -9264.5 -7700)" patternUnits="userSpaceOnUse">
      <path d="M0 0h173v173H0z" class="cls-1"/>
      <path d="M0 0h173v173H0z" class="cls-1"/>
      <path d="M0 0h173v173H0z" class="cls-1"/>
      <path d="M0 0h173v173H0z" class="cls-1"/>
      <path d="M0 0h173v173H0z" class="cls-48"/>
    </pattern>
    <pattern id="New_Pattern_Swatch_2-26" width="173" height="173" x="0" y="0" patternTransform="rotate(-180 -9264.5 -7700)" patternUnits="userSpaceOnUse">
      <path d="M0 0h173v173H0z" class="cls-1"/>
      <path d="M0 0h173v173H0z" class="cls-1"/>
      <path d="M0 0h173v173H0z" class="cls-1"/>
      <path d="M0 0h173v173H0z" class="cls-1"/>
      <path d="M0 0h173v173H0z" class="cls-48"/>
    </pattern>
    <pattern id="New_Pattern_Swatch_45-13" width="173" height="173" x="0" y="0" patternTransform="matrix(1 0 0 -1 -68.4 -130)" patternUnits="userSpaceOnUse">
      <path d="M0 0h173v173H0z" class="cls-1"/>
      <path d="M0 0h173v173H0z" class="cls-1"/>
      <path d="M0 0h173v173H0z" class="cls-1"/>
      <path d="M0 0h173v173H0z" class="cls-1"/>
      <path d="M0 0h173v173H0z" class="cls-90"/>
    </pattern>
    <pattern id="New_Pattern_Swatch_45-15" width="173" height="173" x="0" y="0" patternTransform="matrix(1 0 0 -1 -68.4 -130)" patternUnits="userSpaceOnUse">
      <path d="M0 0h173v173H0z" class="cls-1"/>
      <path d="M0 0h173v173H0z" class="cls-1"/>
      <path d="M0 0h173v173H0z" class="cls-1"/>
      <path d="M0 0h173v173H0z" class="cls-1"/>
      <path d="M0 0h173v173H0z" class="cls-90"/>
    </pattern>
    <pattern id="New_Pattern_Swatch_7-32" width="213" height="213" x="0" y="0" patternTransform="matrix(6.2 0 0 -1 452.1 -71.7)" patternUnits="userSpaceOnUse">
      <path d="M0 0h213v213H0z" class="cls-1"/>
      <path d="M0 0h213v213H0z" class="cls-1"/>
      <path d="M0 0h213v213H0z" class="cls-1"/>
      <path d="M0 0h213v213H0z" class="cls-1"/>
      <path d="M0 0h213v213H0z" class="cls-58"/>
    </pattern>
    <pattern id="New_Pattern_Swatch_7-34" width="213" height="213" x="0" y="0" patternTransform="matrix(6.2 0 0 -1 452.1 -71.7)" patternUnits="userSpaceOnUse">
      <path d="M0 0h213v213H0z" class="cls-1"/>
      <path d="M0 0h213v213H0z" class="cls-1"/>
      <path d="M0 0h213v213H0z" class="cls-1"/>
      <path d="M0 0h213v213H0z" class="cls-1"/>
      <path d="M0 0h213v213H0z" class="cls-58"/>
    </pattern>
    <pattern id="New_Pattern_Swatch_7-35" width="213" height="213" x="0" y="0" patternTransform="matrix(6.2 0 0 -1 452.1 -71.7)" patternUnits="userSpaceOnUse">
      <path d="M0 0h213v213H0z" class="cls-1"/>
      <path d="M0 0h213v213H0z" class="cls-1"/>
      <path d="M0 0h213v213H0z" class="cls-1"/>
      <path d="M0 0h213v213H0z" class="cls-1"/>
      <path d="M0 0h213v213H0z" class="cls-58"/>
    </pattern>
    <pattern id="New_Pattern_Swatch_9-2" width="210" height="210" x="0" y="0" patternTransform="matrix(1 0 0 -1 -79.7 -181.8)" patternUnits="userSpaceOnUse">
      <path d="M0 0h210v210H0z" class="cls-1"/>
      <path d="M0 0h210v210H0z" class="cls-1"/>
      <path d="M0 0h210v210H0z" class="cls-1"/>
      <path d="M0 0h210v210H0z" class="cls-1"/>
      <path d="M0 0h210v210H0z" class="cls-2"/>
    </pattern>
    <pattern id="New_Pattern_Swatch_9-3" width="210" height="210" x="0" y="0" patternTransform="matrix(1 0 0 -1 -79.7 -181.8)" patternUnits="userSpaceOnUse">
      <path d="M0 0h210v210H0z" class="cls-1"/>
      <path d="M0 0h210v210H0z" class="cls-1"/>
      <path d="M0 0h210v210H0z" class="cls-1"/>
      <path d="M0 0h210v210H0z" class="cls-1"/>
      <path d="M0 0h210v210H0z" class="cls-2"/>
    </pattern>
    <pattern id="New_Pattern_Swatch_9-6" width="210" height="210" x="0" y="0" patternTransform="matrix(1 0 0 -1 -79.7 -181.8)" patternUnits="userSpaceOnUse">
      <path d="M0 0h210v210H0z" class="cls-1"/>
      <path d="M0 0h210v210H0z" class="cls-1"/>
      <path d="M0 0h210v210H0z" class="cls-1"/>
      <path d="M0 0h210v210H0z" class="cls-1"/>
      <path d="M0 0h210v210H0z" class="cls-2"/>
    </pattern>
    <pattern id="New_Pattern_Swatch_9-8" width="210" height="210" x="0" y="0" patternTransform="matrix(1 0 0 -1 -79.7 -181.8)" patternUnits="userSpaceOnUse">
      <path d="M0 0h210v210H0z" class="cls-1"/>
      <path d="M0 0h210v210H0z" class="cls-1"/>
      <path d="M0 0h210v210H0z" class="cls-1"/>
      <path d="M0 0h210v210H0z" class="cls-1"/>
      <path d="M0 0h210v210H0z" class="cls-2"/>
    </pattern>
    <pattern id="New_Pattern_Swatch_9-9" width="210" height="210" x="0" y="0" patternTransform="matrix(1 0 0 -1 -79.7 -181.8)" patternUnits="userSpaceOnUse">
      <path d="M0 0h210v210H0z" class="cls-1"/>
      <path d="M0 0h210v210H0z" class="cls-1"/>
      <path d="M0 0h210v210H0z" class="cls-1"/>
      <path d="M0 0h210v210H0z" class="cls-1"/>
      <path d="M0 0h210v210H0z" class="cls-2"/>
    </pattern>
    <pattern id="New_Pattern_Swatch_9-12" width="210" height="210" x="0" y="0" patternTransform="matrix(1 0 0 -1 -79.7 -181.8)" patternUnits="userSpaceOnUse">
      <path d="M0 0h210v210H0z" class="cls-1"/>
      <path d="M0 0h210v210H0z" class="cls-1"/>
      <path d="M0 0h210v210H0z" class="cls-1"/>
      <path d="M0 0h210v210H0z" class="cls-1"/>
      <path d="M0 0h210v210H0z" class="cls-2"/>
    </pattern>
    <pattern id="New_Pattern_Swatch_9-13" width="210" height="210" x="0" y="0" patternTransform="matrix(1 0 0 -1 -79.7 -181.8)" patternUnits="userSpaceOnUse">
      <path d="M0 0h210v210H0z" class="cls-1"/>
      <path d="M0 0h210v210H0z" class="cls-1"/>
      <path d="M0 0h210v210H0z" class="cls-1"/>
      <path d="M0 0h210v210H0z" class="cls-1"/>
      <path d="M0 0h210v210H0z" class="cls-2"/>
    </pattern>
    <pattern id="New_Pattern_Swatch_9-14" width="210" height="210" x="0" y="0" patternTransform="matrix(1 0 0 -1 -79.7 -181.8)" patternUnits="userSpaceOnUse">
      <path d="M0 0h210v210H0z" class="cls-1"/>
      <path d="M0 0h210v210H0z" class="cls-1"/>
      <path d="M0 0h210v210H0z" class="cls-1"/>
      <path d="M0 0h210v210H0z" class="cls-1"/>
      <path d="M0 0h210v210H0z" class="cls-2"/>
    </pattern>
    <pattern id="New_Pattern_Swatch_9-15" width="210" height="210" x="0" y="0" patternTransform="matrix(1 0 0 -1 -79.7 -181.8)" patternUnits="userSpaceOnUse">
      <path d="M0 0h210v210H0z" class="cls-1"/>
      <path d="M0 0h210v210H0z" class="cls-1"/>
      <path d="M0 0h210v210H0z" class="cls-1"/>
      <path d="M0 0h210v210H0z" class="cls-1"/>
      <path d="M0 0h210v210H0z" class="cls-2"/>
    </pattern>
    <pattern id="New_Pattern_Swatch_9-16" width="210" height="210" x="0" y="0" patternTransform="matrix(1 0 0 -1 -79.7 -181.8)" patternUnits="userSpaceOnUse">
      <path d="M0 0h210v210H0z" class="cls-1"/>
      <path d="M0 0h210v210H0z" class="cls-1"/>
      <path d="M0 0h210v210H0z" class="cls-1"/>
      <path d="M0 0h210v210H0z" class="cls-1"/>
      <path d="M0 0h210v210H0z" class="cls-2"/>
    </pattern>
    <pattern xlink:href="#New_Pattern_Swatch_69-2" id="New_Pattern_Swatch_69-2-3" patternTransform="matrix(1 0 0 -1 -129 -82.2)"/>
    <pattern id="New_Pattern_Swatch_12" width="213" height="213" x="0" y="0" patternTransform="matrix(1 0 0 -1 -67.6 -136.9)" patternUnits="userSpaceOnUse">
      <path d="M0 0h213v213H0z" class="cls-1"/>
      <path d="M0 0h213v213H0z" class="cls-1"/>
      <path d="M0 0h213v213H0z" class="cls-1"/>
      <path d="M0 0h213v213H0z" class="cls-1"/>
      <path d="M0 0h213v213H0z" style="fill:#455141"/>
    </pattern>
    <pattern id="New_Pattern_Swatch_9" width="210" height="210" x="0" y="0" patternTransform="matrix(1 0 0 -1 -10.6 -177.7)" patternUnits="userSpaceOnUse">
      <path d="M0 0h210v210H0z" class="cls-1"/>
      <path d="M0 0h210v210H0z" class="cls-1"/>
      <path d="M0 0h210v210H0z" class="cls-1"/>
      <path d="M0 0h210v210H0z" class="cls-1"/>
      <path d="M0 0h210v210H0z" class="cls-2"/>
    </pattern>
    <pattern id="New_Pattern_Swatch_69" width="198" height="193" x="0" y="0" patternTransform="matrix(1 0 0 -1 -125.1 -83.8)" patternUnits="userSpaceOnUse">
      <path d="M0 0h198v193H0z" class="cls-1"/>
      <path d="M0 0h198v193H0z" class="cls-1"/>
      <path d="M0 0h198v193H0z" class="cls-1"/>
      <path d="M0 0h198v193H0z" class="cls-1"/>
      <path d="M0 0h198v193H0z" class="cls-4"/>
    </pattern>
    <pattern xlink:href="#New_Pattern_Swatch_69" id="New_Pattern_Swatch_69-3" patternTransform="matrix(1 0 0 -1 -190.1 -191.5)"/>
    <pattern id="New_Pattern_Swatch_7" width="213" height="213" x="0" y="0" patternTransform="matrix(6.2 0 0 -1 452.1 -70.7)" patternUnits="userSpaceOnUse">
      <path d="M0 0h213v213H0z" class="cls-1"/>
      <path d="M0 0h213v213H0z" class="cls-1"/>
      <path d="M0 0h213v213H0z" class="cls-1"/>
      <path d="M0 0h213v213H0z" class="cls-1"/>
      <path d="M0 0h213v213H0z" class="cls-58"/>
    </pattern>
    <pattern id="New_Pattern_Swatch_7-9_2" width="213" height="213" x="0" y="0" patternTransform="matrix(6.2 0 0 1 74.1 46.2)" patternUnits="userSpaceOnUse">
      <path d="M0 0h213v213H0z" class="cls-1"/>
      <path d="M0 0h213v213H0z" class="cls-1"/>
      <path d="M0 0h213v213H0z" class="cls-1"/>
      <path d="M0 0h213v213H0z" class="cls-58"/>
    </pattern>
    <pattern id="New_Pattern_Swatch_7-10_2" width="213" height="213" x="0" y="0" patternTransform="matrix(6.2 0 0 1 74.1 46.2)" patternUnits="userSpaceOnUse">
      <path d="M0 0h213v213H0z" class="cls-1"/>
      <path d="M0 0h213v213H0z" class="cls-1"/>
      <path d="M0 0h213v213H0z" class="cls-1"/>
      <path d="M0 0h213v213H0z" class="cls-58"/>
    </pattern>
    <pattern id="New_Pattern_Swatch_7-11_2" width="213" height="213" x="0" y="0" patternTransform="matrix(6.2 0 0 1 74.1 46.2)" patternUnits="userSpaceOnUse">
      <path d="M0 0h213v213H0z" class="cls-1"/>
      <path d="M0 0h213v213H0z" class="cls-1"/>
      <path d="M0 0h213v213H0z" class="cls-1"/>
      <path d="M0 0h213v213H0z" class="cls-58"/>
    </pattern>
    <pattern id="New_Pattern_Swatch_7-12_2" width="213" height="213" x="0" y="0" patternTransform="matrix(6.2 0 0 1 74.1 46.2)" patternUnits="userSpaceOnUse">
      <path d="M0 0h213v213H0z" class="cls-1"/>
      <path d="M0 0h213v213H0z" class="cls-1"/>
      <path d="M0 0h213v213H0z" class="cls-1"/>
      <path d="M0 0h213v213H0z" class="cls-58"/>
    </pattern>
    <pattern id="New_Pattern_Swatch_7-13_2" width="213" height="213" x="0" y="0" patternTransform="matrix(6.2 0 0 1 74.1 46.2)" patternUnits="userSpaceOnUse">
      <path d="M0 0h213v213H0z" class="cls-1"/>
      <path d="M0 0h213v213H0z" class="cls-1"/>
      <path d="M0 0h213v213H0z" class="cls-1"/>
      <path d="M0 0h213v213H0z" class="cls-58"/>
    </pattern>
    <pattern id="New_Pattern_Swatch_7-14_2" width="213" height="213" x="0" y="0" patternTransform="matrix(6.2 0 0 1 74.1 46.2)" patternUnits="userSpaceOnUse">
      <path d="M0 0h213v213H0z" class="cls-1"/>
      <path d="M0 0h213v213H0z" class="cls-1"/>
      <path d="M0 0h213v213H0z" class="cls-1"/>
      <path d="M0 0h213v213H0z" class="cls-58"/>
    </pattern>
    <pattern id="New_Pattern_Swatch_7-15_2" width="213" height="213" x="0" y="0" patternTransform="matrix(6.2 0 0 1 74.1 46.2)" patternUnits="userSpaceOnUse">
      <path d="M0 0h213v213H0z" class="cls-1"/>
      <path d="M0 0h213v213H0z" class="cls-1"/>
      <path d="M0 0h213v213H0z" class="cls-1"/>
      <path d="M0 0h213v213H0z" class="cls-58"/>
    </pattern>
    <pattern id="New_Pattern_Swatch_7-16_2" width="213" height="213" x="0" y="0" patternTransform="matrix(6.2 0 0 1 74.1 46.2)" patternUnits="userSpaceOnUse">
      <path d="M0 0h213v213H0z" class="cls-1"/>
      <path d="M0 0h213v213H0z" class="cls-1"/>
      <path d="M0 0h213v213H0z" class="cls-1"/>
      <path d="M0 0h213v213H0z" class="cls-58"/>
    </pattern>
    <pattern id="New_Pattern_Swatch_7-17_2" width="213" height="213" x="0" y="0" patternTransform="matrix(6.2 0 0 1 74.1 46.2)" patternUnits="userSpaceOnUse">
      <path d="M0 0h213v213H0z" class="cls-1"/>
      <path d="M0 0h213v213H0z" class="cls-1"/>
      <path d="M0 0h213v213H0z" class="cls-1"/>
      <path d="M0 0h213v213H0z" class="cls-58"/>
    </pattern>
    <pattern id="New_Pattern_Swatch_7-18_2" width="213" height="213" x="0" y="0" patternTransform="matrix(6.2 0 0 1 74.1 46.2)" patternUnits="userSpaceOnUse">
      <path d="M0 0h213v213H0z" class="cls-1"/>
      <path d="M0 0h213v213H0z" class="cls-1"/>
      <path d="M0 0h213v213H0z" class="cls-1"/>
      <path d="M0 0h213v213H0z" class="cls-58"/>
    </pattern>
    <pattern id="New_Pattern_Swatch_7-19_2" width="213" height="213" x="0" y="0" patternTransform="matrix(6.2 0 0 1 74.1 46.2)" patternUnits="userSpaceOnUse">
      <path d="M0 0h213v213H0z" class="cls-1"/>
      <path d="M0 0h213v213H0z" class="cls-1"/>
      <path d="M0 0h213v213H0z" class="cls-1"/>
      <path d="M0 0h213v213H0z" class="cls-58"/>
    </pattern>
    <pattern id="New_Pattern_Swatch_7-20_2" width="213" height="213" x="0" y="0" patternTransform="matrix(6.2 0 0 1 74.1 46.2)" patternUnits="userSpaceOnUse">
      <path d="M0 0h213v213H0z" class="cls-1"/>
      <path d="M0 0h213v213H0z" class="cls-1"/>
      <path d="M0 0h213v213H0z" class="cls-1"/>
      <path d="M0 0h213v213H0z" class="cls-58"/>
    </pattern>
    <pattern id="New_Pattern_Swatch_7-21_2" width="213" height="213" x="0" y="0" patternTransform="matrix(6.2 0 0 1 74.1 46.2)" patternUnits="userSpaceOnUse">
      <path d="M0 0h213v213H0z" class="cls-1"/>
      <path d="M0 0h213v213H0z" class="cls-1"/>
      <path d="M0 0h213v213H0z" class="cls-1"/>
      <path d="M0 0h213v213H0z" class="cls-58"/>
    </pattern>
    <pattern id="New_Pattern_Swatch_7-22_2" width="213" height="213" x="0" y="0" patternTransform="matrix(6.2 0 0 1 74.1 46.2)" patternUnits="userSpaceOnUse">
      <path d="M0 0h213v213H0z" class="cls-1"/>
      <path d="M0 0h213v213H0z" class="cls-1"/>
      <path d="M0 0h213v213H0z" class="cls-1"/>
      <path d="M0 0h213v213H0z" class="cls-58"/>
    </pattern>
    <pattern id="New_Pattern_Swatch_7-23_2" width="213" height="213" x="0" y="0" patternTransform="matrix(6.2 0 0 1 74.1 46.2)" patternUnits="userSpaceOnUse">
      <path d="M0 0h213v213H0z" class="cls-1"/>
      <path d="M0 0h213v213H0z" class="cls-1"/>
      <path d="M0 0h213v213H0z" class="cls-1"/>
      <path d="M0 0h213v213H0z" class="cls-58"/>
    </pattern>
    <pattern id="New_Pattern_Swatch_7-24_2" width="213" height="213" x="0" y="0" patternTransform="matrix(6.2 0 0 1 74.1 46.2)" patternUnits="userSpaceOnUse">
      <path d="M0 0h213v213H0z" class="cls-1"/>
      <path d="M0 0h213v213H0z" class="cls-1"/>
      <path d="M0 0h213v213H0z" class="cls-1"/>
      <path d="M0 0h213v213H0z" class="cls-58"/>
    </pattern>
    <pattern id="New_Pattern_Swatch_7-25_2" width="213" height="213" x="0" y="0" patternTransform="matrix(6.2 0 0 1 74.1 46.2)" patternUnits="userSpaceOnUse">
      <path d="M0 0h213v213H0z" class="cls-1"/>
      <path d="M0 0h213v213H0z" class="cls-1"/>
      <path d="M0 0h213v213H0z" class="cls-1"/>
      <path d="M0 0h213v213H0z" class="cls-58"/>
    </pattern>
    <pattern id="New_Pattern_Swatch_7-26_2" width="213" height="213" x="0" y="0" patternTransform="matrix(6.2 0 0 1 74.1 46.2)" patternUnits="userSpaceOnUse">
      <path d="M0 0h213v213H0z" class="cls-1"/>
      <path d="M0 0h213v213H0z" class="cls-1"/>
      <path d="M0 0h213v213H0z" class="cls-1"/>
      <path d="M0 0h213v213H0z" class="cls-58"/>
    </pattern>
    <pattern id="New_Pattern_Swatch_7-27_2" width="213" height="213" x="0" y="0" patternTransform="matrix(6.2 0 0 1 74.1 46.2)" patternUnits="userSpaceOnUse">
      <path d="M0 0h213v213H0z" class="cls-1"/>
      <path d="M0 0h213v213H0z" class="cls-1"/>
      <path d="M0 0h213v213H0z" class="cls-1"/>
      <path d="M0 0h213v213H0z" class="cls-58"/>
    </pattern>
    <pattern id="New_Pattern_Swatch_7-28_2" width="213" height="213" x="0" y="0" patternTransform="matrix(6.2 0 0 1 74.1 46.2)" patternUnits="userSpaceOnUse">
      <path d="M0 0h213v213H0z" class="cls-1"/>
      <path d="M0 0h213v213H0z" class="cls-1"/>
      <path d="M0 0h213v213H0z" class="cls-1"/>
      <path d="M0 0h213v213H0z" class="cls-58"/>
    </pattern>
    <pattern id="New_Pattern_Swatch_7-29_2" width="213" height="213" x="0" y="0" patternTransform="matrix(6.2 0 0 1 74.1 46.2)" patternUnits="userSpaceOnUse">
      <path d="M0 0h213v213H0z" class="cls-1"/>
      <path d="M0 0h213v213H0z" class="cls-1"/>
      <path d="M0 0h213v213H0z" class="cls-1"/>
      <path d="M0 0h213v213H0z" class="cls-58"/>
    </pattern>
    <pattern id="New_Pattern_Swatch_7-30_2" width="213" height="213" x="0" y="0" patternTransform="matrix(6.2 0 0 1 74.1 46.2)" patternUnits="userSpaceOnUse">
      <path d="M0 0h213v213H0z" class="cls-1"/>
      <path d="M0 0h213v213H0z" class="cls-1"/>
      <path d="M0 0h213v213H0z" class="cls-1"/>
      <path d="M0 0h213v213H0z" class="cls-58"/>
    </pattern>
    <pattern id="New_Pattern_Swatch_7-31_2" width="213" height="213" x="0" y="0" patternTransform="matrix(6.2 0 0 1 74.1 46.2)" patternUnits="userSpaceOnUse">
      <path d="M0 0h213v213H0z" class="cls-1"/>
      <path d="M0 0h213v213H0z" class="cls-1"/>
      <path d="M0 0h213v213H0z" class="cls-1"/>
      <path d="M0 0h213v213H0z" class="cls-58"/>
    </pattern>
    <pattern id="New_Pattern_Swatch_7-32_2" width="213" height="213" x="0" y="0" patternTransform="matrix(6.2 0 0 1 74.1 46.2)" patternUnits="userSpaceOnUse">
      <path d="M0 0h213v213H0z" class="cls-1"/>
      <path d="M0 0h213v213H0z" class="cls-1"/>
      <path d="M0 0h213v213H0z" class="cls-1"/>
      <path d="M0 0h213v213H0z" class="cls-58"/>
    </pattern>
    <pattern id="New_Pattern_Swatch_7-33_2" width="213" height="213" x="0" y="0" patternTransform="matrix(6.2 0 0 1 1196.7 73.5)" patternUnits="userSpaceOnUse">
      <path d="M0 0h213v213H0z" class="cls-1"/>
      <path d="M0 0h213v213H0z" class="cls-1"/>
      <path d="M0 0h213v213H0z" class="cls-1"/>
      <path d="M0 0h213v213H0z" class="cls-58"/>
    </pattern>
    <pattern id="New_Pattern_Swatch_7-34_2" width="213" height="213" x="0" y="0" patternTransform="matrix(6.2 0 0 1 74.1 46.2)" patternUnits="userSpaceOnUse">
      <path d="M0 0h213v213H0z" class="cls-1"/>
      <path d="M0 0h213v213H0z" class="cls-1"/>
      <path d="M0 0h213v213H0z" class="cls-1"/>
      <path d="M0 0h213v213H0z" class="cls-58"/>
    </pattern>
    <pattern id="New_Pattern_Swatch_7-35_2" width="213" height="213" x="0" y="0" patternTransform="matrix(6.2 0 0 1 74.1 46.2)" patternUnits="userSpaceOnUse">
      <path d="M0 0h213v213H0z" class="cls-1"/>
      <path d="M0 0h213v213H0z" class="cls-1"/>
      <path d="M0 0h213v213H0z" class="cls-1"/>
      <path d="M0 0h213v213H0z" class="cls-58"/>
    </pattern>
    <pattern id="New_Pattern_Swatch_7-36_2" width="213" height="213" x="0" y="0" patternTransform="matrix(6.2 0 0 1 74.1 46.2)" patternUnits="userSpaceOnUse">
      <path d="M0 0h213v213H0z" class="cls-1"/>
      <path d="M0 0h213v213H0z" class="cls-1"/>
      <path d="M0 0h213v213H0z" class="cls-1"/>
      <path d="M0 0h213v213H0z" class="cls-58"/>
    </pattern>
    <pattern id="New_Pattern_Swatch_7-37_2" width="213" height="213" x="0" y="0" patternTransform="matrix(6.2 0 0 1 74.1 46.2)" patternUnits="userSpaceOnUse">
      <path d="M0 0h213v213H0z" class="cls-1"/>
      <path d="M0 0h213v213H0z" class="cls-1"/>
      <path d="M0 0h213v213H0z" class="cls-1"/>
      <path d="M0 0h213v213H0z" class="cls-58"/>
    </pattern>
    <pattern id="New_Pattern_Swatch_7-38_2" width="213" height="213" x="0" y="0" patternTransform="matrix(6.2 0 0 1 74.1 46.2)" patternUnits="userSpaceOnUse">
      <path d="M0 0h213v213H0z" class="cls-1"/>
      <path d="M0 0h213v213H0z" class="cls-1"/>
      <path d="M0 0h213v213H0z" class="cls-1"/>
      <path d="M0 0h213v213H0z" class="cls-58"/>
    </pattern>
    <pattern id="New_Pattern_Swatch_69-4" width="198" height="193" x="0" y="0" patternTransform="matrix(1 0 0 -1 -129 -82.2)" patternUnits="userSpaceOnUse">
      <path d="M0 0h198v193H0z" class="cls-1"/>
      <path d="M0 0h198v193H0z" class="cls-1"/>
      <path d="M0 0h198v193H0z" class="cls-1"/>
      <path d="M0 0h198v193H0z" class="cls-1"/>
      <path d="M0 0h198v193H0z" class="cls-4"/>
    </pattern>
    <pattern id="New_Pattern_Swatch_69-8" width="198" height="193" x="0" y="0" patternTransform="matrix(1 0 0 -1 -129 -82.2)" patternUnits="userSpaceOnUse">
      <path d="M0 0h198v193H0z" class="cls-1"/>
      <path d="M0 0h198v193H0z" class="cls-1"/>
      <path d="M0 0h198v193H0z" class="cls-1"/>
      <path d="M0 0h198v193H0z" class="cls-1"/>
      <path d="M0 0h198v193H0z" class="cls-4"/>
    </pattern>
    <pattern id="New_Pattern_Swatch_69-11" width="198" height="193" x="0" y="0" patternTransform="matrix(1 0 0 -1 -129 -82.2)" patternUnits="userSpaceOnUse">
      <path d="M0 0h198v193H0z" class="cls-1"/>
      <path d="M0 0h198v193H0z" class="cls-1"/>
      <path d="M0 0h198v193H0z" class="cls-1"/>
      <path d="M0 0h198v193H0z" class="cls-1"/>
      <path d="M0 0h198v193H0z" class="cls-4"/>
    </pattern>
    <pattern id="New_Pattern_Swatch_7-36" width="213" height="213" x="0" y="0" patternTransform="matrix(6.2 0 0 -1 438.3 -70.1)" patternUnits="userSpaceOnUse">
      <path d="M0 0h213v213H0z" class="cls-1"/>
      <path d="M0 0h213v213H0z" class="cls-1"/>
      <path d="M0 0h213v213H0z" class="cls-1"/>
      <path d="M0 0h213v213H0z" class="cls-1"/>
      <path d="M0 0h213v213H0z" class="cls-58"/>
    </pattern>
    <pattern id="New_Pattern_Swatch_7-37" width="213" height="213" x="0" y="0" patternTransform="matrix(6.2 0 0 -1 438.3 -70.1)" patternUnits="userSpaceOnUse">
      <path d="M0 0h213v213H0z" class="cls-1"/>
      <path d="M0 0h213v213H0z" class="cls-1"/>
      <path d="M0 0h213v213H0z" class="cls-1"/>
      <path d="M0 0h213v213H0z" class="cls-1"/>
      <path d="M0 0h213v213H0z" class="cls-58"/>
    </pattern>
    <pattern id="New_Pattern_Swatch_7-38" width="213" height="213" x="0" y="0" patternTransform="matrix(6.2 0 0 -1 438.3 -70.1)" patternUnits="userSpaceOnUse">
      <path d="M0 0h213v213H0z" class="cls-1"/>
      <path d="M0 0h213v213H0z" class="cls-1"/>
      <path d="M0 0h213v213H0z" class="cls-1"/>
      <path d="M0 0h213v213H0z" class="cls-1"/>
      <path d="M0 0h213v213H0z" class="cls-58"/>
    </pattern>
    <pattern id="New_Pattern_Swatch_7-39" width="213" height="213" x="0" y="0" patternTransform="matrix(6.2 0 0 -1 438.3 -70.1)" patternUnits="userSpaceOnUse">
      <path d="M0 0h213v213H0z" class="cls-1"/>
      <path d="M0 0h213v213H0z" class="cls-1"/>
      <path d="M0 0h213v213H0z" class="cls-1"/>
      <path d="M0 0h213v213H0z" class="cls-1"/>
      <path d="M0 0h213v213H0z" class="cls-58"/>
    </pattern>
    <pattern id="New_Pattern_Swatch_7-40" width="213" height="213" x="0" y="0" patternTransform="matrix(6.2 0 0 -1 438.3 -70.1)" patternUnits="userSpaceOnUse">
      <path d="M0 0h213v213H0z" class="cls-1"/>
      <path d="M0 0h213v213H0z" class="cls-1"/>
      <path d="M0 0h213v213H0z" class="cls-1"/>
      <path d="M0 0h213v213H0z" class="cls-1"/>
      <path d="M0 0h213v213H0z" class="cls-58"/>
    </pattern>
    <pattern id="New_Pattern_Swatch_7-41" width="213" height="213" x="0" y="0" patternTransform="matrix(6.2 0 0 -1 438.3 -70.1)" patternUnits="userSpaceOnUse">
      <path d="M0 0h213v213H0z" class="cls-1"/>
      <path d="M0 0h213v213H0z" class="cls-1"/>
      <path d="M0 0h213v213H0z" class="cls-1"/>
      <path d="M0 0h213v213H0z" class="cls-1"/>
      <path d="M0 0h213v213H0z" class="cls-58"/>
    </pattern>
    <pattern xlink:href="#New_Pattern_Swatch_69-2" id="New_Pattern_Swatch_69-2-4" patternTransform="matrix(1 0 0 -1 -129 -82.2)"/>
    <pattern id="New_Pattern_Swatch_5" width="213" height="213" x="0" y="0" patternTransform="matrix(6.2 0 0 1 674.2 175)" patternUnits="userSpaceOnUse">
      <path d="M0 0h213v213H0z" class="cls-1"/>
      <path d="M0 0h213v213H0z" class="cls-1"/>
      <path d="M0 0h213v213H0z" class="cls-1"/>
      <path d="M0 0h213v213H0z" class="cls-58"/>
    </pattern>
    <style>
      .cls-1{fill:none}.cls-2{fill:#6c8698}.cls-3{fill:#3e5856}.cls-4{fill:#2a3238}.cls-5{fill:url(#New_Pattern_Swatch_9-8)}.cls-6{fill:url(#New_Pattern_Swatch_9-6)}.cls-7{fill:url(#New_Pattern_Swatch_9-2)}.cls-8{fill:url(#New_Pattern_Swatch_9-3)}.cls-9{fill:url(#New_Pattern_Swatch_9-9)}.cls-42{fill:#181b24}.cls-43{fill:url(#New_Pattern_Swatch_12)}.cls-44{fill:url(#New_Pattern_Swatch_69)}.cls-45{fill:url(#New_Pattern_Swatch_37)}.cls-46{fill:url(#New_Pattern_Swatch_33)}.cls-47{fill:#80533d}.cls-48{fill:#b26d59}.cls-49{fill:url(#New_Pattern_Swatch_39-12)}.cls-51{fill:url(#New_Pattern_Swatch_33-23)}.cls-52{fill:url(#New_Pattern_Swatch_33-22)}.cls-53{fill:url(#New_Pattern_Swatch_33-20)}.cls-54{fill:url(#New_Pattern_Swatch_33-21)}.cls-55{fill:url(#New_Pattern_Swatch_45-15)}.cls-56{fill:url(#New_Pattern_Swatch_45-13)}.cls-58{fill:#191b24}.cls-59{fill:url(#New_Pattern_Swatch_33-8)}.cls-60{fill:url(#New_Pattern_Swatch_33-4)}.cls-61{fill:url(#New_Pattern_Swatch_33-5)}.cls-62{fill:url(#New_Pattern_Swatch_33-6)}.cls-63{fill:url(#New_Pattern_Swatch_33-7)}.cls-64{fill:url(#New_Pattern_Swatch_2-26)}.cls-65{fill:url(#New_Pattern_Swatch_2-24)}.cls-66{fill:url(#New_Pattern_Swatch_2-23)}.cls-67{fill:url(#New_Pattern_Swatch_2-25)}.cls-77{fill:url(#New_Pattern_Swatch_37-7)}.cls-78{fill:url(#New_Pattern_Swatch_37-4)}.cls-79{fill:url(#New_Pattern_Swatch_37-5)}.cls-80{fill:url(#New_Pattern_Swatch_37-2)}.cls-83{fill:url(#New_Pattern_Swatch_69-2)}.cls-85{fill:url(#New_Pattern_Swatch_9-15)}.cls-86{fill:url(#New_Pattern_Swatch_9-16)}.cls-87{fill:url(#New_Pattern_Swatch_9-14)}.cls-88{fill:url(#New_Pattern_Swatch_9-13)}.cls-89{fill:url(#New_Pattern_Swatch_9-12)}.cls-90{fill:#415e50}.cls-93{fill:url(#New_Pattern_Swatch_9)}.cls-94{fill:url(#New_Pattern_Swatch_5)}
    </style>
  </defs>
  <path d="M844.2-3.2h-71.1v.3H328.6v-.3H133v17.8h17.8v17.8h17.8v17.8h53.3V68h17.8v17.8h17.8v53.3h17.8v17.8h-17.8v71h17.8v35.5h17.8v53.3h-17.8v17.8h17.8v17.8h-17.8v53.3h17.8v17.8h17.8v17.8h17.8V459h-53.3v53.3h17.8v17.8H311v35.5h-17.8v17.8h53.3v17.8H311V619h-17.8v-17.8h-17.8V690H311v88.8h-17.8v17.8h35.5v17.8h-35.5v17.8h-35.6v35.5h-17.8v35.5H222V921h622.2v-17.8h-17.8v-35.5h-17.8v-17.8h-17.8v-17.8H773v-17.8h-17.8v-17.8H773v17.8h17.8v-35.5h17.8V761h17.8v-17.8h-17.8v-53.3h-17.8v-17.8h17.8v-17.8h-71.1v-17.8h53.3v-17.8H773v-17.8h-17.8v-17.8h-53.3v-17.8h17.8v-17.8h71.1V512h17.8v-17.8h17.8V387.6h-17.8v-35.5h17.8v-35.5h-17.8v-71h-17.8v-35.5h35.5v-35.5h-35.5v17.8h-53.3v-17.8h35.6v-17.8h35.5v-35.5h17.8V85.8h17.8V68h16.5V-3h-16.5v-.2Zm0 2565.3h16.5v-71h-16.5v-17.8h-17.8v-35.5h-17.8v-35.5h-35.5v-17.8h-35.6v-17.8h53.3v17.8h35.5V2349h-35.5v-35.5h17.8v-71h17.8V2207h-17.8v-35.5h17.8v-106.6h-17.8v-17.8h-17.8v-35.5h-71.1v-17.8h-17.8V1976h53.3v-17.8H773v-17.8h17.8v-17.8h-53.3v-17.8h71.1V1887h-17.8v-17.8h17.8v-53.3h17.8v-17.8h-17.8v-17.8h-17.8v-35.5H773v17.8h-17.8v-17.8H773V1727h17.8v-17.8h17.8v-17.8h17.8v-35.5h17.8v-17.8H222v17.8h17.8v35.5h17.8v35.5h35.6v17.8h35.5v17.8h-35.5v17.8H311v88.8h-35.6v88.8h17.8v-17.8H311v17.8h35.5v17.8h-53.3v17.8H311v35.5h-17.8v17.8h-17.8v53.3h53.3v17.8h-17.8v17.8h-17.8v17.8h-17.8v53.3h17.8v17.8h-17.8v17.8h17.8v53.3h-17.8v35.5h-17.8v71h17.8v17.8h-17.8v53.3h-17.8v17.8h-17.8v17.8h-53.3v17.8h-17.8v17.8H133v17.8h195.6v-.3h444.5v.3h71.1v-.2Z" class="cls-49"/>
  <path d="M222.2 1829.2h106.4v-.3h444.5v.3h71.1v-.2h16.5v-71h-16.5v-17.8h-17.8v-35.5h-17.8v-35.5h-35.5v-17.8h-35.6v-17.8h53.3v17.8h35.5v-35.5h-35.5v-35.5h17.8v-71h17.8v-35.5h-17.8v-35.5h17.8v-106.6h-17.8V1314h-17.8v-35.5h-71.1v-17.8h-17.8v-17.8h53.3v-17.8H773v-17.8h17.8v-17.8h-53.3v-17.8h71.1v-17.8h-17.8v-17.8h17.8v-53.3h17.8V1065h-17.8v-17.8h-17.8v-35.5H773v17.8h-17.8v-17.8H773v-17.8h17.8v-17.8h17.8v-17.8h17.8v-35.5h17.8V905H222v17.8h17.8v35.5h17.8v35.5h35.6v17.8h35.5v17.8h-35.5v17.8H311v88.8h-35.6v88.8h17.8V1207H311v17.8h35.5v17.8h-53.3v17.8H311v35.5h-17.8v17.8h-17.8v53.3h53.3v17.8h-17.8v17.8h-17.8v17.8h-17.8v53.3h17.8v17.8h-17.8v17.8h17.8v53.3h-17.8v35.5h-17.8v71h17.8v17.8h-17.8v53.3h-17.8v17.8h-17.8v17.8" class="cls-49"/>
  <path d="M-993.5-984.7h1440v2552.1h-1440z" class="cls-1"/>
  <path d="M393.2 571.9H411v17.8h-17.8zm-53.3 0h17.8v17.8h-17.8z" class="cls-46"/>
  <path d="M322.1 554.2h17.8V572h-17.8zm35.6-53.4h17.8v17.8h-17.8zm-35.6-35.6h17.8V483h-17.8zm88.8-17.8h17.8v17.8h-17.8zm-71 0h17.8v17.8h-17.8z" class="cls-46"/>
  <path d="M322.1 447.4h17.8v17.8h-17.8z" class="cls-45"/>
  <path d="M304.4 447.4h17.8v17.8h-17.8zm88.8-17.7H411v17.8h-17.8z" class="cls-46"/>
  <path d="M322.1 429.7h17.8v17.8h-17.8z" class="cls-46"/>
  <path d="M286.6 376.3h17.8v17.8h-17.8z" class="cls-45"/>
  <path d="M357.7 340.8h17.8v17.8h-17.8z" class="cls-46"/>
  <path d="M268.9-32.8v.2h17.8v17.8h17.8v71.1h17.8v17.8h-17.8v53.3h17.8v17.8h17.8v35.6h17.8V163h17.8v17.8h-17.8v53.3h17.8v35.6h-53.3v35.6h-17.8v17.8h17.8v71.1h-17.8V412h-17.8v17.8h-35.5v17.8h17.8v71.1h17.8v17.8h-17.8v17.8h17.8v35.6h35.5v17.8h35.5v16.5h88.8V-46.7H269.1v14.2l-.2-.2v-.1Zm142 604.8v17.8h-17.8V572h17.8Zm-71-17.8V572h17.8v17.8h-17.8V572h-17.8v-17.8h17.8Zm35.5-53.3v17.8h-17.8v-17.8h17.8Zm35.5-71.2v17.8h17.8v17.8h-17.8v-17.8h-17.8v-17.8h17.8Zm-71 0v17.8h17.8v17.8h-17.8v17.8h-17.8v-17.8h-17.8v-17.8h17.8v-17.8h17.8Zm35.5-88.8v17.8h-17.8v-17.8h17.8Zm17.8-35.7V323h-17.8v-17.8h17.8Zm17.7-160V163h17.8v17.8h-17.8V163h-17.8v-17.8h17.8ZM375.4 38.6v17.8h17.8V38.6H411v17.8h-17.8v17.8H411V92h-17.8V74.2h-17.8V92h-17.8V74.2h17.8V56.4h-17.8V38.6h17.8ZM340 2.9v18h-17.8v-18H340Z" class="cls-80"/>
  <path d="M357.4 641.6h-35.5v17.8h-35.6V695h-17.7v17.8h17.7v17.7h-17.7v71.1h-17.8v17.5H304v17.4h17.8v-17.4h53.3v35.1h71v-35.1h.1v-195h-88.8v17.5z" class="cls-78"/>
  <path d="M376.3 853.5h-17.8v17.8l17.8-.1v-17.7z" class="cls-79"/>
  <path d="M268.6 641.6h17.8v17.8h-17.8z" class="cls-77"/>
  <path d="M391.9 657.4h17.8v17.8h-17.8z" class="cls-60"/>
  <path d="M338.6 657.4h17.8v17.8h-17.8z" class="cls-61"/>
  <path d="M320.9 675.2h17.8V693h-17.8z" class="cls-62"/>
  <path d="M409.7 781.8h17.8v17.8h-17.8z" class="cls-63"/>
  <path d="M390.9 799.6h17.8v17.5h-17.8z" class="cls-59"/>
  <path d="M355.8 711.1h17.8v17.8h-17.8z" class="cls-53"/>
  <path d="M373.6 728.8h17.8v17.8h-17.8z" class="cls-54"/>
  <path d="M338.1 728.8h17.8v17.8h-17.8z" class="cls-52"/>
  <path d="M355.8 746.6h17.8v17.5h-17.8z" class="cls-51"/>
  <path d="M-993.5-235.6h1440v2552.1h-1440z" class="cls-1"/>
  <path d="M393.2 1321H411v17.8h-17.8zm-53.3 0h17.8v17.8h-17.8z" class="cls-46"/>
  <path d="M322.1 1303.3h17.8v17.8h-17.8zm35.6-53.4h17.8v17.8h-17.8zm-35.6-35.5h17.8v17.8h-17.8zm88.8-17.8h17.8v17.8h-17.8zm-71 0h17.8v17.8h-17.8z" class="cls-46"/>
  <path d="M322.1 1196.6h17.8v17.8h-17.8z" class="cls-45"/>
  <path d="M304.4 1196.6h17.8v17.8h-17.8zm88.8-17.8H411v17.8h-17.8zm-71.1 0h17.8v17.8h-17.8z" class="cls-46"/>
  <path d="M286.6 1125.5h17.8v17.8h-17.8z" class="cls-45"/>
  <path d="M357.7 1089.9h17.8v17.8h-17.8z" class="cls-46"/>
  <path d="M268.9 716.4v.2h17.8v17.8h17.8v71.1h17.8v17.8h-17.8v53.3h17.8v17.8h17.8V930h17.8v-17.8h17.8V930h-17.8v53.3h17.8v35.6h-53.3v35.6h-17.8v17.8h17.8v71.1h-17.8v17.8h-17.8v17.8h-35.5v17.8h17.8v71.1h17.8v17.8h-17.8v17.8h17.8v35.6h35.5v17.8h35.5v16.5h88.8v-671H269.1v14.2l-.2-.2Zm142 604.7v17.8h-17.8v-17.8h17.8Zm-71-17.8v17.8h17.8v17.8h-17.8v-17.8h-17.8v-17.8h17.8Zm35.5-53.3v17.8h-17.8V1250h17.8Zm35.5-71.2v17.8h17.8v17.8h-17.8v-17.8h-17.8v-17.8h17.8Zm-71 0v17.8h17.8v17.8h-17.8v17.8h-17.8v-17.8h-17.8v-17.8h17.8v-17.8h17.8Zm35.5-88.8v17.8h-17.8V1090h17.8Zm17.8-35.6v17.8h-17.8v-17.8h17.8Zm17.7-160v17.8h17.8V930h-17.8v-17.8h-17.8v-17.8h17.8Zm-35.5-106.7v17.8h17.8v-17.8H411v17.8h-17.8v17.8H411v17.8h-17.8v-17.8h-17.8v17.8h-17.8v-17.8h17.8v-17.8h-17.8v-17.8h17.8ZM340 752v18h-17.8v-18H340Z" class="cls-80"/>
  <path d="M357.4 1390.7h-35.5v17.8h-35.6v35.6h-17.7v17.8h17.7v17.7h-17.7v71.1h-17.8v17.5H304v17.4h17.8v-17.4h53.3v35.1h71v-35.1h.1v-195h-88.8v17.5z" class="cls-78"/>
  <path d="M376.3 1602.6h-17.8v17.8l17.8-.1v-17.7z" class="cls-79"/>
  <path d="M268.6 1390.7h17.8v17.8h-17.8z" class="cls-77"/>
  <path d="M391.9 1406.5h17.8v17.8h-17.8z" class="cls-60"/>
  <path d="M338.6 1406.5h17.8v17.8h-17.8z" class="cls-61"/>
  <path d="M320.9 1424.3h17.8v17.8h-17.8z" class="cls-62"/>
  <path d="M409.7 1530.9h17.8v17.8h-17.8z" class="cls-63"/>
  <path d="M390.9 1548.7h17.8v17.5h-17.8z" class="cls-59"/>
  <path d="M355.8 1460.2h17.8v17.8h-17.8z" class="cls-53"/>
  <path d="M373.6 1477.9h17.8v17.8h-17.8z" class="cls-54"/>
  <path d="M338.1 1477.9h17.8v17.8h-17.8z" class="cls-52"/>
  <path d="M355.8 1495.7h17.8v17.5h-17.8z" class="cls-51"/>
  <path d="M-993.5 630.1h1440v2552.1h-1440z" class="cls-1"/>
  <path d="M393.2 2186.6H411v17.8h-17.8zm-53.3 0h17.8v17.8h-17.8z" class="cls-46"/>
  <path d="M322.1 2168.9h17.8v17.8h-17.8zm35.6-53.4h17.8v17.8h-17.8zm-35.6-35.5h17.8v17.8h-17.8zm88.8-17.8h17.8v17.8h-17.8zm-71 0h17.8v17.8h-17.8z" class="cls-46"/>
  <path d="M322.1 2062.2h17.8v17.8h-17.8z" class="cls-45"/>
  <path d="M304.4 2062.2h17.8v17.8h-17.8zm88.8-17.8H411v17.8h-17.8z" class="cls-46"/>
  <path d="M322.1 2044.4h17.8v17.8h-17.8z" class="cls-46"/>
  <path d="M286.6 1991.1h17.8v17.8h-17.8z" class="cls-45"/>
  <path d="M357.7 1955.5h17.8v17.8h-17.8z" class="cls-46"/>
  <path d="M268.9 1582v.2h17.8v17.8h17.8v71.1h17.8v17.8h-17.8v53.3h17.8v17.8h17.8v35.6h17.8v-17.8h17.8v17.8h-17.8v53.3h17.8v35.6h-53.3v35.6h-17.8v17.8h17.8v71.1h-17.8v17.8h-17.8v17.8h-35.5v17.8h17.8v71.1h17.8v17.8h-17.8v17.8h17.8v35.6h35.5v17.8h35.5v16.5h88.8v-671H269.1v14.2l-.2-.2Zm142 604.7v17.8h-17.8v-17.8h17.8Zm-71-17.8v17.8h17.8v17.8h-17.8v-17.8h-17.8v-17.8h17.8Zm35.5-53.3v17.8h-17.8v-17.8h17.8Zm35.5-71.2v17.8h17.8v17.8h-17.8v-17.8h-17.8v-17.8h17.8Zm-71 0v17.8h17.8v17.8h-17.8v17.8h-17.8V2080h-17.8v-17.8h17.8v-17.8h17.8Zm35.5-88.8v17.8h-17.8v-17.8h17.8Zm17.8-35.6v17.8h-17.8V1920h17.8Zm17.7-160v17.8h17.8v17.8h-17.8v-17.8h-17.8V1760h17.8Zm-35.5-106.7v17.8h17.8v-17.8H411v17.8h-17.8v17.8H411v17.8h-17.8v-17.8h-17.8v17.8h-17.8v-17.8h17.8v-17.8h-17.8v-17.8h17.8Zm-35.4-35.7v18h-17.8v-18H340Z" class="cls-80"/>
  <path d="M357.4 2256.3h-35.5v17.8h-35.6v35.6h-17.7v17.8h17.7v17.7h-17.7v71.1h-17.8v17.5H304v17.4h17.8v-17.4h53.3v35.1h71v-35.1h.1v-195h-88.8v17.5z" class="cls-78"/>
  <path d="M376.3 2468.2h-17.8v17.8l17.8-.1v-17.7z" class="cls-79"/>
  <path d="M268.6 2256.3h17.8v17.8h-17.8z" class="cls-77"/>
  <path d="M391.9 2272.1h17.8v17.8h-17.8z" class="cls-60"/>
  <path d="M338.6 2272.1h17.8v17.8h-17.8z" class="cls-61"/>
  <path d="M320.9 2289.9h17.8v17.8h-17.8z" class="cls-62"/>
  <path d="M409.7 2396.5h17.8v17.8h-17.8z" class="cls-63"/>
  <path d="M390.9 2414.3h17.8v17.5h-17.8z" class="cls-59"/>
  <path d="M355.8 2325.8h17.8v17.8h-17.8z" class="cls-53"/>
  <path d="M373.6 2343.5h17.8v17.8h-17.8z" class="cls-54"/>
  <path d="M338.1 2343.5h17.8v17.8h-17.8z" class="cls-52"/>
  <path d="M355.8 2361.3h17.8v17.5h-17.8z" class="cls-51"/>
  <path d="M-993.5 1462h1440v2552.1h-1440z" class="cls-1"/>
  <path d="M268.9 2413.9v.2h17.8v17.8h17.8v71.1h17.8v17.8h-17.8v53.3h17.8v17.8h17.8v35.6h17.8v-17.8h17.8v17.8h-17.8v53.3h17.8v35.6h-53.3v35.6h-17.8v17.8h17.8v71.1h-17.8v17.8h-17.8v17.8h-35.5v17.8h17.8v71.1h17.8v17.8h-17.8v17.8h17.8v35.6h35.5v17.8h35.5v16.5h88.8v-671H269.1v14.2l-.2-.2Zm142 604.7v17.8h-17.8v-17.8h17.8Zm-71-17.8v17.8h17.8v17.8h-17.8v-17.8h-17.8v-17.8h17.8Zm35.5-53.3v17.8h-17.8v-17.8h17.8Zm35.5-71.2v17.8h17.8v17.8h-17.8v-17.8h-17.8v-17.8h17.8Zm-71 0v17.8h17.8v17.8h-17.8v17.8h-17.8v-17.8h-17.8v-17.8h17.8v-17.8h17.8Zm35.5-88.8v17.8h-17.8v-17.8h17.8Zm17.8-35.6v17.8h-17.8v-17.8h17.8Zm17.7-160v17.8h17.8v17.8h-17.8v-17.8h-17.8v-17.8h17.8Zm-35.5-106.7v17.8h17.8v-17.8H411v17.8h-17.8v17.8H411v17.8h-17.8v-17.8h-17.8v17.8h-17.8v-17.8h17.8V2503h-17.8v-17.8h17.8Zm-35.4-35.7v18h-17.8v-18H340Z" class="cls-80"/>
  <path d="M628.7-984.7h1440v2552.1h-1440z" class="cls-1"/>
  <path d="M664.2 571.9H682v17.8h-17.8zm53.3 0h17.8v17.8h-17.8zm17.8-17.7h17.8V572h-17.8zm-35.6-53.5h17.8v17.8h-17.8zm35.6-35.5h17.8V483h-17.8zm-88.8-17.8h17.8v17.8h-17.8zm71 0h17.8v17.8h-17.8z" class="cls-46"/>
  <path d="M735.3 447.4h17.8v17.8h-17.8z" class="cls-45"/>
  <path d="M753 447.4h17.8v17.8H753zm-88.8-17.7H682v17.8h-17.8z" class="cls-46"/>
  <path d="M735.3 429.7h17.8v17.8h-17.8z" class="cls-46"/>
  <path d="M770.8 376.3h17.8v17.8h-17.8z" class="cls-45"/>
  <path d="M699.7 340.7h17.8v17.8h-17.8z" class="cls-46"/>
  <path d="M806.1-32.5v-14.2H628.5v671h88.8v-16.5h35.5V590h35.5v-35.6h17.8v-17.8h-17.8v-17.8h17.8v-71.1h17.8v-17.8h-35.5v-17.8h-17.8v-17.8h-17.8v-71.1h17.8v-17.8h-17.8v-35.6h-53.3v-35.6h17.8v-53.3h-17.8v-17.8h17.8v17.8h17.8v-35.6h17.8v-17.8h17.8V74.2h-17.8V56.4h17.8v-71.1h17.8v-17.8h17.8v-.2l-.2.2ZM682.1 572v17.8h-17.8V572h17.8Zm71-17.8V572h-17.8v17.8h-17.8V572h17.8v-17.8h17.8Zm-35.5-53.3v17.8h-17.8v-17.8h17.8Zm-35.5-71.2v17.8h-17.8v17.8h-17.8v-17.8h17.8v-17.8h17.8Zm71 0v17.8h17.8v17.8h-17.8v17.8h-17.8v-17.8h-17.8v-17.8h17.8v-17.8h17.8Zm-35.5-88.8v17.8h-17.8v-17.8h17.8Zm-17.8-35.7V323H682v-17.8h17.8Zm-17.7-160V163h-17.8v17.8h-17.8V163h17.8v-17.8h17.8Zm35.5-106.6v17.8h-17.8v17.8h17.8V92h-17.8V74.2H682V92h-17.8V74.2H682V56.4h-17.8V38.6H682v17.8h17.8V38.6h17.8Zm17.6-35.7H753v18h-17.8v-18Z" class="cls-80"/>
  <path d="M717.8 624.1H629v195h.1v35.1h71v-35.1h53.3v17.4h17.8v-17.4h53.2v-17.5h-17.8v-71.1h-17.7v-17.7h17.7V695h-17.7v-35.6h-35.6v-17.8h-35.5v-17.5z" class="cls-78"/>
  <path d="m698.9 871.2 17.8.1v-17.8h-17.8v17.7z" class="cls-79"/>
  <path d="M788.8 641.6h17.8v17.8h-17.8z" class="cls-77"/>
  <path d="M665.5 657.4h17.8v17.8h-17.8z" class="cls-60"/>
  <path d="M718.8 657.4h17.8v17.8h-17.8z" class="cls-61"/>
  <path d="M736.5 675.2h17.8V693h-17.8z" class="cls-62"/>
  <path d="M647.7 781.8h17.8v17.8h-17.8z" class="cls-63"/>
  <path d="M666.5 799.6h17.8v17.5h-17.8z" class="cls-59"/>
  <path d="M701.6 711.1h17.8v17.8h-17.8z" class="cls-53"/>
  <path d="M683.8 728.8h17.8v17.8h-17.8z" class="cls-54"/>
  <path d="M719.3 728.8h17.8v17.8h-17.8z" class="cls-52"/>
  <path d="M701.6 746.6h17.8v17.5h-17.8z" class="cls-51"/>
  <path d="M628.7-235.6h1440v2552.1h-1440z" class="cls-1"/>
  <path d="M664.2 1321H682v17.8h-17.8zm53.3 0h17.8v17.8h-17.8zm17.8-17.7h17.8v17.8h-17.8zm-35.6-53.4h17.8v17.8h-17.8zm35.6-35.5h17.8v17.8h-17.8zm-88.8-17.8h17.8v17.8h-17.8zm71 0h17.8v17.8h-17.8z" class="cls-46"/>
  <path d="M735.3 1196.6h17.8v17.8h-17.8z" class="cls-45"/>
  <path d="M753 1196.6h17.8v17.8H753zm-88.8-17.8H682v17.8h-17.8zm71.1 0h17.8v17.8h-17.8z" class="cls-46"/>
  <path d="M770.8 1125.5h17.8v17.8h-17.8z" class="cls-45"/>
  <path d="M699.7 1089.9h17.8v17.8h-17.8z" class="cls-46"/>
  <path d="M806.1 716.6v-14.2H628.5v671h88.8v-16.5h35.5v-17.8h35.5v-35.6h17.8v-17.8h-17.8v-17.8h17.8v-71.1h17.8V1179h-35.5v-17.8h-17.8v-17.8h-17.8v-71.1h17.8v-17.8h-17.8v-35.6h-53.3v-35.6h17.8V930h-17.8v-17.8h17.8V930h17.8v-35.6h17.8v-17.8h17.8v-53.3h-17.8v-17.8h17.8v-71.1h17.8v-17.8h17.8v-.2l-.2.2Zm-124 604.5v17.8h-17.8v-17.8h17.8Zm71-17.8v17.8h-17.8v17.8h-17.8v-17.8h17.8v-17.8h17.8Zm-35.5-53.3v17.8h-17.8V1250h17.8Zm-35.5-71.2v17.8h-17.8v17.8h-17.8v-17.8h17.8v-17.8h17.8Zm71 0v17.8h17.8v17.8h-17.8v17.8h-17.8v-17.8h-17.8v-17.8h17.8v-17.8h17.8Zm-35.5-88.8v17.8h-17.8V1090h17.8Zm-17.8-35.6v17.8H682v-17.8h17.8Zm-17.7-160v17.8h-17.8V930h-17.8v-17.8h17.8v-17.8h17.8Zm35.5-106.7v17.8h-17.8v17.8h17.8v17.8h-17.8v-17.8H682v17.8h-17.8v-17.8H682v-17.8h-17.8v-17.8H682v17.8h17.8v-17.8h17.8Zm17.6-35.7H753v18h-17.8v-18Z" class="cls-80"/>
  <path d="M717.8 1373.2H629v195h.1v35.1h71v-35.1h53.3v17.4h17.8v-17.4h53.2v-17.5h-17.8v-71.1h-17.7v-17.7h17.7v-17.8h-17.7v-35.6h-35.6v-17.8h-35.5v-17.5z" class="cls-78"/>
  <path d="m698.9 1620.3 17.8.1v-17.8h-17.8v17.7z" class="cls-79"/>
  <path d="M788.8 1390.7h17.8v17.8h-17.8z" class="cls-77"/>
  <path d="M665.5 1406.5h17.8v17.8h-17.8z" class="cls-60"/>
  <path d="M718.8 1406.5h17.8v17.8h-17.8z" class="cls-61"/>
  <path d="M736.5 1424.3h17.8v17.8h-17.8z" class="cls-62"/>
  <path d="M647.7 1530.9h17.8v17.8h-17.8z" class="cls-63"/>
  <path d="M666.5 1548.7h17.8v17.5h-17.8z" class="cls-59"/>
  <path d="M701.6 1460.2h17.8v17.8h-17.8z" class="cls-53"/>
  <path d="M683.8 1477.9h17.8v17.8h-17.8z" class="cls-54"/>
  <path d="M719.3 1477.9h17.8v17.8h-17.8z" class="cls-52"/>
  <path d="M701.6 1495.7h17.8v17.5h-17.8z" class="cls-51"/>
  <path d="M628.7 630.1h1440v2552.1h-1440z" class="cls-1"/>
  <path d="M664.2 2186.6H682v17.8h-17.8zm53.3 0h17.8v17.8h-17.8zm17.8-17.7h17.8v17.8h-17.8zm-35.6-53.4h17.8v17.8h-17.8zm35.6-35.5h17.8v17.8h-17.8zm-88.8-17.8h17.8v17.8h-17.8zm71 0h17.8v17.8h-17.8z" class="cls-46"/>
  <path d="M735.3 2062.2h17.8v17.8h-17.8z" class="cls-45"/>
  <path d="M753 2062.2h17.8v17.8H753zm-88.8-17.8H682v17.8h-17.8z" class="cls-46"/>
  <path d="M735.3 2044.4h17.8v17.8h-17.8z" class="cls-46"/>
  <path d="M770.8 1991.1h17.8v17.8h-17.8z" class="cls-45"/>
  <path d="M699.7 1955.5h17.8v17.8h-17.8z" class="cls-46"/>
  <path d="M806.1 1582.2V1568H628.5v671h88.8v-16.5h35.5v-17.8h35.5v-35.6h17.8v-17.8h-17.8v-17.8h17.8v-71.1h17.8v-17.8h-35.5v-17.8h-17.8V2009h-17.8v-71.1h17.8v-17.8h-17.8v-35.6h-53.3v-35.6h17.8v-53.3h-17.8v-17.8h17.8v17.8h17.8V1760h17.8v-17.8h17.8v-53.3h-17.8v-17.8h17.8V1600h17.8v-17.8h17.8v-.2l-.2.2Zm-124 604.5v17.8h-17.8v-17.8h17.8Zm71-17.8v17.8h-17.8v17.8h-17.8v-17.8h17.8v-17.8h17.8Zm-35.5-53.3v17.8h-17.8v-17.8h17.8Zm-35.5-71.2v17.8h-17.8v17.8h-17.8v-17.8h17.8v-17.8h17.8Zm71 0v17.8h17.8v17.8h-17.8v17.8h-17.8V2080h-17.8v-17.8h17.8v-17.8h17.8Zm-35.5-88.8v17.8h-17.8v-17.8h17.8Zm-17.8-35.6v17.8H682V1920h17.8Zm-17.7-160v17.8h-17.8v17.8h-17.8v-17.8h17.8V1760h17.8Zm35.5-106.7v17.8h-17.8v17.8h17.8v17.8h-17.8v-17.8H682v17.8h-17.8v-17.8H682v-17.8h-17.8v-17.8H682v17.8h17.8v-17.8h17.8Zm17.6-35.7H753v18h-17.8v-18Z" class="cls-80"/>
  <path d="M717.8 2238.8H629v195h.1v35.1h71v-35.1h53.3v17.4h17.8v-17.4h53.2v-17.5h-17.8v-71.1h-17.7v-17.7h17.7v-17.8h-17.7v-35.6h-35.6v-17.8h-35.5v-17.5z" class="cls-78"/>
  <path d="m698.9 2485.9 17.8.1v-17.8h-17.8v17.7z" class="cls-79"/>
  <path d="M788.8 2256.3h17.8v17.8h-17.8z" class="cls-77"/>
  <path d="M665.5 2272.1h17.8v17.8h-17.8z" class="cls-60"/>
  <path d="M718.8 2272.1h17.8v17.8h-17.8z" class="cls-61"/>
  <path d="M736.5 2289.9h17.8v17.8h-17.8z" class="cls-62"/>
  <path d="M647.7 2396.5h17.8v17.8h-17.8z" class="cls-63"/>
  <path d="M666.5 2414.3h17.8v17.5h-17.8z" class="cls-59"/>
  <path d="M701.6 2325.8h17.8v17.8h-17.8z" class="cls-53"/>
  <path d="M683.8 2343.5h17.8v17.8h-17.8z" class="cls-54"/>
  <path d="M719.3 2343.5h17.8v17.8h-17.8z" class="cls-52"/>
  <path d="M701.6 2361.3h17.8v17.5h-17.8z" class="cls-51"/>
  <path d="M540 722.6h1440v2552.1H540z" class="cls-1"/>
  <path d="M575.5 2279.1h17.8v17.8h-17.8zm53.3 0h17.8v17.8h-17.8zm17.8-17.7h17.8v17.8h-17.8zM611 2208h17.8v17.8H611zm35.6-35.5h17.8v17.8h-17.8zm-88.8-17.8h17.8v17.8h-17.8zm71 0h17.8v17.8h-17.8z" class="cls-46"/>
  <path d="M646.6 2154.7h17.8v17.8h-17.8z" class="cls-45"/>
  <path d="M664.3 2154.7h17.8v17.8h-17.8zm-88.8-17.8h17.8v17.8h-17.8z" class="cls-46"/>
  <path d="M646.6 2136.9h17.8v17.8h-17.8z" class="cls-46"/>
  <path d="M682.1 2083.6h17.8v17.8h-17.8z" class="cls-45"/>
  <path d="M611 2048h17.8v17.8H611z" class="cls-46"/>
  <path d="M717.4 1674.7v-14.2H539.8v671h88.8V2315h35.5v-17.8h35.5v-35.6h17.8v-17.8h-17.8V2226h17.8v-71.1h17.8v-17.8h-35.5v-17.8h-17.8v-17.8h-17.8v-71.1h17.8v-17.8h-17.8V1977h-53.3v-35.6h17.8v-53.3h-17.8v-17.8h17.8v17.8h17.8v-35.6h17.8v-17.8H682v-53.3h-17.8v-17.8H682v-71.1h17.8v-17.8h17.8v-.2l-.2.2Zm-124 604.5v17.8h-17.8v-17.8h17.8Zm71-17.8v17.8h-17.8v17.8h-17.8v-17.8h17.8v-17.8h17.8Zm-35.5-53.3v17.8h-17.8v-17.8h17.8Zm-35.5-71.2v17.8h-17.8v17.8h-17.8v-17.8h17.8v-17.8h17.8Zm71 0v17.8h17.8v17.8h-17.8v17.8h-17.8v-17.8h-17.8v-17.8h17.8v-17.8h17.8Zm-35.5-88.8v17.8h-17.8v-17.8h17.8Zm-17.8-35.6v17.8h-17.8v-17.8h17.8Zm-17.7-160v17.8h-17.8v17.8h-17.8v-17.8h17.8v-17.8h17.8Zm35.5-106.7v17.8h-17.8v17.8h17.8v17.8h-17.8v-17.8h-17.8v17.8h-17.8v-17.8h17.8v-17.8h-17.8v-17.8h17.8v17.8h17.8v-17.8h17.8Zm17.6-35.7h17.8v18h-17.8v-18Z" class="cls-83"/>
  <path d="M629.1 2331.3h-88.8v195h.1v35.1h71v-35.1h53.3v17.4h17.8v-17.4h53.2v-17.5h-17.8v-71.1h-17.7V2420h17.7v-17.8h-17.7v-35.6h-35.6v-17.8h-35.5v-17.5z" style="fill:url(#New_Pattern_Swatch_69-2-2)"/>
  <path d="m610.2 2578.4 17.8.1v-17.8h-17.8v17.7z" class="cls-79"/>
  <path d="M700.1 2348.8h17.8v17.8h-17.8z" class="cls-77"/>
  <path d="M576.8 2364.6h17.8v17.8h-17.8z" class="cls-60"/>
  <path d="M630.1 2364.6h17.8v17.8h-17.8z" class="cls-61"/>
  <path d="M647.8 2382.4h17.8v17.8h-17.8z" class="cls-62"/>
  <path d="M559 2489h17.8v17.8H559z" class="cls-63"/>
  <path d="M577.8 2506.8h17.8v17.5h-17.8z" class="cls-59"/>
  <path d="M612.9 2418.3h17.8v17.8h-17.8z" class="cls-53"/>
  <path d="M595.1 2436h17.8v17.8h-17.8z" class="cls-54"/>
  <path d="M630.6 2436h17.8v17.8h-17.8z" class="cls-52"/>
  <path d="M612.9 2453.8h17.8v17.5h-17.8z" class="cls-51"/>
  <path d="M628.7 1462h1440v2552.1h-1440z" class="cls-1"/>
  <path d="M806.1 2414.1v-14.2H628.5v671h88.8v-16.5h35.5v-17.8h35.5V3001h17.8v-17.8h-17.8v-17.8h17.8v-71.1h17.8v-17.8h-35.5v-17.8h-17.8v-17.8h-17.8v-71.1h17.8V2752h-17.8v-35.6h-53.3v-35.6h17.8v-53.3h-17.8v-17.8h17.8v17.8h17.8v-35.6h17.8v-17.8h17.8v-53.3h-17.8V2503h17.8v-71.1h17.8v-17.8h17.8v-.2l-.2.2Zm-124 604.5v17.8h-17.8v-17.8h17.8Zm71-17.8v17.8h-17.8v17.8h-17.8v-17.8h17.8v-17.8h17.8Zm-35.5-53.3v17.8h-17.8v-17.8h17.8Zm-35.5-71.2v17.8h-17.8v17.8h-17.8v-17.8h17.8v-17.8h17.8Zm71 0v17.8h17.8v17.8h-17.8v17.8h-17.8v-17.8h-17.8v-17.8h17.8v-17.8h17.8Zm-35.5-88.8v17.8h-17.8v-17.8h17.8Zm-17.8-35.6v17.8H682v-17.8h17.8Zm-17.7-160v17.8h-17.8v17.8h-17.8v-17.8h17.8v-17.8h17.8Zm35.5-106.7v17.8h-17.8v17.8h17.8v17.8h-17.8v-17.8H682v17.8h-17.8v-17.8H682V2503h-17.8v-17.8H682v17.8h17.8v-17.8h17.8Zm17.6-35.7H753v18h-17.8v-18Z" class="cls-80"/>
  <path d="M222.1 570.7h17.8v17.8h-17.8z" class="cls-66"/>
  <path d="M239.9 588.5h17.8v17.8h-17.8z" class="cls-65"/>
  <path d="M239.9 553h17.8v17.8h-17.8z" class="cls-67"/>
  <path d="M257.7 570.7h17.8v17.8h-17.8z" class="cls-64"/>
  <path d="M257.7 624v-17.7h-17.8v35.5h17.8v17.7h17.7V624h-17.7z" class="cls-56"/>
  <path d="M293.2 606.3h-17.8V624H311v-35.5h-17.8v17.8z" class="cls-55"/>
  <path d="M773 1744.8h17.8v17.8H773z" class="cls-66"/>
  <path d="M790.8 1762.6h17.8v17.8h-17.8z" class="cls-65"/>
  <path d="M790.8 1727.1h17.8v17.8h-17.8z" class="cls-67"/>
  <path d="M808.6 1744.8h17.8v17.8h-17.8z" class="cls-64"/>
  <path d="M808.6 1798.1v-17.7h-17.8v35.5h17.8v17.7h17.7v-35.5h-17.7z" class="cls-56"/>
  <path d="M844.1 1780.4h-17.8v17.7h35.6v-35.5h-17.8v17.8z" class="cls-55"/>
  <path d="M188.4 1744.8h17.8v17.8h-17.8z" class="cls-66"/>
  <path d="M206.2 1762.6H224v17.8h-17.8z" class="cls-65"/>
  <path d="M206.2 1727.1H224v17.8h-17.8z" class="cls-67"/>
  <path d="M224 1744.8h17.8v17.8H224z" class="cls-64"/>
  <path d="M224 1798.1v-17.7h-17.8v35.5H224v17.7h17.7v-35.5H224z" class="cls-56"/>
  <path d="M259.5 1780.4h-17.8v17.7h35.6v-35.5h-17.8v17.8z" class="cls-55"/>
  <path d="M500.3 163h-71.1v-17.8h-17.8v-17.7h-17.7v-17.7h-17.8V92h-53.3v17.8H287v35.4h-53.3v-35.4h-17.8V92h-53.3v17.8H127v124.3h17.8v17.8h17.8v53.2h17.7v53.2h-17.7v17.9h-53.4v-35.5H91.4v-35.6H38.1v35.6h17.8v17.6h17.8V394h17.7v17.7h106.7V394h35.6v71h-17.8v53.2h53.3V465H287v-53.3h17.8V394h17.8v35.5h17.7V465h-17.7v53.2h53.3V394h17.8v17.7h35.5v17.8H447V465h-17.8v53.2h53.4v-71h17.7v-17.7h35.6v17.7h17.8V465h-17.8v53.2h53.3V340.7h-17.8v-53.4h17.8v17.8H607v17.7h17.8v-35.5H607v-17.7h-17.8v-17.7h-17.8v-17.8h-35.5v-35.5h-17.8v-17.8h-17.8V163z" style="fill:url(#New_Pattern_Swatch_7-32)"/>
  <path d="M127 320.8h17.8v17.8H127z" style="fill:url(#New_Pattern_Swatch_7-34)"/>
  <path d="M144.8 303.1h17.8v17.8h-17.8z" style="fill:url(#New_Pattern_Swatch_7-35)"/>
  <path d="M419.8-76.3h239v2673.6h-239z" class="cls-78"/>
  <path d="M-2061.6 1408.4H490.5v1440h-2552.1z" class="cls-1"/>
  <path d="M499.2 2830v-671.4l.1-177.8v-572.4l-17.2-.6h-89v17.8h17.8v17.8h17.8v77.4h-17.6v17.8h17.6v118.2h-17.8v-35.6h-17.8v-17.8h-17.8v-17.8h-35.6V1550h-17.8v-17.8h-17.8v-35.6h-17.8v-53.3h-17.8v53.3h-35.6v17.8h35.6v17.8h17.8v17.8h17.8v35.6h17.8v17.8h17.8v17.8h17.8v17.8h17.8v35.6h17.8v17.8h17.8v17.8h17.8v88.9h17.8v178h-17.8v35.6h-17.8v17.8h-35.6v17.8h17.8v17.8h17.8v17.8h-17.8v17.8h-17.8v-17.8h-53.4v-17.8h-17.8v35.6h53.4v17.8h17.8v17.8h17.8v213.5h-17.8v53.3h-17.8v35.6h-17.8v53.4h-17.8v71.2h-17.8v71.2h-17.8v35.6h-17.8v53.3h-17.8v35.6h-17.8v89h265.8v-17.8h.2l.3-1.2Zm-194.5.1v-17.8h-17.8v17.8h-17.8v-17.8h17.8v-17.8h-17.8v-17.8h17.8v17.8h17.8v-17.8h17.8v53.4h-17.8Zm88.8-320h-17.8v17.8h-17.8v-17.8h17.8v-17.8h-17.8v-17.8h17.8v17.8h17.8v-17.8h17.8v17.8h-17.8v17.8h17.8v17.8h-17.8v-17.8Zm35.7 160v-17.8h-17.8v17.8h-17.8v-17.8h17.8v-17.8h-17.8v-17.8h17.8v17.8h17.8v-17.8H447v17.8h-17.8v17.8H447v17.8h-17.8Zm17.7-266.7v-17.8h-17.8v17.8h-17.8v-17.8h17.8v-17.8h-17.8V2350h17.8v17.8h17.8V2350h17.8v17.8h-17.8v17.8h17.8v17.8h-17.8Z" class="cls-83"/>
  <path d="M446.9 2385.6h17.8v17.8h-17.8z" class="cls-7"/>
  <path d="M446.9 2350.1h17.8v17.8h-17.8z" class="cls-8"/>
  <path d="M429.1 2367.9h17.8v17.8h-17.8z" class="cls-6"/>
  <path d="M411.3 2385.6h17.8v17.8h-17.8z" class="cls-5"/>
  <path d="M411.3 2350.1h17.8v17.8h-17.8z" class="cls-9"/>
  <path d="M393.5 2510.1h17.8v17.8h-17.8z" class="cls-89"/>
  <path d="M393.5 2474.5h17.8v17.8h-17.8z" class="cls-88"/>
  <path d="M375.7 2492.3h17.8v17.8h-17.8z" class="cls-87"/>
  <path d="M358 2510.1h17.8v17.8H358z" class="cls-85"/>
  <path d="M357.9 2474.5h17.8v17.8h-17.8z" class="cls-86"/>
  <path d="M673.8 1413.4h2552.1v1440H673.8z" class="cls-1"/>
  <path d="M771.2 2177.9v-35.6H789v-17.8h17.8v-17.8h53.4v-35.6h-17.8v17.8H789v17.8h-17.8v-17.8h-17.8v-17.8h17.8v-17.8H789v-17.8h-35.6v-17.8h-17.8v-35.6h-17.8v-178h17.8v-88.9h17.8v-17.8h17.8v-17.8H789V1644h17.8v-17.8h17.8v-17.8h17.8v-17.8h17.8V1555H878v-17.8h17.8v-17.8h35.6v-17.8h-35.6v-53.3H878v53.3h-17.8v35.6h-17.8v17.8h-17.8v35.6H789v17.8h-17.8v17.8h-17.8v35.6h-17.8v-118.2h17.6v-17.8h-17.6v-77.4h17.8v-17.8h17.8v-17.8h-89l-17.2.6v764.4" style="fill:url(#New_Pattern_Swatch_69-2-3)"/>
  <path d="M699.6 2390.6h17.8v17.8h-17.8z" class="cls-7"/>
  <path d="M699.6 2355.1h17.8v17.8h-17.8z" class="cls-8"/>
  <path d="M717.4 2372.9h17.8v17.8h-17.8z" class="cls-6"/>
  <path d="M735.2 2390.6H753v17.8h-17.8z" class="cls-5"/>
  <path d="M735.2 2355.1H753v17.8h-17.8z" class="cls-9"/>
  <path d="M753 2515.1h17.8v17.8H753z" class="cls-89"/>
  <path d="M753 2479.5h17.8v17.8H753z" class="cls-88"/>
  <path d="M770.8 2497.3h17.8v17.8h-17.8z" class="cls-87"/>
  <path d="M788.5 2515.1h17.8v17.8h-17.8z" class="cls-85"/>
  <path d="M788.6 2479.5h17.8v17.8h-17.8z" class="cls-86"/>
  <path d="M747.2 19.4v142.1H765V-16.1h-17.8v35.5zM765 605.5V445.7h35.6l-.6-17.2 18.3-.6v-17.7h17.8v-35.6h17.8v-53.3h17.8v-17.7h-53.4v35.5h17.8v17.8h-17.8v35.5h-17.7v17.8h-17.8v17.7H765v-88.8h-17.8v124.3h-17.8v35.5h17.8v124.4H765v-17.8zm-35.6 142.1v-17.7h17.8V641h-17.8v71.1h-17.7v53.3h-17.8v53.3h-17.8v53.2h17.8v-35.5h17.8v-53.2h17.7v-35.6z" class="cls-43"/>
  <path d="M711.7 321.3H765v17.8h35.6v-17.8h-17.8v-17.7H765v-71.1h-17.8v71.1h-17.8v-17.8h-35.5v17.8h17.8v17.7zm0 213.2h17.7v-35.6h-17.7v17.8h-17.8v35.5h17.8v-17.7zm-35.6-266.4h-17.8v17.7h35.6v-17.7h-17.8z" class="cls-43"/>
  <path d="M658.3 1102.9h17.8v17.8h-17.8zm0-390.8h17.8v17.8h-17.8zm0-284.2h17.8v17.8h-17.8z" class="cls-93"/>
  <path d="M640.6 250.3h17.8v17.8h-17.8zm0 426.3v-17.8h17.7v-35.5h17.8v-35.5h17.8v-35.6h-17.8V570h-17.8v35.5h-17.7V641h-17.8v53.3h17.8v-17.7z" class="cls-43"/>
  <path d="M987.2 756.5h-35.5v-17.8h-17.8v-35.5l-.3-35.2-17.5-.3V721h-17.8v17.7h-35.5v17.8H845v17.8h-35.6v-17.8h17.8v-71.1h-17.8v53.3h-17.7v35.6h-35.6v35.5h-17.8V792h-35.5v17.8h17.7v35.5h53.4v-17.8h106.6v17.8h53.4v-17.8h-35.6V792h17.8l.3-18.1 70.8.4h17.8v-17.8h-17.8z" class="cls-44"/>
  <path d="M836.1 1351.5v-17.8h-17.8v-35.5h-17.8v-35.5h-17.8v-53.3h-17.8v-71.1h-35.6v-17.8h-17.8v-17.8h17.8v-17.8h-17.8v-17.8h17.8v-17.8h17.8v-17.8h-17.8v-17.8h17.8v-17.8h-17.8v-88.8h17.8v-17.8h17.8v-35.5h35.6V836h-17.8v-17.8h-53.3v-35.5h-17.8V836h-17.8v35.5H676v-53.3h17.8v-53.3h17.8V640.6h35.6v-53.3h-71.1v35.5h-17.8v35.5h-17.8v35.5h-17.7v195.4h17.8v-17.8h35.5v17.8h-17.8V907h-35.5v515.1h231.1v-53.3h-17.8V1351v.5ZM658.3 765.4v-17.8h-17.8v-17.8h17.8V712h17.8v17.8h17.8v17.8h-17.8v17.8h-17.8Zm17.8 390.7h-17.8v-17.8h-17.8v-17.8h17.8v-17.8h17.8v17.8h-17.8v17.8h17.8v17.8Zm17.8-17.7h-17.8v-17.8h17.8v17.8Zm71.1 195.4h-17.8v17.8h-17.8v-17.8h-17.8V1316h17.8v-17.8h17.8v17.8H765v17.8Z" class="cls-83"/>
  <path d="M800.6 268.1v-17.8h17.7v-35.5h17.8V197h17.8v-35.5h17.8V1.6h-17.8v17.8h-17.8v142.1h-17.8V197h-17.7v17.8H765v53.3h35.6zm-142.3 0h35.6v17.7h35.5v17.8h17.8v-53.3h-71.1V90.5h17.8V19.4h-17.8v17.8h-17.8v-53.3h-35.5v230.9h17.8v35.5h17.7v17.8z" class="cls-44"/>
  <path d="M640.6 623.3v-17.8h17.7V570h17.8v-17.8h17.8v-88.8h-17.8v17.8h-17.8v-17.8h-17.7v-17.7h17.7v-17.8h17.8v17.8h17.8v17.7h17.8v-17.7h35.5v-53.3h-53.3v-35.5h-17.8v-53.3h17.8v-17.8h-35.6v-17.7h-17.7v-17.8h-17.8V641h17.8v-17.7z" class="cls-44"/>
  <path d="M640.6 232.5v-17.7h-17.8v35.5h17.8v-17.8zM397.9 8.7v-24.8h-17.8v248.6h17.8V8.7zm-17.8 614.6h17.8V498.9h17.8v-35.5h-17.8V339.1h-17.8v88.8h-17.8v-17.7h-17.8v-17.8h-17.7v-35.5H309v-17.8h17.8v-35.5h-53.4v17.7h17.8v53.3H309v35.6h17.8v17.7l18.3.6-.6 17.2h35.6v177.6zm35.6 142.1v17.8h17.7v53.2h17.8v35.5H469v-53.2h-17.8v-53.3h-17.8v-53.3h-17.7V641h-17.8v88.9h17.8v35.5z" class="cls-43"/>
  <path d="M433.4 303.6h17.8v-17.8h-35.5v17.8h-17.8v-71.1h-17.8v71.1h-17.8v17.7h-17.8v17.8h35.6v-17.8h53.3v-17.7zm0 248.6h17.8v-35.5h-17.8v-17.8h-17.7v35.6h17.7v17.7zm17.8-284.1v17.7h35.6v-17.7h-35.6z" class="cls-43"/>
  <path d="M469 1102.9h17.8v17.8H469zm0-390.8h17.8v17.8H469zm0-284.2h17.8v17.8H469z" class="cls-93"/>
  <path d="M486.7 250.3h17.8v17.8h-17.8zm17.8 444h17.8V641h-17.8v-35.5h-17.7V570H469v-17.8h-17.8v35.6H469v35.5h17.8v35.5h17.7v35.5z" class="cls-43"/>
  <path d="M95.7 783.1v17.8h17.8l70.8-.4.3 18.1h17.8v35.5h-35.6v17.8h53.4v-17.8h106.6v17.8h53.4v-35.5h17.7v-17.8h-35.5v17.8h-17.8v-35.5H309v-35.6h-17.7V712h-17.8v71.1h17.8v17.8h-35.6v-17.8h-17.8v-17.8h-35.5v-17.7h-17.8v-53.3l-17.5.3-.3 35.2v35.5H149v17.8H95.7z" class="cls-44"/>
  <path d="M309 1351v17.8h-17.8v53.3h231.1V907h-35.5v-17.8H469v-17.8h35.5v17.8h17.8V693.8h-17.7v-35.5h-17.8v-35.5H469v-35.5h-71.1v53.3h35.6v124.3h17.8v53.3h17.8v53.3h-17.8V836h-17.8v-53.3h-17.8v35.5h-53.3V836h-17.8v17.8h35.6v35.5H398v17.8h17.8v88.8H398v17.8h17.8v17.8H398v17.8h17.8v17.8h17.8v17.8h-17.8v17.8h17.8v17.8h-17.8v17.8h-35.6v71.1h-17.8v53.3h-17.8v35.5h-17.8v35.5H309v17.8-.5Zm160-585.6v-17.8h-17.8v-17.8H469V712h17.8v17.8h17.8v17.8h-17.8v17.8H469Zm0 372.9h17.8v-17.8H469v-17.8h17.8v17.8h17.8v17.8h-17.8v17.8H469v-17.8Zm-17.8-17.7H469v17.8h-17.8v-17.8ZM380.1 1316h17.8v-17.8h17.8v17.8h17.8v17.8h-17.8v17.8h-17.8v-17.8h-17.8V1316Z" style="fill:url(#New_Pattern_Swatch_69-3)"/>
  <path d="M362.3 268.1h17.8v-53.3h-35.6V197h-17.7v-35.5H309V19.4h-17.8V1.6h-17.8v159.9h17.8V197H309v17.8h17.8v35.5h17.7v17.8h17.8zm124.5-17.8h17.7v-35.5h17.8V-16.1h-35.5v53.3H469V19.4h-17.8v71.1H469v159.8h-71.1v53.3h17.8v-17.8h35.5v-17.7h35.6v-17.8z" class="cls-44"/>
  <path d="M504.5 641h17.8V250.3h-17.8v17.8h-17.7v17.7h-35.6v17.8H469v53.3h-17.8v35.5h-53.3v53.3h35.5v17.7h17.8v-17.7H469v-17.8h17.8v17.8h17.7v17.7h-17.7v17.8H469v-17.8h-17.8v88.8H469V570h17.8v35.5h17.7V641z" class="cls-44"/>
  <path d="M504.5 250.3h17.8v-35.5h-17.8v35.5z" class="cls-43"/>
  <path d="M164.4 1070.8v35.5l17.5.3.2 17.5h17.8v17.7h-17.8v17.8h35.6v17.7h-17.8v17.8H271v-17.8h71.1v35.6h17.8v17.7h17.8v-53.3h17.8v35.6h17.8v35.5H431v-71.1h35.6v17.8h35.5v-17.8h-17.7v-17.7h-35.6v-35.5H431v-17.8h-17.7v-17.8h-88.9v17.8H271v-35.5h-17.7v-35.6h-17.8v17.8h-35.6v-17.8h-17.8v35.6h-17.7z" style="fill:url(#New_Pattern_Swatch_7)"/>
  <path d="M857.7 1839.7h17.8v17.8h-17.8z" style="fill:url(#New_Pattern_Swatch_7-9_2)"/>
  <path d="M839.9 2408.1h17.8v17.8h-17.8z" style="fill:url(#New_Pattern_Swatch_7-10_2)"/>
  <path d="M839.9 2372.6h17.8v17.8h-17.8z" style="fill:url(#New_Pattern_Swatch_7-11_2)"/>
  <path d="M839.9 2337h17.8v17.8h-17.8z" style="fill:url(#New_Pattern_Swatch_7-12_2)"/>
  <path d="M839.9 1857.5h17.8v17.8h-17.8z" style="fill:url(#New_Pattern_Swatch_7-13_2)"/>
  <path d="M822.1 2390.3h17.8v17.8h-17.8z" style="fill:url(#New_Pattern_Swatch_7-14_2)"/>
  <path d="M822.1 2354.8h17.8v17.8h-17.8z" style="fill:url(#New_Pattern_Swatch_7-15_2)"/>
  <path d="M822.1 1875.2h17.8v17.8h-17.8z" style="fill:url(#New_Pattern_Swatch_7-16_2)"/>
  <path d="M822.1 1839.7h17.8v17.8h-17.8z" style="fill:url(#New_Pattern_Swatch_7-17_2)"/>
  <path d="M804.3 2408.1h17.8v17.8h-17.8z" style="fill:url(#New_Pattern_Swatch_7-18_2)"/>
  <path d="M804.3 2372.6h17.8v17.8h-17.8z" style="fill:url(#New_Pattern_Swatch_7-19_2)"/>
  <path d="M804.3 2337h17.8v17.8h-17.8z" style="fill:url(#New_Pattern_Swatch_7-20_2)"/>
  <path d="M786.6 2390.3h17.8v17.8h-17.8z" style="fill:url(#New_Pattern_Swatch_7-21_2)"/>
  <path d="M786.6 2354.8h17.8v17.8h-17.8z" style="fill:url(#New_Pattern_Swatch_7-22_2)"/>
  <path d="M768.8 2408.1h17.8v17.8h-17.8z" style="fill:url(#New_Pattern_Swatch_7-23_2)"/>
  <path d="M768.8 2372.6h17.8v17.8h-17.8z" style="fill:url(#New_Pattern_Swatch_7-24_2)"/>
  <path d="M768.8 2337h17.8v17.8h-17.8z" style="fill:url(#New_Pattern_Swatch_7-25_2)"/>
  <path d="M751 2390.3h17.8v17.8H751z" style="fill:url(#New_Pattern_Swatch_7-26_2)"/>
  <path d="M751 2354.8h17.8v17.8H751z" style="fill:url(#New_Pattern_Swatch_7-27_2)"/>
  <path d="M733.2 2408.1H751v17.8h-17.8z" style="fill:url(#New_Pattern_Swatch_7-28_2)"/>
  <path d="M733.2 2372.6H751v17.8h-17.8z" style="fill:url(#New_Pattern_Swatch_7-29_2)"/>
  <path d="M733.2 2337H751v17.8h-17.8z" style="fill:url(#New_Pattern_Swatch_7-30_2)"/>
  <path d="M715.5 2390.3h17.8v17.8h-17.8z" style="fill:url(#New_Pattern_Swatch_7-31_2)"/>
  <path d="M715.5 2354.8h17.8v17.8h-17.8z" style="fill:url(#New_Pattern_Swatch_7-32_2)"/>
  <path d="M733.2 2319.3H751v17.8h17.8v-17.8h17.8v17.8h17.8v-17.8h17.8v17.8H840v-17.8h17.8v-17.8H840v-17.8h17.8v-71H840v-17.8h17.8v-88.8H840v-17.8h35.6v17.8h17.8v-35.5h-17.8v-17.8h17.8V1964h-17.8v-53.3h35.6v-17.8h-17.8v-17.8h-35.6v53.3H840v35.5h-17.8v17.8h-17.8v17.8h-17.8v35.5h-17.8v71H751v17.8h17.8v17.8h-35.6v35.5h-17.8v17.8h-17.8v88.8h17.8v17.8h-17.8v17.8h17.8v17.8h17.8v-17.8Zm35.6-17.8v-17.8h17.8v17.8h-17.8Zm0-106.6h17.8v17.8h-17.8v-17.8Zm35.5 71.1h-17.8v-17.8h17.8v17.8Zm-53.3-17.8h17.8v17.8H751v-17.8Zm71.1 53.3h-17.8v-17.8h17.8v17.8Zm17.8-35.5h-17.8v-17.8h17.8v17.8Zm-17.8-53.3h-17.8v-17.8h17.8v17.8Zm17.8-71h-17.8v-17.8h17.8v17.8Zm-17.8-35.6h-17.8v-17.8h17.8v17.8Zm-35.5 17.8h17.8v17.8h-17.8v-17.8Zm-35.6 71v17.8h-17.8v-17.8H751Zm-35.5 53.3h17.8v17.8h-17.8v-17.8Zm17.7 35.5H751v17.8h-17.8v-17.8Z" style="fill:url(#New_Pattern_Swatch_7-33_2)"/>
  <path d="M697.7 2408.1h17.8v17.8h-17.8z" style="fill:url(#New_Pattern_Swatch_7-34_2)"/>
  <path d="M697.7 2372.6h17.8v17.8h-17.8z" style="fill:url(#New_Pattern_Swatch_7-35_2)"/>
  <path d="M697.7 2337h17.8v17.8h-17.8z" style="fill:url(#New_Pattern_Swatch_7-36_2)"/>
  <path d="M679.9 2390.3h17.8v17.8h-17.8z" style="fill:url(#New_Pattern_Swatch_7-37_2)"/>
  <path d="M679.9 2354.8h17.8v17.8h-17.8z" style="fill:url(#New_Pattern_Swatch_7-38_2)"/>
  <path d="M742.5 1234.6h17.7v17.8h-17.7zm194.3 88.8h17.7v17.8h-17.7zm-17.7 17.8h17.7v17.8h-17.7zm0-355.3h17.7v17.8h-17.7zm0-35.5h17.7v17.8h-17.7zm-17.6 373h17.7v17.8h-17.7z" class="cls-42"/>
  <path d="M901.5 968.2h17.7V986h-17.7zm-17.7 373h17.7v17.8h-17.7zm0-390.8h17.7v17.8h-17.7z" class="cls-42"/>
  <path d="M866.1 1358.9h17.7v17.8h-17.7zm0-35.5h17.7v17.8h-17.7z" class="cls-42"/>
  <path d="M848.5 1341.2h17.7v17.8h-17.7zm0-35.5h17.7v17.8h-17.7zm-17.7 53.2h17.7v17.8h-17.7zm0-35.5h17.7v17.8h-17.7zm0-35.5h17.7v17.8h-17.7zm0-35.5h17.7v17.8h-17.7z" class="cls-42"/>
  <path d="M813.1 1341.2h17.7v17.8h-17.7zm0-35.5h17.7v17.8h-17.7zm0-35.6h17.7v17.8h-17.7zm0-35.5h17.7v17.8h-17.7z" class="cls-42"/>
  <path d="M795.5 1358.9h17.7v17.8h-17.7zm0-35.5h17.7v17.8h-17.7zm0-35.5h17.7v17.8h-17.7zm0-35.5h17.7v17.8h-17.7zm-17.7 88.8h17.7v17.8h-17.7zm0-35.5h17.7v17.8h-17.7zm0-35.6h17.7v17.8h-17.7zM972.1 1057h-35.3v-17.8h-17.7v17.8h-17.6v-71.1h-53v17.8h17.6v17.8h17.7v17.7h-53v17.8h-35.3v17.8h-17.7v17.7h17.7v17.8h-17.7v17.7h17.7v17.8h-17.7v17.8h17.7v17.7h-17.7v35.5h-17.7v17.8h17.7v17.8h17.7v-17.8h17.6v-17.8h17.7V1128h17.7v35.6h70.6v-17.8h35.4V1128h17.6v-17.7h17.7V1057h-17.7z" class="cls-42"/>
  <path d="M760.1 1323.4h17.7v17.8h-17.7zm0-35.5h17.7v17.8h-17.7zm0-35.5h17.7v17.8h-17.7zm0-88.8h17.7v17.8h-17.7zm0-35.6h-17.6v17.8h35.3V1128h-17.7zm0-35.5h17.7v17.8h-17.7z" class="cls-42"/>
  <path d="M742.5 1270.1h17.7v17.8h-17.7zm0-88.8h17.7v17.8h-17.7zm0-106.5h17.7v17.8h-17.7zm-35.4 71v17.8h35.4v-17.8h-35.4z" class="cls-42"/>
  <path d="M300.1 2195v35.6h17.8l17.8-.1h35.6v-71.1h-17.8l-.1-17.7h-53.3v53.3z" style="fill:url(#New_Pattern_Swatch_69-4)"/>
  <path d="M228.9 2177.3h17.8v17.7h17.8v-71.1h-17.8v-17.8l-17.8.1v-17.8h-17.8v-17.8h-17.8v17.8h-17.8v53.3h17.8v17.8h35.6v17.8z" style="fill:url(#New_Pattern_Swatch_69-8)"/>
  <path d="M157.7 2035.1v-35.6h-17.8V1964l-.1-17.8h-18v-17.5H104v17.8h.3v35.3h17.8v35.5h-17.8l-17.8.1v-17.8H50.9V1964H33.1v-17.7H15.3v35.5h17.8v35.6h35.6v17.7h17.8v17.8h17.8v35.5h17.8v17.8h17.8v-53.3h17.8v-17.8z" style="fill:url(#New_Pattern_Swatch_69-11)"/>
  <path d="M460.2 2123.8h-17.8v-17.7H389v17.8h-17.8v17.7l.1 17.8v124.5h-17.8v-53.4h-17.8l-17.8.1v71.1l.1 17.7h17.7v17.8h53.4v-17.8h17.8V2195l-.1-17.8v-17.8h17.8v17.8h17.8v53.3l.1 17.8v71.1h-17.8v17.8h-17.8v17.8H246.8v17.8h-35.6v53.3l.1 17.8h71.1v17.8H318v17.7h17.8v-35.5H318v-17.8h-35.6v-17.8h-35.6v-17.7h35.6l17.8-.1H407l-.1-17.8h35.6v-17.8h17.8v-35.5h17.8v-71.1l-.1-17.8v-88.9h-17.8v-17.8z" style="fill:url(#New_Pattern_Swatch_7-36)"/>
  <path d="M264.5 2159.5v53.3h-17.8v-35.5h-17.8v-17.8h-17.8v71.1l.1 17.8H229v17.7h53.3v-17.7l17.8-.1v-106.6h53.3v-35.6h-17.8v-17.8l-17.8.1h-35.5v17.7h-17.8v53.4z" style="fill:url(#New_Pattern_Swatch_7-37)"/>
  <path d="M157.7 2035.1v17.8h-17.8v88.9l.1 17.7v17.8H86.6v35.6h17.8v17.7h53.4v-35.5h17.8l-.1-17.8v-88.9h17.8v-17.8h17.8v17.8h17.8v17.8l17.8-.1v-53.3h-17.8V2035l-17.8.1h-53.4z" style="fill:url(#New_Pattern_Swatch_7-38)"/>
  <path d="M68.8 2212.9h17.8v17.8H68.8z" style="fill:url(#New_Pattern_Swatch_7-39)"/>
  <path d="M51 2230.7h17.8v17.8H51z" style="fill:url(#New_Pattern_Swatch_7-40)"/>
  <path d="M15.4 2248.5v17.7h17.8l.1 17.8H51v-35.5H15.4z" style="fill:url(#New_Pattern_Swatch_7-41)"/>
  <path d="M490.5-117.5h183.9v2691.6H490.5z" style="fill:url(#New_Pattern_Swatch_69-2-4)"/>
  <path d="M660.1 1253.6h17.7v17.8h-17.7zm-35.3 0h17.7v17.8h-17.7z" class="cls-1"/>
  <path d="M607.1 1235.9h17.7v17.8h-17.7zm-17.7-17.8h17.7v17.8h-17.7zm35.4 0h17.7v17.8h-17.7zm17.6 17.8h17.7v17.8h-17.7zm-17.6-124.3h17.7v17.8h-17.7zm-17.7 53.2h17.7v17.8h-17.7z" class="cls-1"/>
  <path d="M607.1 1200.4h17.7v17.8h-17.7zm17.7-17.8h17.7v17.8h-17.7zm-35.4-35.5h17.7v17.8h-17.7zm17.7-17.8h17.7v17.8h-17.7zm-17.7 53.3h17.7v17.8h-17.7zm53-88.8h17.7v17.8h-17.7zm0 35.5h17.7v17.8h-17.7zm0-71h17.7v17.8h-17.7zm17.7 17.7h17.7v17.8h-17.7zm-35.3 71.1h17.7v17.8h-17.7z" class="cls-1"/>
  <path d="M748.4 880.6h17.7v17.8h-17.7zm123.7-17.7h17.7v17.8h-17.7z" class="cls-94"/>
  <path d="M872.1 862.9h17.7v17.8h-17.7zm0-35.5h17.7v17.8h-17.7z" class="cls-94"/>
  <path d="M872.1 827.4h17.7v17.8h-17.7zm-17.7 17.7h17.7v17.8h-17.7z" class="cls-94"/>
  <path d="M854.4 845.1h17.7v17.8h-17.7z" class="cls-94"/>
  <path d="M836.8 827.4h17.7v17.8h-17.7z" class="cls-94"/>
  <path d="M836.8 827.4h17.7v17.8h-17.7zm-53 159.8h17.7v17.8h-17.7z" class="cls-94"/>
  <path d="M783.8 987.2h17.7v17.8h-17.7zm-17.7 35.5h17.7v17.8h-17.7z" class="cls-94"/>
  <path d="M766.1 1022.7h17.7v17.8h-17.7zm-17.7-17.7h17.7v17.8h-17.7z" class="cls-94"/>
  <path d="M748.4 1005h17.7v17.8h-17.7zm-53 266.4h17.7v17.8h-17.7z" class="cls-94"/>
  <path d="M695.4 1271.4h17.7v17.8h-17.7zm-17.6-17.8h17.7v17.8h-17.7z" class="cls-94"/>
  <path d="M677.8 1253.6h17.7v17.8h-17.7zm-17.7 17.8h17.7v17.8h-17.7z" class="cls-94"/>
  <path d="M660.1 1271.4h17.7v17.8h-17.7zm0-35.5h17.7v17.8h-17.7z" class="cls-94"/>
  <path d="M660.1 1235.9h17.7v17.8h-17.7zm0-106.6h17.7v17.8h-17.7z" class="cls-94"/>
  <path d="M660.1 1129.3h17.7v17.8h-17.7zm0-35.5h17.7v17.8h-17.7z" class="cls-94"/>
  <path d="M660.1 1093.8h17.7v17.8h-17.7zm-17.7 159.8h17.7v17.8h-17.7z" class="cls-94"/>
  <path d="M642.4 1253.6h17.7v17.8h-17.7zm0-35.5h17.7v17.8h-17.7z" class="cls-94"/>
  <path d="M642.4 1218.1h17.7v17.8h-17.7zm0-35.5h17.7v17.8h-17.7z" class="cls-94"/>
  <path d="M642.4 1182.6h17.7v17.8h-17.7zm0-35.5h17.7v17.8h-17.7z" class="cls-94"/>
  <path d="M642.4 1147.1h17.7v17.8h-17.7zm0-35.5h17.7v17.8h-17.7z" class="cls-94"/>
  <path d="M642.4 1111.6h17.7v17.8h-17.7zm-17.6 159.8h17.7v17.8h-17.7z" class="cls-94"/>
  <path d="M624.8 1271.4h17.7v17.8h-17.7zm0-35.5h17.7v17.8h-17.7z" class="cls-94"/>
  <path d="M624.8 1235.9h17.7v17.8h-17.7zm0-35.5h17.7v17.8h-17.7z" class="cls-94"/>
  <path d="M624.8 1200.4h17.7v17.8h-17.7zm0-35.6h17.7v17.8h-17.7z" class="cls-94"/>
  <path d="M624.8 1164.8h17.7v17.8h-17.7zm0-35.5h17.7v17.8h-17.7z" class="cls-94"/>
  <path d="M624.8 1129.3h17.7v17.8h-17.7zm194.3-266.4h-35.3v17.7h-17.7v17.8h-17.7v-17.8h17.7v-53.2h-53v-17.8h-17.7v-17.8h-70.6v17.8h17.6v53.3h17.7v17.7h-17.7v35.6h17.7v35.5h35.3v17.8h-17.6v17.7h-17.7v17.8h-17.7v17.7h-17.6v88.9h17.6v-17.8h17.7V1076h-17.7v-17.7h17.7v17.7h17.7v17.8h17.6V1005h17.7v-17.8h17.7v17.8h17.6v-17.8h35.4v-17.7h-17.7v-17.8h17.7v-17.8h17.6v-35.5h17.7v17.8h17.7v17.7h17.6v-71h-35.3z" class="cls-94"/>
  <path d="M819.1 862.9h-35.3v17.7h-17.7v17.8h-17.7v-17.8h17.7v-53.2h-53v-17.8h-17.7v-17.8h-70.6v17.8h17.6v53.3h17.7v17.7h-17.7v35.6h17.7v35.5h35.3v17.8h-17.6v17.7h-17.7v17.8h-17.7v17.7h-17.6v88.9h17.6v-17.8h17.7V1076h-17.7v-17.7h17.7v17.7h17.7v17.8h17.6V1005h17.7v-17.8h17.7v17.8h17.6v-17.8h35.4v-17.7h-17.7v-17.8h17.7v-17.8h17.6v-35.5h17.7v17.8h17.7v17.7h17.6v-71h-35.3zm-212 390.7h17.7v17.8h-17.7z" class="cls-94"/>
  <path d="M607.1 1253.6h17.7v17.8h-17.7zm0-35.5h17.7v17.8h-17.7z" class="cls-94"/>
  <path d="M607.1 1218.1h17.7v17.8h-17.7zm0-35.5h17.7v17.8h-17.7z" class="cls-94"/>
  <path d="M607.1 1182.6h17.7v17.8h-17.7zm0-35.5h17.7v17.8h-17.7z" class="cls-94"/>
  <path d="M607.1 1147.1h17.7v17.8h-17.7zm0-35.5h17.7v17.8h-17.7z" class="cls-94"/>
  <path d="M607.1 1111.6h17.7v17.8h-17.7zm-17.7 124.3h17.7v17.8h-17.7z" class="cls-94"/>
  <path d="M589.4 1235.9h17.7v17.8h-17.7zm0-35.5h17.7v17.8h-17.7z" class="cls-94"/>
  <path d="M589.4 1200.4h17.7v17.8h-17.7zm0-35.6h17.7v17.8h-17.7z" class="cls-94"/>
  <path d="M589.4 1164.8h17.7v17.8h-17.7zm0-35.5h17.7v17.8h-17.7z" class="cls-94"/>
  <path d="M589.4 1129.3h17.7v17.8h-17.7zm-17.6 88.8h17.7v17.8h-17.7z" class="cls-94"/>
  <path d="M571.8 1218.1h17.7v17.8h-17.7zm0-35.5h17.7v17.8h-17.7z" class="cls-94"/>
  <path d="M571.8 1182.6h17.7v17.8h-17.7zm0-35.5h17.7v17.8h-17.7z" class="cls-94"/>
  <path d="M571.8 1147.1h17.7v17.8h-17.7z" class="cls-94"/>
</svg>
